<svg width="0" height="0" class="hidden">

	<!-- !logo -->
  <symbol fill="none" xmlns="http://www.w3.org/2000/svg" viewBox="0 0 130 22" id="logo">
    <g clip-path="url(#clip0_39336_1647)">
      <path d="M0 11.0998C0 4.9998 3.3 1.2998 8.7 1.2998C12.8 1.2998 16.1 3.7998 16.7 7.4998C16.8 7.8998 16.5 8.1998 16.1 8.1998H13.5C13.2 8.1998 13 7.9998 12.9 7.6998C12.4 5.7998 10.8 4.5998 8.7 4.5998C5.8 4.5998 4 7.0998 4 11.0998C4 15.0998 5.8 17.5998 8.8 17.5998C10.9 17.5998 12.4 16.4998 13 14.6998C13.1 14.3998 13.3 14.1998 13.6 14.1998H16.2C16.6 14.1998 16.9 14.5998 16.8 14.8998C16.2 18.4998 13 20.8998 8.8 20.8998C3.3 20.8998 0 17.0998 0 11.0998Z" fill="#1E212C"></path>
      <path d="M24.2997 20.4001H21.3997C21.0997 20.4001 20.8997 20.2001 20.8997 19.9001V2.60006C20.8997 2.20006 21.2997 1.80006 21.6997 1.80006H28.6997C32.7997 1.80006 35.2997 4.10006 35.2997 7.70006C35.2997 9.80006 34.2997 11.7001 32.5997 12.7001C32.1997 12.9001 32.0997 13.4001 32.2997 13.7001L35.3997 19.6001C35.5997 19.9001 35.2997 20.3001 34.9997 20.3001H31.6997C31.4997 20.3001 31.2997 20.2001 31.1997 20.0001L28.2997 14.0001C28.1997 13.7001 27.8997 13.6001 27.5997 13.6001H25.2997C24.9997 13.6001 24.7997 13.8001 24.7997 14.1001V20.0001C24.8997 20.2001 24.5997 20.4001 24.2997 20.4001ZM24.8997 10.2001C24.8997 10.5001 25.0997 10.7001 25.3997 10.7001H28.3997C30.3997 10.7001 31.4997 9.60006 31.4997 7.80006C31.4997 6.00006 30.2997 4.90006 28.3997 4.90006H25.4997C25.1997 4.90006 24.9997 5.10006 24.9997 5.40006V10.2001H24.8997Z" fill="#1E212C"></path>
      <path d="M51.4998 20.4001H40.4998C40.0998 20.4001 39.7998 20.1001 39.7998 19.7001V2.50006C39.7998 2.10006 40.0998 1.80006 40.4998 1.80006H51.4998C51.8998 1.80006 52.1998 2.10006 52.1998 2.50006V4.40006C52.1998 4.80006 51.8998 5.10006 51.4998 5.10006H44.1998C43.8998 5.10006 43.6998 5.30006 43.6998 5.60006V9.00006C43.6998 9.30006 43.8998 9.50006 44.1998 9.50006H50.9998C51.3998 9.50006 51.6998 9.80006 51.6998 10.2001V11.9001C51.6998 12.3001 51.3998 12.6001 50.9998 12.6001H44.1998C43.8998 12.6001 43.6998 12.8001 43.6998 13.1001V16.9001C43.6998 17.2001 43.8998 17.4001 44.1998 17.4001H51.4998C51.8998 17.4001 52.1998 17.7001 52.1998 18.1001V20.0001C52.1998 20.1001 51.8998 20.4001 51.4998 20.4001Z" fill="#1E212C"></path>
      <path d="M66.9999 15.9001H61.2999C60.9999 15.9001 60.7999 16.1001 60.6999 16.3001L59.5999 20.0001C59.4999 20.3001 59.2999 20.4001 58.9999 20.4001H56.3999C55.9999 20.4001 55.6999 20.0001 55.7999 19.6001L61.7999 2.20006C61.8999 2.00006 62.0999 1.80006 62.3999 1.80006H66.0999C66.3999 1.80006 66.5999 2.00006 66.6999 2.20006L72.6999 19.6001C72.7999 20.0001 72.4999 20.4001 72.0999 20.4001H69.1999C68.8999 20.4001 68.6999 20.2001 68.5999 20.0001L67.4999 16.3001C67.4999 16.1001 67.1999 15.9001 66.9999 15.9001ZM62.0999 13.0001H66.1999C66.3999 13.0001 66.4999 12.8001 66.4999 12.6001L64.2999 5.60006H64.0999L61.8999 12.6001C61.7999 12.8001 61.8999 13.0001 62.0999 13.0001Z" fill="#1E212C"></path>
      <path d="M79.0001 19.7005V5.50045C79.0001 5.20045 78.8001 5.00045 78.5001 5.00045H74.1001C73.7001 5.00045 73.3001 4.70045 73.3001 4.20045V2.50045C73.3001 2.10045 73.6001 1.70045 74.1001 1.70045H87.7001C88.1001 1.70045 88.5001 2.00045 88.5001 2.50045V4.20045C88.5001 4.60045 88.2001 5.00045 87.7001 5.00045H83.3001C83.0001 5.00045 82.8001 5.20045 82.8001 5.50045V19.8004C82.8001 20.2004 82.5001 20.5005 82.1001 20.5005H79.6001C79.3001 20.4004 79.0001 20.1005 79.0001 19.7005Z" fill="#1E212C"></path>
      <path d="M103.8 20.4001H92.7999C92.3999 20.4001 92.0999 20.1001 92.0999 19.7001V2.50006C92.0999 2.10006 92.3999 1.80006 92.7999 1.80006H103.8C104.2 1.80006 104.5 2.10006 104.5 2.50006V4.40006C104.5 4.80006 104.2 5.10006 103.8 5.10006H96.4999C96.1999 5.10006 95.9999 5.30006 95.9999 5.60006V9.00006C95.9999 9.30006 96.1999 9.50006 96.4999 9.50006H103.3C103.7 9.50006 104 9.80006 104 10.2001V11.9001C104 12.3001 103.7 12.6001 103.3 12.6001H96.4999C96.1999 12.6001 95.9999 12.8001 95.9999 13.1001V16.9001C95.9999 17.2001 96.1999 17.4001 96.4999 17.4001H103.8C104.2 17.4001 104.5 17.7001 104.5 18.1001V20.0001C104.5 20.1001 104.2 20.4001 103.8 20.4001Z" fill="#1E212C"></path>
      <path d="M117.7 9.7L111.5 1.6C111.1 1.2 110.6 1 110.1 1C109.6 1 109.1 1.2 108.7 1.6C108 2.4 108 3.6 108.7 4.4L113.6 11L108.7 17.6C108 18.4 108 19.6 108.7 20.4C109.1 20.8 109.6 21 110.1 21C110.6 21 111.1 20.8 111.5 20.4L117.7 12.3C118.4 11.7 118.4 10.5 117.7 9.7Z" fill="#FF3F3A"></path>
      <path d="M120.343 9.7L126.543 1.6C126.943 1.2 127.443 1 127.943 1C128.443 1 128.943 1.2 129.343 1.6C130.043 2.4 130.043 3.6 129.343 4.4L124.443 11L129.343 17.6C130.043 18.4 130.043 19.6 129.343 20.4C128.943 20.8 128.443 21 127.943 21C127.443 21 126.943 20.8 126.543 20.4L120.343 12.3C119.643 11.7 119.643 10.5 120.343 9.7Z" fill="#FF3F3A"></path>
    </g>
    <defs>
      <clipPath id="clip0_39336_1647">
        <rect width="130" height="22" fill="white"></rect>
      </clipPath>
    </defs>
  </symbol>

	<!-- !main-arrow-diagonal -->
  <symbol fill="none" xmlns="http://www.w3.org/2000/svg" viewBox="0 0 96 96" id="main-arrow-diagonal">
    <g opacity="0.3">
      <path d="M64.3007 11.9214L64.3007 0.000445276L95.9995 0.000442505L95.9995 31.6992L84.1689 31.6992L84.1689 11.9214L64.3007 11.9214Z" fill="white"></path>
      <path d="M42.8984 33.3247L42.8984 21.4941L74.5972 21.4941L74.5972 53.1025L62.6763 53.1025L62.6763 33.3247L42.8984 33.3247Z" fill="white"></path>
      <path d="M21.4946 54.8188L21.4946 42.8979L53.103 42.8979L53.103 74.5967L41.2724 74.5967L41.2724 54.8188L21.4946 54.8188Z" fill="white"></path>
      <path d="M0.000450313 76.2221L0.00044927 64.3012L31.6992 64.3012L31.6992 96L19.7783 96L19.7783 76.2221L0.000450313 76.2221Z" fill="white"></path>
    </g>
  </symbol>

	<!-- !main-arrow-down -->
  <symbol fill="none" xmlns="http://www.w3.org/2000/svg" viewBox="0 0 156 111" id="main-arrow-down">
    <g opacity="0.3">
      <path d="M93.8067 75.2212L103.465 84.8799L77.782 110.563L52.0986 84.8799L61.6842 75.2943L77.7089 91.319L93.8067 75.2212Z" fill="white"></path>
      <path d="M93.8057 40.5386L103.391 50.1241L77.7079 75.8075L52.0977 50.1973L61.7564 40.5386L77.7811 56.5632L93.8057 40.5386Z" fill="white"></path>
      <path d="M93.733 5.78165L103.392 15.4404L77.7815 41.0506L52.0981 15.3672L61.6837 5.78165L77.7084 21.8063L93.733 5.78165Z" fill="white"></path>
      <path d="M93.8062 -28.9761L103.465 -19.3174L77.7815 6.36601L52.0981 -19.3174L61.7569 -28.9761L77.7815 -12.9514L93.8062 -28.9761Z" fill="white"></path>
    </g>
  </symbol>

	<!-- !main-circles -->
  <symbol fill="none" xmlns="http://www.w3.org/2000/svg" viewBox="0 0 172 184" id="main-circles">
    <path d="M30.0975 0C-48.4557 0 -112 63.5443 -112 142.097C-112 220.456 -48.4557 284.195 30.0975 284.195C108.456 284.195 172.195 220.651 172.195 142.097C172 63.5443 108.456 0 30.0975 0ZM30.0975 275.034C-43.3878 275.034 -102.839 215.583 -102.839 142.097C-102.839 68.6122 -43.3878 9.16129 30.0975 9.16129C103.583 9.16129 163.034 68.6122 163.034 142.097C163.034 215.388 103.388 275.034 30.0975 275.034Z" fill="white"></path>
    <path d="M30.0988 30.6025C-31.3014 30.6025 -81.2012 80.5023 -81.2012 141.902C-81.2012 203.303 -31.3014 253.202 30.0988 253.202C91.4989 253.202 141.399 203.498 141.399 142.097C141.399 80.5023 91.4989 30.6025 30.0988 30.6025ZM30.0988 236.244C-21.9452 236.244 -64.243 193.946 -64.243 141.902C-64.243 89.8585 -21.9452 47.5607 30.0988 47.5607C82.1427 47.5607 124.441 89.8585 124.441 141.902C124.441 193.946 82.1427 236.244 30.0988 236.244Z" fill="white"></path>
    <path d="M30.098 79.5273C-4.40304 79.5273 -32.4717 107.596 -32.4717 142.097C-32.4717 176.598 -4.59796 204.667 30.098 204.667C64.599 204.667 92.6677 176.598 92.6677 142.097C92.4727 107.596 64.599 79.5273 30.098 79.5273ZM30.098 175.623C11.5805 175.623 -3.42843 160.614 -3.42843 142.097C-3.42843 123.579 11.5805 108.571 30.098 108.571C48.6155 108.571 63.6244 123.579 63.6244 142.097C63.6244 160.614 48.6155 175.623 30.098 175.623Z" fill="white"></path>
  </symbol>

	<!-- !person -->
  <symbol fill="none" xmlns="http://www.w3.org/2000/svg" viewBox="0 0 18 18" id="person">
    <path fill-rule="evenodd" clip-rule="evenodd" d="M9.00019 1.70866C7.38936 1.70866 6.08353 3.0145 6.08353 4.62533C6.08353 6.23616 7.38936 7.54199 9.00019 7.54199C10.611 7.54199 11.9169 6.23616 11.9169 4.62533C11.9169 3.0145 10.611 1.70866 9.00019 1.70866ZM4.41686 4.62533C4.41686 2.09402 6.46889 0.0419922 9.00019 0.0419922C11.5315 0.0419922 13.5835 2.09402 13.5835 4.62533C13.5835 7.15663 11.5315 9.20866 9.00019 9.20866C6.46889 9.20866 4.41686 7.15663 4.41686 4.62533Z" fill="#424551"></path>
    <path fill-rule="evenodd" clip-rule="evenodd" d="M4.08691 11.7087C3.50914 11.7087 3.05755 11.99 2.87424 12.3942C2.62053 12.9536 2.39078 13.6196 2.33656 14.2513C2.31233 14.5337 2.43006 14.7418 2.5923 14.8426C3.44993 15.3753 5.43719 16.292 9.00019 16.292C12.5632 16.292 14.5505 15.3753 15.4081 14.8426C15.5703 14.7418 15.6881 14.5337 15.6638 14.2513C15.6096 13.6196 15.3799 12.9536 15.1261 12.3942C14.9428 11.99 14.4912 11.7087 13.9135 11.7087H4.08691ZM1.35639 11.7058C1.86301 10.5887 2.99428 10.042 4.08691 10.042H13.9135C15.0061 10.042 16.1374 10.5887 16.644 11.7058C16.935 12.3474 17.2472 13.2099 17.3244 14.1088C17.3946 14.9273 17.0544 15.7819 16.2876 16.2583C15.1596 16.959 12.8665 17.9587 9.00019 17.9587C5.13386 17.9587 2.84078 16.959 1.71283 16.2583C0.945947 15.7819 0.605747 14.9273 0.676001 14.1088C0.753149 13.2099 1.0654 12.3474 1.35639 11.7058Z" fill="#424551"></path>
  </symbol>

	<!-- !play -->
  <symbol fill="none" xmlns="http://www.w3.org/2000/svg" viewBox="0 0 11 14" id="play">
    <path d="M10.5 6.13398C11.1667 6.51888 11.1667 7.48113 10.5 7.86603L1.5 13.0622C0.833332 13.4471 -6.10471e-07 12.966 -5.76822e-07 12.1962L-1.2256e-07 1.80385C-8.8911e-08 1.03405 0.833334 0.552922 1.5 0.937822L10.5 6.13398Z" fill="white"></path>
  </symbol>

	<!-- !semicircle -->
  <symbol fill="none" xmlns="http://www.w3.org/2000/svg" viewBox="0 0 61 61" id="semicircle">
    <path opacity="0.3" d="M61 50.5529C47.0706 64.4824 24.3765 64.4824 10.4471 50.5529C-3.48236 36.6235 -3.48236 13.9294 10.4471 0L61 50.5529Z" fill="white"></path>
  </symbol>

	<!-- !dots-group -->
  <symbol fill="none" xmlns="http://www.w3.org/2000/svg" viewBox="0 0 157 137" id="dots-group">
    <path d="M5.3356 40.2644C5.3356 41.7838 4.19226 42.9234 2.6678 42.9234C1.14334 42.9234 0 41.7838 0 40.2644C0 38.745 1.14334 37.6055 2.6678 37.6055C4.19226 37.6055 5.3356 38.8716 5.3356 40.2644Z" fill="white"></path>
    <path d="M28.0753 40.2644C28.0753 41.7838 26.932 42.9234 25.4075 42.9234C23.8831 42.9234 22.7397 41.7838 22.7397 40.2644C22.7397 38.745 23.8831 37.6055 25.4075 37.6055C26.805 37.6055 28.0753 38.8716 28.0753 40.2644Z" fill="white"></path>
    <path d="M50.6881 40.2644C50.6881 41.7838 49.5448 42.9234 48.0203 42.9234C46.4959 42.9234 45.3525 41.7838 45.3525 40.2644C45.3525 38.745 46.4959 37.6055 48.0203 37.6055C49.5448 37.6055 50.6881 38.8716 50.6881 40.2644Z" fill="white"></path>
    <path d="M73.4279 40.2644C73.4279 41.7838 72.2845 42.9234 70.7601 42.9234C69.2356 42.9234 68.0923 41.7838 68.0923 40.2644C68.0923 38.745 69.2356 37.6055 70.7601 37.6055C72.2845 37.6055 73.4279 38.8716 73.4279 40.2644Z" fill="white"></path>
    <path d="M96.1676 40.2644C96.1676 41.7838 95.0243 42.9234 93.4998 42.9234C91.9754 42.9234 90.832 41.7838 90.832 40.2644C90.832 38.745 91.9754 37.6055 93.4998 37.6055C94.8972 37.6055 96.1676 38.8716 96.1676 40.2644Z" fill="white"></path>
    <path d="M118.908 40.2644C118.908 41.7838 117.765 42.9234 116.24 42.9234C114.716 42.9234 113.572 41.7838 113.572 40.2644C113.572 38.745 114.716 37.6055 116.24 37.6055C117.765 37.6055 118.908 38.8716 118.908 40.2644Z" fill="white"></path>
    <path d="M141.52 40.2644C141.52 41.7838 140.377 42.9234 138.852 42.9234C137.328 42.9234 136.185 41.7838 136.185 40.2644C136.185 38.745 137.328 37.6055 138.852 37.6055C140.377 37.6055 141.52 38.8716 141.52 40.2644Z" fill="white"></path>
    <path d="M5.3356 59.1306C5.3356 60.6501 4.19226 61.7896 2.6678 61.7896C1.14334 61.7896 0 60.6501 0 59.1306C0 57.6112 1.14334 56.4717 2.6678 56.4717C4.19226 56.4717 5.3356 57.6112 5.3356 59.1306Z" fill="white"></path>
    <path d="M28.0753 59.1306C28.0753 60.6501 26.932 61.7896 25.4075 61.7896C23.8831 61.7896 22.7397 60.6501 22.7397 59.1306C22.7397 57.6112 23.8831 56.4717 25.4075 56.4717C26.805 56.4717 28.0753 57.6112 28.0753 59.1306Z" fill="white"></path>
    <path d="M50.6881 59.1306C50.6881 60.6501 49.5448 61.7896 48.0203 61.7896C46.4959 61.7896 45.3525 60.6501 45.3525 59.1306C45.3525 57.6112 46.4959 56.4717 48.0203 56.4717C49.5448 56.4717 50.6881 57.6112 50.6881 59.1306Z" fill="white"></path>
    <path d="M73.4279 59.1306C73.4279 60.6501 72.2845 61.7896 70.7601 61.7896C69.2356 61.7896 68.0923 60.6501 68.0923 59.1306C68.0923 57.6112 69.2356 56.4717 70.7601 56.4717C72.2845 56.4717 73.4279 57.6112 73.4279 59.1306Z" fill="white"></path>
    <path d="M96.1676 59.1306C96.1676 60.6501 95.0243 61.7896 93.4998 61.7896C91.9754 61.7896 90.832 60.6501 90.832 59.1306C90.832 57.6112 91.9754 56.4717 93.4998 56.4717C94.8972 56.4717 96.1676 57.6112 96.1676 59.1306Z" fill="white"></path>
    <path d="M118.908 59.1306C118.908 60.6501 117.765 61.7896 116.24 61.7896C114.716 61.7896 113.572 60.6501 113.572 59.1306C113.572 57.6112 114.716 56.4717 116.24 56.4717C117.765 56.4717 118.908 57.6112 118.908 59.1306Z" fill="white"></path>
    <path d="M141.52 59.1306C141.52 60.6501 140.377 61.7896 138.852 61.7896C137.328 61.7896 136.185 60.6501 136.185 59.1306C136.185 57.6112 137.328 56.4717 138.852 56.4717C140.377 56.4717 141.52 57.6112 141.52 59.1306Z" fill="white"></path>
    <path d="M5.3356 2.65896C5.3356 4.17837 4.19226 5.31793 2.6678 5.31793C1.14334 5.31793 0 4.17837 0 2.65896C0 1.13956 1.14334 0 2.6678 0C4.19226 0 5.3356 1.13956 5.3356 2.65896Z" fill="white"></path>
    <path d="M28.0753 2.65896C28.0753 4.17837 26.932 5.31793 25.4075 5.31793C23.8831 5.31793 22.7397 4.17837 22.7397 2.65896C22.7397 1.13956 23.8831 0 25.4075 0C26.805 0 28.0753 1.13956 28.0753 2.65896Z" fill="white"></path>
    <path d="M50.6881 2.65896C50.6881 4.17837 49.5448 5.31793 48.0203 5.31793C46.4959 5.31793 45.3525 4.17837 45.3525 2.65896C45.3525 1.13956 46.6229 0 48.0203 0C49.5448 0 50.6881 1.13956 50.6881 2.65896Z" fill="white"></path>
    <path d="M73.4279 2.65896C73.4279 4.17837 72.2845 5.31793 70.7601 5.31793C69.2356 5.31793 68.0923 4.17837 68.0923 2.65896C68.0923 1.13956 69.3627 0 70.7601 0C72.1575 0 73.4279 1.13956 73.4279 2.65896Z" fill="white"></path>
    <path d="M96.1676 2.65896C96.1676 4.17837 95.0243 5.31793 93.4998 5.31793C91.9754 5.31793 90.832 4.17837 90.832 2.65896C90.832 1.13956 91.9754 0 93.4998 0C94.8972 0 96.1676 1.13956 96.1676 2.65896Z" fill="white"></path>
    <path d="M118.908 2.65896C118.908 4.17837 117.765 5.31793 116.24 5.31793C114.716 5.31793 113.572 4.17837 113.572 2.65896C113.572 1.13956 114.716 0 116.24 0C117.765 0 118.908 1.13956 118.908 2.65896Z" fill="white"></path>
    <path d="M141.52 2.65896C141.52 4.17837 140.377 5.31793 138.852 5.31793C137.328 5.31793 136.185 4.17837 136.185 2.65896C136.185 1.13956 137.328 0 138.852 0C140.377 0 141.52 1.13956 141.52 2.65896Z" fill="white"></path>
    <path d="M5.3356 21.5252C5.3356 23.0446 4.19226 24.1841 2.6678 24.1841C1.14334 24.1841 0 22.918 0 21.5252C0 20.0058 1.14334 18.8662 2.6678 18.8662C4.19226 18.8662 5.3356 20.0058 5.3356 21.5252Z" fill="white"></path>
    <path d="M28.0753 21.5252C28.0753 23.0446 26.932 24.1841 25.4075 24.1841C23.8831 24.1841 22.7397 23.0446 22.7397 21.5252C22.7397 20.0058 23.8831 18.8662 25.4075 18.8662C26.805 18.8662 28.0753 20.0058 28.0753 21.5252Z" fill="white"></path>
    <path d="M50.6881 21.5252C50.6881 23.0446 49.5448 24.1841 48.0203 24.1841C46.4959 24.1841 45.3525 23.0446 45.3525 21.5252C45.3525 20.0058 46.4959 18.8662 48.0203 18.8662C49.5448 18.8662 50.6881 20.0058 50.6881 21.5252Z" fill="white"></path>
    <path d="M73.4279 21.5252C73.4279 23.0446 72.2845 24.1841 70.7601 24.1841C69.2356 24.1841 68.0923 23.0446 68.0923 21.5252C68.0923 20.0058 69.2356 18.8662 70.7601 18.8662C72.2845 18.8662 73.4279 20.0058 73.4279 21.5252Z" fill="white"></path>
    <path d="M96.1676 21.5252C96.1676 23.0446 95.0243 24.1841 93.4998 24.1841C91.9754 24.1841 90.832 23.0446 90.832 21.5252C90.832 20.0058 91.9754 18.8662 93.4998 18.8662C94.8972 18.8662 96.1676 20.0058 96.1676 21.5252Z" fill="white"></path>
    <path d="M118.908 21.5252C118.908 23.0446 117.765 24.1841 116.24 24.1841C114.716 24.1841 113.572 23.0446 113.572 21.5252C113.572 20.0058 114.716 18.8662 116.24 18.8662C117.765 18.8662 118.908 20.0058 118.908 21.5252Z" fill="white"></path>
    <path d="M141.52 21.5252C141.52 23.0446 140.377 24.1841 138.852 24.1841C137.328 24.1841 136.185 23.0446 136.185 21.5252C136.185 20.0058 137.328 18.8662 138.852 18.8662C140.377 18.8662 141.52 20.0058 141.52 21.5252Z" fill="white"></path>
    <path d="M5.3356 77.8699C5.3356 79.3893 4.19226 80.5289 2.6678 80.5289C1.14334 80.5289 0 79.3893 0 77.8699C0 76.3505 1.14334 75.2109 2.6678 75.2109C4.19226 75.2109 5.3356 76.4771 5.3356 77.8699Z" fill="white"></path>
    <path d="M28.0753 77.8699C28.0753 79.3893 26.932 80.5289 25.4075 80.5289C23.8831 80.5289 22.7397 79.3893 22.7397 77.8699C22.7397 76.3505 23.8831 75.2109 25.4075 75.2109C26.805 75.2109 28.0753 76.4771 28.0753 77.8699Z" fill="white"></path>
    <path d="M50.6881 77.8699C50.6881 79.3893 49.5448 80.5289 48.0203 80.5289C46.4959 80.5289 45.3525 79.3893 45.3525 77.8699C45.3525 76.3505 46.4959 75.2109 48.0203 75.2109C49.5448 75.2109 50.6881 76.4771 50.6881 77.8699Z" fill="white"></path>
    <path d="M73.4279 77.8699C73.4279 79.3893 72.2845 80.5289 70.7601 80.5289C69.2356 80.5289 68.0923 79.3893 68.0923 77.8699C68.0923 76.3505 69.2356 75.2109 70.7601 75.2109C72.2845 75.2109 73.4279 76.4771 73.4279 77.8699Z" fill="white"></path>
    <path d="M96.1676 77.8699C96.1676 79.3893 95.0243 80.5289 93.4998 80.5289C91.9754 80.5289 90.832 79.3893 90.832 77.8699C90.832 76.3505 91.9754 75.2109 93.4998 75.2109C94.8972 75.2109 96.1676 76.4771 96.1676 77.8699Z" fill="white"></path>
    <path d="M118.908 77.8699C118.908 79.3893 117.765 80.5289 116.24 80.5289C114.716 80.5289 113.572 79.3893 113.572 77.8699C113.572 76.3505 114.716 75.2109 116.24 75.2109C117.765 75.2109 118.908 76.4771 118.908 77.8699Z" fill="white"></path>
    <path d="M141.52 77.8699C141.52 79.3893 140.377 80.5289 138.852 80.5289C137.328 80.5289 136.185 79.3893 136.185 77.8699C136.185 76.3505 137.328 75.2109 138.852 75.2109C140.377 75.2109 141.52 76.4771 141.52 77.8699Z" fill="white"></path>
    <path d="M5.3356 96.7361C5.3356 98.2555 4.19226 99.3951 2.6678 99.3951C1.14334 99.3951 0 98.2555 0 96.7361C0 95.2167 1.14334 94.0771 2.6678 94.0771C4.19226 94.0771 5.3356 95.2167 5.3356 96.7361Z" fill="white"></path>
    <path d="M28.0753 96.7361C28.0753 98.2555 26.932 99.3951 25.4075 99.3951C23.8831 99.3951 22.7397 98.2555 22.7397 96.7361C22.7397 95.2167 23.8831 94.0771 25.4075 94.0771C26.805 94.0771 28.0753 95.2167 28.0753 96.7361Z" fill="white"></path>
    <path d="M50.6881 96.7361C50.6881 98.2555 49.5448 99.3951 48.0203 99.3951C46.4959 99.3951 45.3525 98.2555 45.3525 96.7361C45.3525 95.2167 46.4959 94.0771 48.0203 94.0771C49.5448 94.0771 50.6881 95.2167 50.6881 96.7361Z" fill="white"></path>
    <path d="M70.7601 99.3951C72.2335 99.3951 73.4279 98.2046 73.4279 96.7361C73.4279 95.2676 72.2335 94.0771 70.7601 94.0771C69.2867 94.0771 68.0923 95.2676 68.0923 96.7361C68.0923 98.2046 69.2867 99.3951 70.7601 99.3951Z" fill="white"></path>
    <path d="M96.1676 96.7361C96.1676 98.2555 95.0243 99.3951 93.4998 99.3951C91.9754 99.3951 90.832 98.2555 90.832 96.7361C90.832 95.2167 91.9754 94.0771 93.4998 94.0771C94.8972 94.0771 96.1676 95.2167 96.1676 96.7361Z" fill="white"></path>
    <path d="M118.908 96.7361C118.908 98.2555 117.765 99.3951 116.24 99.3951C114.716 99.3951 113.572 98.2555 113.572 96.7361C113.572 95.2167 114.716 94.0771 116.24 94.0771C117.765 94.0771 118.908 95.2167 118.908 96.7361Z" fill="white"></path>
    <path d="M141.52 96.7361C141.52 98.2555 140.377 99.3951 138.852 99.3951C137.328 99.3951 136.185 98.2555 136.185 96.7361C136.185 95.2167 137.328 94.0771 138.852 94.0771C140.377 94.0771 141.52 95.2167 141.52 96.7361Z" fill="white"></path>
    <path d="M5.3356 115.601C5.3356 117.121 4.19226 118.26 2.6678 118.26C1.14334 118.26 0 117.121 0 115.601C0 114.082 1.14334 112.942 2.6678 112.942C4.19226 112.942 5.3356 114.082 5.3356 115.601Z" fill="white"></path>
    <path d="M28.0753 115.601C28.0753 117.121 26.932 118.26 25.4075 118.26C23.8831 118.26 22.7397 117.121 22.7397 115.601C22.7397 114.082 23.8831 112.942 25.4075 112.942C26.805 112.942 28.0753 114.082 28.0753 115.601Z" fill="white"></path>
    <path d="M50.6881 115.601C50.6881 117.121 49.5448 118.26 48.0203 118.26C46.4959 118.26 45.3525 117.121 45.3525 115.601C45.3525 114.082 46.4959 112.942 48.0203 112.942C49.5448 112.942 50.6881 114.082 50.6881 115.601Z" fill="white"></path>
    <path d="M73.4279 115.601C73.4279 117.121 72.2845 118.26 70.7601 118.26C69.2356 118.26 68.0923 117.121 68.0923 115.601C68.0923 114.082 69.2356 112.942 70.7601 112.942C72.2845 112.942 73.4279 114.082 73.4279 115.601Z" fill="white"></path>
    <path d="M96.1676 115.601C96.1676 117.121 95.0243 118.26 93.4998 118.26C91.9754 118.26 90.832 117.121 90.832 115.601C90.832 114.082 91.9754 112.942 93.4998 112.942C94.8972 112.942 96.1676 114.082 96.1676 115.601Z" fill="white"></path>
    <path d="M118.908 115.601C118.908 117.121 117.765 118.26 116.24 118.26C114.716 118.26 113.572 117.121 113.572 115.601C113.572 114.082 114.716 112.942 116.24 112.942C117.765 112.942 118.908 114.082 118.908 115.601Z" fill="white"></path>
    <path d="M141.52 115.601C141.52 117.121 140.377 118.26 138.852 118.26C137.328 118.26 136.185 117.121 136.185 115.601C136.185 114.082 137.328 112.942 138.852 112.942C140.377 112.942 141.52 114.082 141.52 115.601Z" fill="white"></path>
    <path d="M5.3356 134.341C5.3356 135.86 4.19226 137 2.6678 137C1.14334 137 0 135.86 0 134.341C0 132.821 1.14334 131.682 2.6678 131.682C4.19226 131.682 5.3356 132.948 5.3356 134.341Z" fill="white"></path>
    <path d="M28.0753 134.341C28.0753 135.86 26.932 137 25.4075 137C23.8831 137 22.7397 135.86 22.7397 134.341C22.7397 132.821 23.8831 131.682 25.4075 131.682C26.805 131.682 28.0753 132.948 28.0753 134.341Z" fill="white"></path>
    <path d="M50.6881 134.341C50.6881 135.86 49.5448 137 48.0203 137C46.4959 137 45.3525 135.86 45.3525 134.341C45.3525 132.821 46.4959 131.682 48.0203 131.682C49.5448 131.682 50.6881 132.948 50.6881 134.341Z" fill="white"></path>
    <path d="M73.4279 134.341C73.4279 135.86 72.2845 137 70.7601 137C69.2356 137 68.0923 135.86 68.0923 134.341C68.0923 132.821 69.2356 131.682 70.7601 131.682C72.2845 131.682 73.4279 132.948 73.4279 134.341Z" fill="white"></path>
    <path d="M96.1676 134.341C96.1676 135.86 95.0243 137 93.4998 137C91.9754 137 90.832 135.86 90.832 134.341C90.832 132.821 91.9754 131.682 93.4998 131.682C94.8972 131.682 96.1676 132.948 96.1676 134.341Z" fill="white"></path>
    <path d="M118.908 134.341C118.908 135.86 117.765 137 116.24 137C114.716 137 113.572 135.86 113.572 134.341C113.572 132.821 114.716 131.682 116.24 131.682C117.765 131.682 118.908 132.948 118.908 134.341Z" fill="white"></path>
    <path d="M141.52 134.341C141.52 135.86 140.377 137 138.852 137C137.328 137 136.185 135.86 136.185 134.341C136.185 132.821 137.328 131.682 138.852 131.682C140.377 131.682 141.52 132.948 141.52 134.341Z" fill="white"></path>
  </symbol>

	<!-- !eye -->
	<symbol fill="none" xmlns="http://www.w3.org/2000/svg" viewBox="0 0 16 16" id="eye">
    <path d="M1.75978 5.67858C3.56252 4.17458 5.63791 3.33333 7.8327 3.33333C10.0275 3.33333 12.1029 4.17458 13.9056 5.67858C14.1883 5.91444 14.6087 5.87646 14.8446 5.59374C15.0805 5.31102 15.0425 4.89063 14.7598 4.65476C12.7552 2.98237 10.3857 2 7.8327 2C5.27974 2 2.9102 2.98237 0.905623 4.65476C0.622903 4.89063 0.584923 5.31102 0.82079 5.59374C1.05666 5.87646 1.47706 5.91444 1.75978 5.67858Z" fill="#424551"></path>
    <path fill-rule="evenodd" clip-rule="evenodd" d="M2.7332 6.45935C3.93222 5.44709 5.64231 4.5 7.58268 4.5C9.52306 4.5 11.2331 5.44709 12.4322 6.45935C13.0366 6.96963 13.5321 7.51363 13.8824 7.99952C14.0571 8.24199 14.2029 8.47992 14.3078 8.70052C14.4041 8.90315 14.4993 9.15887 14.4993 9.41667C14.4993 9.67447 14.4041 9.93019 14.3078 10.1328C14.2029 10.3534 14.0571 10.5913 13.8824 10.8338C13.5321 11.3197 13.0366 11.8637 12.4322 12.374C11.2331 13.3862 9.52306 14.3333 7.58268 14.3333C5.64231 14.3333 3.93222 13.3862 2.7332 12.374C2.12878 11.8637 1.63322 11.3197 1.28301 10.8338C1.10825 10.5913 0.962506 10.3534 0.857602 10.1328C0.761243 9.93019 0.666016 9.67447 0.666016 9.41667C0.666016 9.15887 0.761243 8.90315 0.857602 8.70052C0.962506 8.47992 1.10825 8.24199 1.28301 7.99952C1.63322 7.51363 2.12878 6.96963 2.7332 6.45935ZM2.00408 9.41667C2.01082 9.43924 2.02638 9.4859 2.06172 9.56021C2.12333 9.68976 2.22316 9.85786 2.36467 10.0542C2.64699 10.4459 3.06672 10.9106 3.59333 11.3552C4.65637 12.2526 6.07128 13 7.58268 13C9.09409 13 10.509 12.2526 11.572 11.3552C12.0986 10.9106 12.5184 10.4459 12.8007 10.0542C12.9422 9.85786 13.042 9.68976 13.1036 9.56021C13.139 9.4859 13.1545 9.43924 13.1613 9.41666C13.1545 9.39409 13.139 9.34743 13.1036 9.27312C13.042 9.14357 12.9422 8.97547 12.8007 8.77913C12.5184 8.38742 12.0986 7.92274 11.572 7.47816C11.3484 7.28939 11.1093 7.10726 10.8569 6.93733C10.9496 7.24756 10.9993 7.5763 10.9993 7.91667C10.9993 9.80364 9.46966 11.3333 7.58268 11.3333C5.69571 11.3333 4.16602 9.80364 4.16602 7.91667C4.16602 7.5763 4.21578 7.24756 4.30844 6.93733C4.05609 7.10726 3.81692 7.28939 3.59333 7.47816C3.06672 7.92274 2.64699 8.38742 2.36467 8.77913C2.22316 8.97547 2.12333 9.14357 2.06172 9.27312C2.02638 9.34743 2.01082 9.39409 2.00408 9.41667ZM5.49935 7.91667C5.49935 6.76607 6.43209 5.83333 7.58268 5.83333C8.73328 5.83333 9.66602 6.76607 9.66602 7.91667C9.66602 9.06726 8.73328 10 7.58268 10C6.43209 10 5.49935 9.06726 5.49935 7.91667Z" fill="#424551"></path>
  </symbol>

	<!-- !facebook -->
  <symbol xmlns="http://www.w3.org/2000/svg" viewBox="0 0 20 20" id="facebook">
    <path d="M14.6354 0.836822L12.321 0.833008C9.72086 0.833008 8.04054 2.60392 8.04054 5.34487V7.42513H5.71352C5.51244 7.42513 5.34961 7.59259 5.34961 7.79915V10.8132C5.34961 11.0198 5.51263 11.187 5.71352 11.187H8.04054V18.7925C8.04054 18.9991 8.20337 19.1663 8.40445 19.1663H11.4405C11.6416 19.1663 11.8045 18.9989 11.8045 18.7925V11.187H14.5253C14.7264 11.187 14.8892 11.0198 14.8892 10.8132L14.8903 7.79915C14.8903 7.69997 14.8519 7.60499 14.7837 7.5348C14.7156 7.46461 14.6227 7.42513 14.5262 7.42513H11.8045V5.66166C11.8045 4.81407 12.0011 4.38379 13.0759 4.38379L14.635 4.38322C14.8359 4.38322 14.9987 4.21576 14.9987 4.00939V1.21065C14.9987 1.00447 14.8361 0.837204 14.6354 0.836822Z"></path>
  </symbol>

	<!-- !google -->
  <symbol xmlns="http://www.w3.org/2000/svg" viewBox="0 0 20 20" id="google">
    <path d="M10.1756 8.75219H18.4051C18.4959 9.25921 18.5413 9.74352 18.5413 10.2051C18.5413 11.8472 18.197 13.3134 17.5084 14.6037C16.8198 15.8939 15.8379 16.9022 14.5628 17.6287C13.2877 18.3552 11.8253 18.7184 10.1756 18.7184C8.98754 18.7184 7.85622 18.4895 6.78165 18.0317C5.70708 17.5739 4.78008 16.9552 4.00064 16.1758C3.2212 15.3963 2.60257 14.4693 2.14475 13.3948C1.68692 12.3202 1.45801 11.1889 1.45801 10.0008C1.45801 8.81273 1.68692 7.68141 2.14475 6.60685C2.60257 5.53228 3.2212 4.60528 4.00064 3.82584C4.78008 3.0464 5.70708 2.42777 6.78165 1.96994C7.85622 1.51212 8.98754 1.2832 10.1756 1.2832C12.4458 1.2832 14.3944 2.04372 16.0214 3.56476L13.649 5.84633C12.7183 4.94581 11.5604 4.49555 10.1756 4.49555C9.19942 4.49555 8.29702 4.74149 7.46839 5.23337C6.63976 5.72525 5.98329 6.39307 5.49898 7.23683C5.01467 8.08059 4.77251 9.00192 4.77251 10.0008C4.77251 10.9997 5.01467 11.921 5.49898 12.7648C5.98329 13.6086 6.63976 14.2764 7.46839 14.7683C8.29702 15.2601 9.19942 15.5061 10.1756 15.5061C10.834 15.5061 11.4394 15.4153 11.9918 15.2336C12.5442 15.052 12.9982 14.825 13.3539 14.5526C13.7096 14.2802 14.0198 13.9699 14.2847 13.6218C14.5496 13.2737 14.7444 12.9445 14.8693 12.6343C14.9941 12.324 15.0793 12.0289 15.1247 11.7489H10.1756V8.75219Z"></path>
  </symbol>

	<!-- !linked-In -->
  <symbol xmlns="http://www.w3.org/2000/svg" viewBox="0 0 20 20" id="linked-In">
    <path d="M18.3295 18.3337L18.3337 18.333V12.2205C18.3337 9.23019 17.6899 6.92671 14.1941 6.92671C12.5135 6.92671 11.3857 7.84894 10.9253 8.72324H10.8767V7.20588H7.56212V18.333H11.0135V12.8232C11.0135 11.3726 11.2885 9.96977 13.085 9.96977C14.8552 9.96977 14.8816 11.6253 14.8816 12.9163V18.3337H18.3295Z"></path>
    <path d="M1.94199 7.20657H5.39754V18.3337H1.94199V7.20657Z" ></path>
    <path d="M3.66838 1.66699C2.56352 1.66699 1.66699 2.56352 1.66699 3.66838C1.66699 4.77324 2.56352 5.68852 3.66838 5.68852C4.77324 5.68852 5.66977 4.77324 5.66977 3.66838C5.66908 2.56352 4.77255 1.66699 3.66838 1.66699Z"></path>
  </symbol>

	<!-- !twitter -->
  <symbol xmlns="http://www.w3.org/2000/svg" viewBox="0 0 20 20" id="twitter">
    <path d="M18.75 4.8106C18.1059 5.08388 17.4148 5.26922 16.6887 5.35196C17.4301 4.92683 17.9976 4.25252 18.2666 3.45149C17.5711 3.84519 16.8035 4.13106 15.9855 4.28603C15.3305 3.61695 14.3988 3.2002 13.3653 3.2002C11.3827 3.2002 9.77523 4.73942 9.77523 6.63674C9.77523 6.90583 9.80694 7.16865 9.86819 7.41997C6.88501 7.2765 4.23973 5.90797 2.46928 3.82843C2.1598 4.33523 1.98374 4.92576 1.98374 5.55613C1.98374 6.74878 2.618 7.8011 3.58033 8.41677C2.992 8.39793 2.43866 8.24296 1.95423 7.98537V8.0283C1.95423 9.69317 3.19213 11.0826 4.83353 11.3989C4.5328 11.4764 4.21568 11.5193 3.88761 11.5193C3.6558 11.5193 3.43161 11.4973 3.2118 11.4554C3.66889 12.8219 4.99429 13.8156 6.56463 13.8428C5.33657 14.7642 3.7881 15.3119 2.10624 15.3119C1.81646 15.3119 1.53103 15.2951 1.25 15.2647C2.83893 16.2417 4.7253 16.8113 6.75273 16.8113C13.3566 16.8113 16.9665 11.5738 16.9665 7.0315L16.9544 6.5865C17.6597 6.1048 18.2699 5.49959 18.75 4.8106Z" ></path>
  </symbol>

	<!-- !instagram -->
	<symbol xmlns="http://www.w3.org/2000/svg" viewBox="0 0 24 24" id="instagram">
      <path d="M21.9804 7.88005C21.9336 6.81738 21.7617 6.0868 21.5156 5.45374C21.2616 4.78176 20.8709 4.18014 20.359 3.68002C19.8589 3.1721 19.2533 2.77743 18.5891 2.52745C17.9524 2.28127 17.2256 2.10943 16.163 2.06257C15.0923 2.01175 14.7525 2 12.0371 2C9.32172 2 8.98185 2.01175 7.9152 2.05861C6.85253 2.10546 6.12195 2.27746 5.48904 2.52348C4.81692 2.77743 4.2153 3.16814 3.71517 3.68002C3.20726 4.18014 2.81274 4.78573 2.5626 5.44992C2.31643 6.0868 2.14458 6.81341 2.09773 7.87609C2.04691 8.9467 2.03516 9.28658 2.03516 12.002C2.03516 14.7173 2.04691 15.0572 2.09376 16.1239C2.14061 17.1865 2.31261 17.9171 2.55879 18.5502C2.81274 19.2221 3.20726 19.8238 3.71517 20.3239C4.2153 20.8318 4.82088 21.2265 5.48507 21.4765C6.12195 21.7226 6.84856 21.8945 7.91139 21.9413C8.97788 21.9883 9.31791 21.9999 12.0333 21.9999C14.7486 21.9999 15.0885 21.9883 16.1552 21.9413C17.2178 21.8945 17.9484 21.7226 18.5813 21.4765C19.9254 20.9568 20.9881 19.8941 21.5078 18.5502C21.7538 17.9133 21.9258 17.1865 21.9726 16.1239C22.0195 15.0572 22.0312 14.7173 22.0312 12.002C22.0312 9.28658 22.0273 8.9467 21.9804 7.88005ZM20.1794 16.0457C20.1364 17.0225 19.9723 17.5499 19.8355 17.9015C19.4995 18.7728 18.808 19.4643 17.9367 19.8004C17.585 19.9372 17.0538 20.1012 16.0808 20.1441C15.026 20.1911 14.7096 20.2027 12.0411 20.2027C9.37255 20.2027 9.0522 20.1911 8.00113 20.1441C7.02437 20.1012 6.49693 19.9372 6.1453 19.8004C5.71171 19.6402 5.31704 19.3862 4.9967 19.0541C4.6646 18.7298 4.41065 18.3391 4.2504 17.9055C4.11365 17.5539 3.94959 17.0225 3.9067 16.0497C3.8597 14.9948 3.8481 14.6783 3.8481 12.0097C3.8481 9.34122 3.8597 9.02087 3.9067 7.96995C3.94959 6.99319 4.11365 6.46575 4.2504 6.11412C4.41065 5.68038 4.6646 5.28586 5.00067 4.96536C5.32483 4.63327 5.71553 4.37931 6.14927 4.21921C6.5009 4.08247 7.03231 3.9184 8.00509 3.87537C9.05999 3.82851 9.37652 3.81676 12.0449 3.81676C14.7174 3.81676 15.0337 3.82851 16.0848 3.87537C17.0616 3.9184 17.589 4.08247 17.9406 4.21921C18.3742 4.37931 18.7689 4.63327 19.0892 4.96536C19.4213 5.28967 19.6753 5.68038 19.8355 6.11412C19.9723 6.46575 20.1364 6.99701 20.1794 7.96995C20.2262 9.02484 20.238 9.34122 20.238 12.0097C20.238 14.6783 20.2262 14.9908 20.1794 16.0457Z"></path>
      <path d="M12.0371 6.86423C9.20069 6.86423 6.89937 9.1654 6.89937 12.002C6.89937 14.8385 9.20069 17.1397 12.0371 17.1397C14.8736 17.1397 17.1748 14.8385 17.1748 12.002C17.1748 9.1654 14.8736 6.86423 12.0371 6.86423ZM12.0371 15.3347C10.197 15.3347 8.70438 13.8422 8.70438 12.002C8.70438 10.1617 10.197 8.66924 12.0371 8.66924C13.8774 8.66924 15.3698 10.1617 15.3698 12.002C15.3698 13.8422 13.8774 15.3347 12.0371 15.3347Z"></path>
      <path d="M18.5776 6.6611C18.5776 7.32346 18.0405 7.86053 17.378 7.86053C16.7156 7.86053 16.1785 7.32346 16.1785 6.6611C16.1785 5.99858 16.7156 5.46167 17.378 5.46167C18.0405 5.46167 18.5776 5.99858 18.5776 6.6611Z"></path>
  </symbol>

	<!-- !iPhone -->
  <symbol fill="none" xmlns="http://www.w3.org/2000/svg" viewBox="0 0 16 16" id="iPhone">
    <path fill-rule="evenodd" clip-rule="evenodd" d="M5.66683 1.94857C5.11454 1.94857 4.66683 2.39628 4.66683 2.94857V13.0527C4.66683 13.605 5.11454 14.0527 5.66683 14.0527H10.3335C10.8858 14.0527 11.3335 13.605 11.3335 13.0527V2.94857C11.3335 2.39628 10.8858 1.94857 10.3335 1.94857H10.2779L10.1155 2.3382C10.012 2.58661 9.76928 2.74842 9.50016 2.74842H6.50016C6.23105 2.74842 5.98832 2.58661 5.8848 2.3382L5.72242 1.94857H5.66683ZM3.3335 2.94857C3.3335 1.6599 4.37817 0.615234 5.66683 0.615234H10.3335C11.6222 0.615234 12.6668 1.6599 12.6668 2.94857V13.0527C12.6668 14.3414 11.6222 15.3861 10.3335 15.3861H5.66683C4.37816 15.3861 3.3335 14.3414 3.3335 13.0527V2.94857Z" fill="white"></path>
  </symbol>

	<!-- !mail -->
  <symbol fill="none" xmlns="http://www.w3.org/2000/svg" viewBox="0 0 16 16" id="mail">
    <path fill-rule="evenodd" clip-rule="evenodd" d="M15.1668 11.9993V4.66602C15.1668 3.56145 14.2714 2.66602 13.1668 2.66602L2.83349 2.66603C1.72893 2.66603 0.833496 3.56146 0.833496 4.66603V11.9993C0.833496 13.1039 1.72893 13.9993 2.8335 13.9993L13.1668 13.9993C14.2714 13.9993 15.1668 13.1039 15.1668 11.9993ZM13.8335 6.17232V11.9993C13.8335 12.3675 13.535 12.666 13.1668 12.666L2.8335 12.666C2.46531 12.666 2.16683 12.3675 2.16683 11.9993L2.16683 6.17223L6.87561 9.3742C7.55433 9.83573 8.44613 9.83573 9.12485 9.3742L13.8335 6.17232ZM13.8259 4.56509C13.7773 4.24479 13.5007 3.99935 13.1668 3.99935L2.83349 3.99936C2.49965 3.99936 2.22311 4.24476 2.17443 4.56501L7.62535 8.27164C7.85159 8.42548 8.14886 8.42548 8.3751 8.27164L13.8259 4.56509Z" fill="white"></path>
  </symbol>

	<!-- !right -->
  <symbol xmlns="http://www.w3.org/2000/svg" viewBox="0 0 16 16" id="right">
    <path fill-rule="evenodd" clip-rule="evenodd" d="M9.86193 4.52925C10.1223 4.2689 10.5444 4.2689 10.8047 4.52925L13.8047 7.52925C14.0651 7.7896 14.0651 8.21171 13.8047 8.47206L10.8047 11.4721C10.5444 11.7324 10.1223 11.7324 9.86193 11.4721C9.60158 11.2117 9.60158 10.7896 9.86193 10.5292L11.7239 8.66732H2.66667C2.29848 8.66732 2 8.36884 2 8.00065C2 7.63246 2.29848 7.33398 2.66667 7.33398H11.7239L9.86193 5.47206C9.60158 5.21171 9.60158 4.7896 9.86193 4.52925Z"></path>
  </symbol>

		<!-- !left -->
	<symbol xmlns="http://www.w3.org/2000/svg" viewBox="0 0 24 24" id="left">
    <path fill-rule="evenodd" clip-rule="evenodd" d="M9.20711 17.2071C8.81658 17.5976 8.18342 17.5976 7.79289 17.2071L3.29289 12.7071C2.90237 12.3166 2.90237 11.6834 3.29289 11.2929L7.79289 6.79289C8.18342 6.40237 8.81658 6.40237 9.20711 6.79289C9.59763 7.18342 9.59763 7.81658 9.20711 8.20711L6.41421 11L20 11C20.5523 11 21 11.4477 21 12C21 12.5523 20.5523 13 20 13L6.41421 13L9.20711 15.7929C9.59763 16.1834 9.59763 16.8166 9.20711 17.2071Z"></path>
  </symbol>

	<!-- !telegram -->
  <symbol xmlns="http://www.w3.org/2000/svg" viewBox="0 0 22 20" id="telegram">
    <path d="M8.63262 13.1813L8.2687 18.7653C8.78938 18.7653 9.01488 18.5213 9.2853 18.2283L11.7264 15.6833L16.7847 19.7243C17.7124 20.2883 18.366 19.9913 18.6163 18.7933L21.9365 1.8214L21.9374 1.8204C22.2317 0.324404 21.4415 -0.260593 20.5377 0.106405L1.02135 8.25736C-0.310594 8.82136 -0.290427 9.63136 0.794932 9.99835L5.78447 11.6913L17.3742 3.78039C17.9196 3.38639 18.4155 3.60439 18.0076 3.99839L8.63262 13.1813Z"></path>
  </symbol>

	<!-- !youtube -->
  <symbol xmlns="http://www.w3.org/2000/svg" viewBox="0 0 24 24" id="youtube">
    <path fill-rule="evenodd" clip-rule="evenodd" d="M21.3903 4.11358C22.4182 4.39044 23.2288 5.20086 23.5055 6.22899C24.0197 8.10691 23.9999 12.0213 23.9999 12.0213C23.9999 12.0213 23.9999 15.9158 23.5057 17.7939C23.2288 18.8218 22.4184 19.6324 21.3903 19.9091C19.5122 20.4035 12 20.4035 12 20.4035C12 20.4035 4.50731 20.4035 2.60961 19.8895C1.58148 19.6127 0.771054 18.802 0.4942 17.7741C0 15.9158 0 12.0015 0 12.0015C0 12.0015 0 8.10691 0.4942 6.22899C0.770871 5.20104 1.60125 4.37066 2.60943 4.09399C4.48753 3.59961 11.9998 3.59961 11.9998 3.59961C11.9998 3.59961 19.5122 3.59961 21.3903 4.11358ZM15.8549 12.0016L9.60788 15.5996V8.40355L15.8549 12.0016Z"></path>
  </symbol>
	
	<!-- !logo-invert -->
		<symbol fill="none" xmlns="http://www.w3.org/2000/svg" viewBox="0 0 130 22" id="logo-invert">
    <g clip-path="url(#clip0_39377_2209)">
      <path d="M0 11.1008C0 5.00078 3.3 1.30078 8.7 1.30078C12.8 1.30078 16.1 3.80078 16.7 7.50078C16.8 7.90078 16.5 8.20078 16.1 8.20078H13.5C13.2 8.20078 13 8.00078 12.9 7.70078C12.4 5.80078 10.8 4.60078 8.7 4.60078C5.8 4.60078 4 7.10078 4 11.1008C4 15.1008 5.8 17.6008 8.8 17.6008C10.9 17.6008 12.4 16.5008 13 14.7008C13.1 14.4008 13.3 14.2008 13.6 14.2008H16.2C16.6 14.2008 16.9 14.6008 16.8 14.9008C16.2 18.5008 13 20.9008 8.8 20.9008C3.3 20.9008 0 17.1008 0 11.1008Z" fill="white"></path>
      <path d="M24.2997 20.401H21.3997C21.0997 20.401 20.8997 20.201 20.8997 19.901V2.60104C20.8997 2.20104 21.2997 1.80104 21.6997 1.80104H28.6997C32.7997 1.80104 35.2997 4.10104 35.2997 7.70104C35.2997 9.80104 34.2997 11.701 32.5997 12.701C32.1997 12.901 32.0997 13.401 32.2997 13.701L35.3997 19.601C35.5997 19.901 35.2997 20.301 34.9997 20.301H31.6997C31.4997 20.301 31.2997 20.201 31.1997 20.001L28.2997 14.001C28.1997 13.701 27.8997 13.601 27.5997 13.601H25.2997C24.9997 13.601 24.7997 13.801 24.7997 14.101V20.001C24.8997 20.201 24.5997 20.401 24.2997 20.401ZM24.8997 10.201C24.8997 10.501 25.0997 10.701 25.3997 10.701H28.3997C30.3997 10.701 31.4997 9.60104 31.4997 7.80104C31.4997 6.00104 30.2997 4.90104 28.3997 4.90104H25.4997C25.1997 4.90104 24.9997 5.10104 24.9997 5.40104V10.201H24.8997Z" fill="white"></path>
      <path d="M51.4998 20.401H40.4998C40.0998 20.401 39.7998 20.101 39.7998 19.701V2.50104C39.7998 2.10104 40.0998 1.80104 40.4998 1.80104H51.4998C51.8998 1.80104 52.1998 2.10104 52.1998 2.50104V4.40104C52.1998 4.80104 51.8998 5.10104 51.4998 5.10104H44.1998C43.8998 5.10104 43.6998 5.30104 43.6998 5.60104V9.00104C43.6998 9.30104 43.8998 9.50104 44.1998 9.50104H50.9998C51.3998 9.50104 51.6998 9.80104 51.6998 10.201V11.901C51.6998 12.301 51.3998 12.601 50.9998 12.601H44.1998C43.8998 12.601 43.6998 12.801 43.6998 13.101V16.901C43.6998 17.201 43.8998 17.401 44.1998 17.401H51.4998C51.8998 17.401 52.1998 17.701 52.1998 18.101V20.001C52.1998 20.101 51.8998 20.401 51.4998 20.401Z" fill="white"></path>
      <path d="M66.9999 15.901H61.2999C60.9999 15.901 60.7999 16.101 60.6999 16.301L59.5999 20.001C59.4999 20.301 59.2999 20.401 58.9999 20.401H56.3999C55.9999 20.401 55.6999 20.001 55.7999 19.601L61.7999 2.20104C61.8999 2.00104 62.0999 1.80104 62.3999 1.80104H66.0999C66.3999 1.80104 66.5999 2.00104 66.6999 2.20104L72.6999 19.601C72.7999 20.001 72.4999 20.401 72.0999 20.401H69.1999C68.8999 20.401 68.6999 20.201 68.5999 20.001L67.4999 16.301C67.4999 16.101 67.1999 15.901 66.9999 15.901ZM62.0999 13.001H66.1999C66.3999 13.001 66.4999 12.801 66.4999 12.601L64.2999 5.60104H64.0999L61.8999 12.601C61.7999 12.801 61.8999 13.001 62.0999 13.001Z" fill="white"></path>
      <path d="M79.0001 19.7014V5.50143C79.0001 5.20143 78.8001 5.00143 78.5001 5.00143H74.1001C73.7001 5.00143 73.3001 4.70143 73.3001 4.20143V2.50143C73.3001 2.10143 73.6001 1.70143 74.1001 1.70143H87.7001C88.1001 1.70143 88.5001 2.00143 88.5001 2.50143V4.20143C88.5001 4.60143 88.2001 5.00143 87.7001 5.00143H83.3001C83.0001 5.00143 82.8001 5.20143 82.8001 5.50143V19.8014C82.8001 20.2014 82.5001 20.5014 82.1001 20.5014H79.6001C79.3001 20.4014 79.0001 20.1014 79.0001 19.7014Z" fill="white"></path>
      <path d="M103.8 20.401H92.7999C92.3999 20.401 92.0999 20.101 92.0999 19.701V2.50104C92.0999 2.10104 92.3999 1.80104 92.7999 1.80104H103.8C104.2 1.80104 104.5 2.10104 104.5 2.50104V4.40104C104.5 4.80104 104.2 5.10104 103.8 5.10104H96.4999C96.1999 5.10104 95.9999 5.30104 95.9999 5.60104V9.00104C95.9999 9.30104 96.1999 9.50104 96.4999 9.50104H103.3C103.7 9.50104 104 9.80104 104 10.201V11.901C104 12.301 103.7 12.601 103.3 12.601H96.4999C96.1999 12.601 95.9999 12.801 95.9999 13.101V16.901C95.9999 17.201 96.1999 17.401 96.4999 17.401H103.8C104.2 17.401 104.5 17.701 104.5 18.101V20.001C104.5 20.101 104.2 20.401 103.8 20.401Z" fill="white"></path>
      <path d="M117.7 9.7L111.5 1.6C111.1 1.2 110.6 1 110.1 1C109.6 1 109.1 1.2 108.7 1.6C108 2.4 108 3.6 108.7 4.4L113.6 11L108.7 17.6C108 18.4 108 19.6 108.7 20.4C109.1 20.8 109.6 21 110.1 21C110.6 21 111.1 20.8 111.5 20.4L117.7 12.3C118.4 11.7 118.4 10.5 117.7 9.7Z" fill="#FF3F3A"></path>
      <path d="M120.343 9.7L126.543 1.6C126.943 1.2 127.443 1 127.943 1C128.443 1 128.943 1.2 129.343 1.6C130.043 2.4 130.043 3.6 129.343 4.4L124.443 11L129.343 17.6C130.043 18.4 130.043 19.6 129.343 20.4C128.943 20.8 128.443 21 127.943 21C127.443 21 126.943 20.8 126.543 20.4L120.343 12.3C119.643 11.7 119.643 10.5 120.343 9.7Z" fill="#FF3F3A"></path>
    </g>
    <defs>
      <clipPath id="clip0_39377_2209">
        <rect width="130" height="22" fill="white"></rect>
      </clipPath>
    </defs>
  </symbol>

	<!-- !error-input -->
  <symbol fill="none" xmlns="http://www.w3.org/2000/svg" viewBox="0 0 16 16" id="error-input">
    <path fill-rule="evenodd" clip-rule="evenodd" d="M8.00008 2.00033C4.68637 2.00033 2.00008 4.68662 2.00008 8.00033C2.00008 11.314 4.68637 14.0003 8.00008 14.0003C11.3138 14.0003 14.0001 11.314 14.0001 8.00033C14.0001 4.68662 11.3138 2.00033 8.00008 2.00033ZM0.666748 8.00033C0.666748 3.95024 3.94999 0.666992 8.00008 0.666992C12.0502 0.666992 15.3334 3.95024 15.3334 8.00033C15.3334 12.0504 12.0502 15.3337 8.00008 15.3337C3.94999 15.3337 0.666748 12.0504 0.666748 8.00033Z" fill="#FF4242"></path>
    <path d="M8.66675 10.667C8.66675 11.0352 8.36827 11.3337 8.00008 11.3337C7.63189 11.3337 7.33341 11.0352 7.33341 10.667C7.33341 10.2988 7.63189 10.0003 8.00008 10.0003C8.36827 10.0003 8.66675 10.2988 8.66675 10.667Z" fill="#FF4242"></path>
    <path fill-rule="evenodd" clip-rule="evenodd" d="M8.00008 9.08366C7.63189 9.08366 7.33341 8.78518 7.33341 8.41699V4.66699C7.33341 4.2988 7.63189 4.00033 8.00008 4.00033C8.36827 4.00033 8.66675 4.2988 8.66675 4.66699V8.41699C8.66675 8.78518 8.36827 9.08366 8.00008 9.08366Z" fill="#FF4242"></path>
  </symbol>

	<!-- !about-check -->
	<symbol fill="none" xmlns="http://www.w3.org/2000/svg" viewBox="0 0 16 16" id="about-check">
    <path d="M7.99984 15.3337C12.0432 15.3337 15.3332 12.044 15.3332 8.00033C15.3332 7.30238 15.2357 6.61458 15.0428 5.95588C14.9478 5.63197 14.6096 5.44592 14.2848 5.54096C13.9606 5.6357 13.7751 5.97512 13.8698 6.29903C14.0296 6.84629 14.1109 7.4189 14.1109 8.00033C14.1109 11.3699 11.3695 14.1114 7.99984 14.1114C4.63022 14.1114 1.88873 11.3699 1.88873 8.00033C1.88873 4.63071 4.63022 1.88921 7.99984 1.88921C9.22445 1.88921 10.4027 2.24729 11.4071 2.92449C11.6866 3.11323 12.0668 3.03908 12.2552 2.75948C12.4438 2.47959 12.3703 2.09973 12.0904 1.91115C10.8834 1.09728 9.46898 0.666992 7.99984 0.666992C3.95645 0.666992 0.666504 3.95664 0.666504 8.00033C0.666504 12.044 3.95645 15.3337 7.99984 15.3337Z" fill="#FF3F3A"></path>
    <path d="M14.8617 1.52885L7.99971 8.3905L5.8044 6.19552C5.54399 5.93526 5.12211 5.93526 4.86169 6.19552C4.60144 6.45593 4.60144 6.87781 4.86169 7.13822L7.52836 9.80489C7.65873 9.93526 7.82898 10.0002 7.99971 10.0002C8.17045 10.0002 8.3407 9.93526 8.47107 9.80489L15.8044 2.47156C16.0647 2.21114 16.0647 1.78927 15.8044 1.52885C15.544 1.2686 15.1221 1.2686 14.8617 1.52885Z" fill="#FF3F3A"></path>
  </symbol>
	
	<!-- !chat -->
	<symbol xmlns="http://www.w3.org/2000/svg" viewBox="0 0 16 16" id="chat">
    <path fill-rule="evenodd" clip-rule="evenodd" d="M14.6153 7.04557C14.5204 7.70339 14.2954 8.32861 13.9619 8.90355C13.9869 9.0459 13.9997 9.18978 13.9997 9.33429C13.9997 9.83617 13.8543 10.3165 13.5849 10.7529C13.4504 10.9707 13.4158 11.226 13.4025 11.3946C13.3873 11.5879 13.3924 11.7994 13.4062 12.0025C13.4217 12.2304 13.4497 12.4697 13.4818 12.6954C13.2216 12.6196 12.9395 12.5434 12.6704 12.4826C12.4465 12.4321 12.2174 12.3891 12.0099 12.3676C11.8289 12.349 11.5674 12.3345 11.3335 12.4101C10.8221 12.5754 10.2594 12.6676 9.66636 12.6676C8.96109 12.6676 8.31335 12.5424 7.74559 12.325C7.60903 12.3312 7.47146 12.3343 7.33301 12.3343C6.52993 12.3343 5.75701 12.2287 5.03385 12.0335C6.08516 13.2494 7.81828 14.001 9.66636 14.001C10.3883 14.001 11.0812 13.8901 11.7198 13.6864C11.7209 13.6865 11.723 13.6864 11.726 13.6864C11.7424 13.686 11.7879 13.6851 11.8729 13.6939C12.0067 13.7077 12.1786 13.7385 12.377 13.7833C12.7719 13.8724 13.2157 14.0038 13.5615 14.1136C14.2949 14.3464 15.0056 13.7064 14.8745 12.9621C14.8181 12.6418 14.7595 12.2508 14.7365 11.9122C14.7249 11.7419 14.7236 11.6021 14.7317 11.4995C14.7351 11.457 14.7394 11.4304 14.7421 11.4162C15.1172 10.7949 15.333 10.0874 15.333 9.33429C15.333 8.48526 15.0693 7.70995 14.6153 7.04557Z"></path>
    <path fill-rule="evenodd" clip-rule="evenodd" d="M3.73109 3.79943C2.83245 4.48662 2.33306 5.38871 2.33306 6.33398C2.33306 6.80534 2.45577 7.25932 2.68599 7.68147C2.77367 7.84226 2.79854 8.00812 2.80744 8.1204C2.81714 8.24283 2.8123 8.36867 2.80166 8.48633C2.78034 8.72191 2.72949 8.98884 2.66849 9.25174C2.59715 9.55927 2.50572 9.88724 2.41296 10.1952C2.76512 10.0672 3.15003 9.93601 3.51493 9.82956C3.80985 9.74352 4.10767 9.66886 4.37274 9.62695C4.60108 9.59084 4.93243 9.55536 5.2177 9.65405C5.85792 9.87555 6.57411 10.0007 7.33306 10.0007C8.76451 10.0007 10.0358 9.55621 10.935 8.86854C11.8337 8.18135 12.3331 7.27926 12.3331 6.33398C12.3331 5.38871 11.8337 4.48662 10.935 3.79943C10.0358 3.11176 8.76451 2.66732 7.33306 2.66732C5.90162 2.66732 4.63034 3.11176 3.73109 3.79943ZM2.92116 2.74028C4.07283 1.85959 5.6349 1.33398 7.33306 1.33398C9.03123 1.33398 10.5933 1.85959 11.745 2.74028C12.8973 3.62145 13.6664 4.88602 13.6664 6.33398C13.6664 7.78194 12.8973 9.04652 11.745 9.92769C10.5933 10.8084 9.03123 11.334 7.33306 11.334C6.43769 11.334 5.58244 11.188 4.80591 10.9224C4.80513 10.9246 4.74215 10.9184 4.58098 10.9439C4.39521 10.9733 4.15809 11.0308 3.88836 11.1095C3.35138 11.2662 2.74835 11.4878 2.28902 11.6666C1.49327 11.9763 0.682633 11.212 0.95074 10.3979C1.09284 9.96647 1.26043 9.42121 1.36966 8.95041C1.42468 8.71324 1.46039 8.51385 1.47375 8.36618C1.47839 8.31492 1.47958 8.27756 1.47932 8.2523C1.17246 7.66592 0.99973 7.01748 0.99973 6.33398C0.99973 4.88602 1.76887 3.62145 2.92116 2.74028Z"></path>
  </symbol>

	<!-- !layouts -->
  <symbol xmlns="http://www.w3.org/2000/svg" viewBox="0 0 16 16" id="layouts">
    <g clip-path="url(#clip0_39409_1401)">
      <path fill-rule="evenodd" clip-rule="evenodd" d="M7.70184 0.736398C7.88953 0.642555 8.11044 0.642555 8.29813 0.736398L14.9648 4.06973C15.1906 4.18266 15.3333 4.4135 15.3333 4.66602C15.3333 4.91853 15.1906 5.14937 14.9648 5.2623L8.29813 8.59563C8.11044 8.68948 7.88953 8.68948 7.70184 8.59563L1.03517 5.2623C0.809318 5.14937 0.66665 4.91853 0.66665 4.66602C0.66665 4.4135 0.809318 4.18266 1.03517 4.06973L7.70184 0.736398ZM2.82403 4.66602L7.99998 7.25399L13.1759 4.66602L7.99998 2.07804L2.82403 4.66602Z"></path>
      <path fill-rule="evenodd" clip-rule="evenodd" d="M0.737032 7.70121C0.901691 7.37189 1.30214 7.2384 1.63146 7.40306L7.99998 10.5873L14.3685 7.40306C14.6978 7.2384 15.0983 7.37189 15.2629 7.70121C15.4276 8.03052 15.2941 8.43097 14.9648 8.59563L8.29813 11.929C8.11044 12.0228 7.88953 12.0228 7.70184 11.929L1.03517 8.59563C0.705855 8.43097 0.572372 8.03052 0.737032 7.70121Z"></path>
      <path fill-rule="evenodd" clip-rule="evenodd" d="M0.737032 11.0345C0.901691 10.7052 1.30214 10.5717 1.63146 10.7364L7.99998 13.9207L14.3685 10.7364C14.6978 10.5717 15.0983 10.7052 15.2629 11.0345C15.4276 11.3639 15.2941 11.7643 14.9648 11.929L8.29813 15.2623C8.11044 15.3561 7.88953 15.3561 7.70184 15.2623L1.03517 11.929C0.705855 11.7643 0.572372 11.3639 0.737032 11.0345Z"></path>
    </g>
    <defs>
      <clipPath id="clip0_39409_1401">
        <rect width="16" height="16"></rect>
      </clipPath>
    </defs>
  </symbol>

	<!-- !like -->
  <symbol xmlns="http://www.w3.org/2000/svg" viewBox="0 0 16 16" id="like">
    <g clip-path="url(#clip0_39409_1397)">
      <path fill-rule="evenodd" clip-rule="evenodd" d="M9.4547 2.16732C9.36168 2.16732 9.27547 2.21676 9.22843 2.29736L9.22433 2.30438L6.16683 7.26115V13.834H11.8907C12.0135 13.834 12.1198 13.7487 12.1464 13.629L12.1487 13.6186L13.8487 6.97883C13.8798 6.8179 13.7565 6.66732 13.5915 6.66732H11.0002C10.566 6.66732 10.1268 6.52228 9.80696 6.21014C9.47075 5.88199 9.31488 5.41203 9.41491 4.90572L9.89414 2.48001C9.92614 2.31806 9.80219 2.16732 9.63725 2.16732H9.4547ZM4.8335 13.834V7.73875H2.47118C2.32739 7.73875 2.2104 7.85476 2.20929 7.99872C2.20929 7.99872 2.20929 7.99872 2.20929 7.99872L2.16684 13.5701C2.16572 13.7154 2.28327 13.834 2.42868 13.834H4.8335ZM5.12809 6.40541L8.08155 1.61731C8.36843 1.13222 8.89032 0.833984 9.4547 0.833984H9.63725C10.6424 0.833984 11.397 1.75237 11.2022 2.73844L10.723 5.16415C10.7144 5.20732 10.72 5.22693 10.7213 5.23124C10.7228 5.23604 10.726 5.24402 10.7383 5.25596C10.7661 5.28317 10.8492 5.33398 11.0002 5.33398H13.5915C14.6121 5.33398 15.3701 6.27923 15.1487 7.27539L15.1464 7.28579L13.4453 13.93C13.2788 14.6537 12.6343 15.1673 11.8907 15.1673H2.42868C1.54298 15.1673 0.826756 14.4457 0.833544 13.56C0.833544 13.56 0.833544 13.56 0.833544 13.56L0.875993 7.98854C0.88271 7.11235 1.59485 6.40541 2.47118 6.40541H5.12809Z"></path>
    </g>
    <defs>
      <clipPath id="clip0_39409_1397">
        <rect width="16" height="16"></rect>
      </clipPath>
    </defs>
  </symbol>

	<!-- !star -->
  <symbol xmlns="http://www.w3.org/2000/svg" viewBox="0 0 16 16" id="star">
    <path fill-rule="evenodd" clip-rule="evenodd" d="M6.77932 1.46709C7.24248 0.398992 8.75719 0.39899 9.22036 1.46709L10.6214 4.69809L14.1273 5.03216C15.2862 5.14259 15.7543 6.58317 14.8816 7.35373L12.2417 9.68466L13.0073 13.1221C13.2604 14.2585 12.035 15.1488 11.0325 14.5569L7.99984 12.7665L4.96721 14.5569C3.96469 15.1488 2.73926 14.2585 2.99236 13.1221L3.75801 9.68466L1.11809 7.35373C0.245398 6.58317 0.71347 5.14259 1.87242 5.03216L5.37824 4.69809L6.77932 1.46709ZM9.40091 5.22735L7.99984 1.99635L6.59876 5.22735C6.406 5.67189 5.98678 5.97647 5.50444 6.02243L1.99861 6.35649L4.63852 8.68743C5.00174 9.00813 5.16186 9.50095 5.05652 9.97389L4.29088 13.4114L7.32351 11.621C7.74075 11.3746 8.25893 11.3746 8.67617 11.621L11.7088 13.4114L10.9432 9.97389C10.8378 9.50095 10.9979 9.00813 11.3612 8.68743L14.0011 6.35649L10.4952 6.02243C10.0129 5.97647 9.59368 5.67189 9.40091 5.22735Z"></path>
  </symbol>

	<!-- !braces -->
	<symbol fill="none" xmlns="http://www.w3.org/2000/svg" viewBox="0 0 28 20" id="braces">
    <path d="M18 8.92534C18 8.63119 18.1295 8.35196 18.3541 8.16195L28 0V19C28 19.5523 27.5523 20 27 20H19C18.4477 20 18 19.5523 18 19V8.92534Z" fill="#FF3F3A"></path>
    <path d="M0 8.92534C0 8.63119 0.129507 8.35196 0.354058 8.16195L10 0V19C10 19.5523 9.55228 20 9 20H1C0.447715 20 0 19.5523 0 19V8.92534Z" fill="#FF3F3A"></path>
  </symbol>

	<!-- !calendar -->
	<symbol fill="none" xmlns="http://www.w3.org/2000/svg" viewBox="0 0 16 17" id="calendar">
    <path fill-rule="evenodd" clip-rule="evenodd" d="M5.00016 1.33398C5.36835 1.33398 5.66683 1.63246 5.66683 2.00065V2.33399L10.3335 2.334V2.00065C10.3335 1.63246 10.632 1.33398 11.0002 1.33398C11.3684 1.33398 11.6668 1.63246 11.6668 2.00065V2.334L12.5002 2.33401C13.9729 2.33401 15.1668 3.52792 15.1668 5.00067V13.0006C15.1668 14.4734 13.9729 15.6673 12.5002 15.6673L3.50016 15.6673C2.0274 15.6673 0.833496 14.4734 0.833496 13.0007L0.833496 6.50078L0.833496 5.00065C0.833496 3.52789 2.02741 2.33398 3.50017 2.33399L4.3335 2.33399V2.00065C4.3335 1.63246 4.63197 1.33398 5.00016 1.33398ZM4.3335 3.66732L3.50017 3.66732C2.76378 3.66732 2.16683 4.26427 2.16683 5.00065V5.83398H13.8335V5.00067C13.8335 4.26429 13.2365 3.66734 12.5002 3.66734L11.6668 3.66734V4.00065C11.6668 4.36884 11.3684 4.66732 11.0002 4.66732C10.632 4.66732 10.3335 4.36884 10.3335 4.00065V3.66734L5.66683 3.66733V4.00065C5.66683 4.36884 5.36835 4.66732 5.00016 4.66732C4.63197 4.66732 4.3335 4.36884 4.3335 4.00065V3.66732ZM13.8335 7.16732H2.16683L2.16683 13.0007C2.16683 13.737 2.76378 14.334 3.50016 14.334L12.5002 14.334C13.2365 14.334 13.8335 13.737 13.8335 13.0006V7.16732Z" fill="#787A80"></path>
  </symbol>

	<!-- !clock -->
  <symbol fill="none" xmlns="http://www.w3.org/2000/svg" viewBox="0 0 16 17" id="clock">
    <path d="M8.6665 4.83268C8.6665 4.46449 8.36803 4.16602 7.99984 4.16602C7.63165 4.16602 7.33317 4.46449 7.33317 4.83268V8.49935C7.33317 8.67616 7.40341 8.84573 7.52843 8.97075L9.52843 10.9708C9.78878 11.2311 10.2109 11.2311 10.4712 10.9708C10.7316 10.7104 10.7316 10.2883 10.4712 10.0279L8.6665 8.22321V4.83268Z" fill="#787A80"></path>
    <path fill-rule="evenodd" clip-rule="evenodd" d="M7.99984 1.16602C3.94975 1.16602 0.666504 4.44926 0.666504 8.49935C0.666504 12.5494 3.94975 15.8327 7.99984 15.8327C12.0499 15.8327 15.3332 12.5494 15.3332 8.49935C15.3332 4.44926 12.0499 1.16602 7.99984 1.16602ZM1.99984 8.49935C1.99984 5.18564 4.68613 2.49935 7.99984 2.49935C11.3135 2.49935 13.9998 5.18564 13.9998 8.49935C13.9998 11.8131 11.3135 14.4993 7.99984 14.4993C4.68613 14.4993 1.99984 11.8131 1.99984 8.49935Z" fill="#787A80"></path>
  </symbol>

	<!-- !files -->
  <symbol fill="none" xmlns="http://www.w3.org/2000/svg" viewBox="0 0 16 17" id="files">
    <path fill-rule="evenodd" clip-rule="evenodd" d="M5.3335 9.50065C5.3335 9.13246 5.63197 8.83398 6.00016 8.83398H10.0002C10.3684 8.83398 10.6668 9.13246 10.6668 9.50065C10.6668 9.86884 10.3684 10.1673 10.0002 10.1673H6.00016C5.63197 10.1673 5.3335 9.86884 5.3335 9.50065Z" fill="#424551"></path>
    <path fill-rule="evenodd" clip-rule="evenodd" d="M5.3335 12.0007C5.3335 11.6325 5.63197 11.334 6.00016 11.334H8.00016C8.36835 11.334 8.66683 11.6325 8.66683 12.0007C8.66683 12.3688 8.36835 12.6673 8.00016 12.6673H6.00016C5.63197 12.6673 5.3335 12.3688 5.3335 12.0007Z" fill="#424551"></path>
    <path fill-rule="evenodd" clip-rule="evenodd" d="M6.02877 1.52925C6.1538 1.40422 6.32337 1.33398 6.50018 1.33398H11.0002C12.4729 1.33398 13.6668 2.52789 13.6668 4.00065L13.6668 13.0007C13.6668 14.4734 12.4729 15.6673 11.0002 15.6673H5.00016C3.5274 15.6673 2.33349 14.4734 2.3335 13.0006L2.33351 5.50065C2.33351 5.32384 2.40375 5.15427 2.52877 5.02925L6.02877 1.52925ZM6.33349 3.11015V5.33398H4.10965L6.33349 3.11015ZM3.66684 6.66732L3.66683 13.0006C3.66683 13.737 4.26378 14.334 5.00016 14.334H11.0002C11.7366 14.334 12.3335 13.737 12.3335 13.0007L12.3335 4.00065C12.3335 3.26427 11.7366 2.66732 11.0002 2.66732H7.66682V6.00065C7.66682 6.36884 7.36835 6.66732 7.00016 6.66732H3.66684Z" fill="#424551"></path>
  </symbol>

	<!-- !micro -->
  <symbol fill="none" xmlns="http://www.w3.org/2000/svg" viewBox="0 0 16 17" id="micro">
    <g clip-path="url(#clip0_39439_1128)">
      <path fill-rule="evenodd" clip-rule="evenodd" d="M4.13333 4.76706C4.13333 2.63156 5.8645 0.900391 8 0.900391C10.1355 0.900391 11.8667 2.63156 11.8667 4.76706V7.96706C11.8667 10.1026 10.1355 11.8337 8 11.8337C5.8645 11.8337 4.13333 10.1026 4.13333 7.96706V4.76706ZM8 2.23372C6.60088 2.23372 5.46667 3.36794 5.46667 4.76706V7.96706C5.46667 9.36618 6.60088 10.5004 8 10.5004C9.39912 10.5004 10.5333 9.36618 10.5333 7.96706V4.76706C10.5333 3.36794 9.39912 2.23372 8 2.23372Z" fill="#424551"></path>
      <path fill-rule="evenodd" clip-rule="evenodd" d="M2.66667 6.23372C3.03486 6.23372 3.33333 6.5322 3.33333 6.90039V7.96706C3.33333 10.5444 5.42267 12.6337 8 12.6337C10.5773 12.6337 12.6667 10.5444 12.6667 7.96706V6.90039C12.6667 6.5322 12.9651 6.23372 13.3333 6.23372C13.7015 6.23372 14 6.5322 14 6.90039V7.96706C14 11.2808 11.3137 13.9671 8 13.9671C4.68629 13.9671 2 11.2808 2 7.96706V6.90039C2 6.5322 2.29848 6.23372 2.66667 6.23372Z" fill="#424551"></path>
      <path fill-rule="evenodd" clip-rule="evenodd" d="M8 13.1671C8.36819 13.1671 8.66667 13.4655 8.66667 13.8337V14.7671H10.1333C10.5015 14.7671 10.8 15.0655 10.8 15.4337C10.8 15.8019 10.5015 16.1004 10.1333 16.1004H5.86667C5.49848 16.1004 5.2 15.8019 5.2 15.4337C5.2 15.0655 5.49848 14.7671 5.86667 14.7671H7.33333V13.8337C7.33333 13.4655 7.63181 13.1671 8 13.1671Z" fill="#424551"></path>
    </g>
    <defs>
      <clipPath id="clip0_39439_1128">
        <rect width="16" height="16" fill="white" transform="translate(0 0.5)"></rect>
      </clipPath>
    </defs>
  </symbol>

	<!-- !play-blog -->
  <symbol fill="none" xmlns="http://www.w3.org/2000/svg" viewBox="0 0 16 17" id="play-blog">
    <path fill-rule="evenodd" clip-rule="evenodd" d="M10.7117 7.44002C11.4099 7.97368 11.4099 9.02507 10.7117 9.55873L7.65841 11.8923C6.78101 12.5629 5.51541 11.9373 5.51541 10.833V6.16575C5.51541 5.06144 6.78101 4.43581 7.65841 5.1064L10.7117 7.44002ZM9.90204 8.49938L6.84875 6.16575L6.84875 10.833L9.90204 8.49938Z" fill="#424551"></path>
    <path fill-rule="evenodd" clip-rule="evenodd" d="M7.99984 2.49935C4.68613 2.49935 1.99984 5.18564 1.99984 8.49935C1.99984 11.8131 4.68613 14.4993 7.99984 14.4993C11.3135 14.4993 13.9998 11.8131 13.9998 8.49935C13.9998 5.18564 11.3135 2.49935 7.99984 2.49935ZM0.666504 8.49935C0.666504 4.44926 3.94975 1.16602 7.99984 1.16602C12.0499 1.16602 15.3332 4.44926 15.3332 8.49935C15.3332 12.5494 12.0499 15.8327 7.99984 15.8327C3.94975 15.8327 0.666504 12.5494 0.666504 8.49935Z" fill="#424551"></path>
  </symbol>

		<!-- !success-input -->
	<symbol fill="none" xmlns="http://www.w3.org/2000/svg" viewBox="0 0 14 10" id="success-input">
    <path fill-rule="evenodd" clip-rule="evenodd" d="M13.4715 0.52827C13.7318 0.788619 13.7318 1.21073 13.4715 1.47108L5.47149 9.47108C5.21114 9.73143 4.78903 9.73143 4.52868 9.47108L0.528676 5.47108C0.268327 5.21073 0.268327 4.78862 0.528676 4.52827C0.789027 4.26792 1.21114 4.26792 1.47149 4.52827L5.00008 8.05687L12.5287 0.52827C12.789 0.26792 13.2111 0.26792 13.4715 0.52827Z" fill="#03CEA4"></path>
  </symbol>

</svg>