<svg width="0" height="0" class="hidden">

	<!-- !logo -->
  <symbol fill="none" xmlns="http://www.w3.org/2000/svg" viewBox="0 0 130 22" id="logo">
    <g clip-path="url(#clip0_39336_1647)">
      <path d="M0 11.0998C0 4.9998 3.3 1.2998 8.7 1.2998C12.8 1.2998 16.1 3.7998 16.7 7.4998C16.8 7.8998 16.5 8.1998 16.1 8.1998H13.5C13.2 8.1998 13 7.9998 12.9 7.6998C12.4 5.7998 10.8 4.5998 8.7 4.5998C5.8 4.5998 4 7.0998 4 11.0998C4 15.0998 5.8 17.5998 8.8 17.5998C10.9 17.5998 12.4 16.4998 13 14.6998C13.1 14.3998 13.3 14.1998 13.6 14.1998H16.2C16.6 14.1998 16.9 14.5998 16.8 14.8998C16.2 18.4998 13 20.8998 8.8 20.8998C3.3 20.8998 0 17.0998 0 11.0998Z" fill="#1E212C"></path>
      <path d="M24.2997 20.4001H21.3997C21.0997 20.4001 20.8997 20.2001 20.8997 19.9001V2.60006C20.8997 2.20006 21.2997 1.80006 21.6997 1.80006H28.6997C32.7997 1.80006 35.2997 4.10006 35.2997 7.70006C35.2997 9.80006 34.2997 11.7001 32.5997 12.7001C32.1997 12.9001 32.0997 13.4001 32.2997 13.7001L35.3997 19.6001C35.5997 19.9001 35.2997 20.3001 34.9997 20.3001H31.6997C31.4997 20.3001 31.2997 20.2001 31.1997 20.0001L28.2997 14.0001C28.1997 13.7001 27.8997 13.6001 27.5997 13.6001H25.2997C24.9997 13.6001 24.7997 13.8001 24.7997 14.1001V20.0001C24.8997 20.2001 24.5997 20.4001 24.2997 20.4001ZM24.8997 10.2001C24.8997 10.5001 25.0997 10.7001 25.3997 10.7001H28.3997C30.3997 10.7001 31.4997 9.60006 31.4997 7.80006C31.4997 6.00006 30.2997 4.90006 28.3997 4.90006H25.4997C25.1997 4.90006 24.9997 5.10006 24.9997 5.40006V10.2001H24.8997Z" fill="#1E212C"></path>
      <path d="M51.4998 20.4001H40.4998C40.0998 20.4001 39.7998 20.1001 39.7998 19.7001V2.50006C39.7998 2.10006 40.0998 1.80006 40.4998 1.80006H51.4998C51.8998 1.80006 52.1998 2.10006 52.1998 2.50006V4.40006C52.1998 4.80006 51.8998 5.10006 51.4998 5.10006H44.1998C43.8998 5.10006 43.6998 5.30006 43.6998 5.60006V9.00006C43.6998 9.30006 43.8998 9.50006 44.1998 9.50006H50.9998C51.3998 9.50006 51.6998 9.80006 51.6998 10.2001V11.9001C51.6998 12.3001 51.3998 12.6001 50.9998 12.6001H44.1998C43.8998 12.6001 43.6998 12.8001 43.6998 13.1001V16.9001C43.6998 17.2001 43.8998 17.4001 44.1998 17.4001H51.4998C51.8998 17.4001 52.1998 17.7001 52.1998 18.1001V20.0001C52.1998 20.1001 51.8998 20.4001 51.4998 20.4001Z" fill="#1E212C"></path>
      <path d="M66.9999 15.9001H61.2999C60.9999 15.9001 60.7999 16.1001 60.6999 16.3001L59.5999 20.0001C59.4999 20.3001 59.2999 20.4001 58.9999 20.4001H56.3999C55.9999 20.4001 55.6999 20.0001 55.7999 19.6001L61.7999 2.20006C61.8999 2.00006 62.0999 1.80006 62.3999 1.80006H66.0999C66.3999 1.80006 66.5999 2.00006 66.6999 2.20006L72.6999 19.6001C72.7999 20.0001 72.4999 20.4001 72.0999 20.4001H69.1999C68.8999 20.4001 68.6999 20.2001 68.5999 20.0001L67.4999 16.3001C67.4999 16.1001 67.1999 15.9001 66.9999 15.9001ZM62.0999 13.0001H66.1999C66.3999 13.0001 66.4999 12.8001 66.4999 12.6001L64.2999 5.60006H64.0999L61.8999 12.6001C61.7999 12.8001 61.8999 13.0001 62.0999 13.0001Z" fill="#1E212C"></path>
      <path d="M79.0001 19.7005V5.50045C79.0001 5.20045 78.8001 5.00045 78.5001 5.00045H74.1001C73.7001 5.00045 73.3001 4.70045 73.3001 4.20045V2.50045C73.3001 2.10045 73.6001 1.70045 74.1001 1.70045H87.7001C88.1001 1.70045 88.5001 2.00045 88.5001 2.50045V4.20045C88.5001 4.60045 88.2001 5.00045 87.7001 5.00045H83.3001C83.0001 5.00045 82.8001 5.20045 82.8001 5.50045V19.8004C82.8001 20.2004 82.5001 20.5005 82.1001 20.5005H79.6001C79.3001 20.4004 79.0001 20.1005 79.0001 19.7005Z" fill="#1E212C"></path>
      <path d="M103.8 20.4001H92.7999C92.3999 20.4001 92.0999 20.1001 92.0999 19.7001V2.50006C92.0999 2.10006 92.3999 1.80006 92.7999 1.80006H103.8C104.2 1.80006 104.5 2.10006 104.5 2.50006V4.40006C104.5 4.80006 104.2 5.10006 103.8 5.10006H96.4999C96.1999 5.10006 95.9999 5.30006 95.9999 5.60006V9.00006C95.9999 9.30006 96.1999 9.50006 96.4999 9.50006H103.3C103.7 9.50006 104 9.80006 104 10.2001V11.9001C104 12.3001 103.7 12.6001 103.3 12.6001H96.4999C96.1999 12.6001 95.9999 12.8001 95.9999 13.1001V16.9001C95.9999 17.2001 96.1999 17.4001 96.4999 17.4001H103.8C104.2 17.4001 104.5 17.7001 104.5 18.1001V20.0001C104.5 20.1001 104.2 20.4001 103.8 20.4001Z" fill="#1E212C"></path>
      <path d="M117.7 9.7L111.5 1.6C111.1 1.2 110.6 1 110.1 1C109.6 1 109.1 1.2 108.7 1.6C108 2.4 108 3.6 108.7 4.4L113.6 11L108.7 17.6C108 18.4 108 19.6 108.7 20.4C109.1 20.8 109.6 21 110.1 21C110.6 21 111.1 20.8 111.5 20.4L117.7 12.3C118.4 11.7 118.4 10.5 117.7 9.7Z" fill="#FF3F3A"></path>
      <path d="M120.343 9.7L126.543 1.6C126.943 1.2 127.443 1 127.943 1C128.443 1 128.943 1.2 129.343 1.6C130.043 2.4 130.043 3.6 129.343 4.4L124.443 11L129.343 17.6C130.043 18.4 130.043 19.6 129.343 20.4C128.943 20.8 128.443 21 127.943 21C127.443 21 126.943 20.8 126.543 20.4L120.343 12.3C119.643 11.7 119.643 10.5 120.343 9.7Z" fill="#FF3F3A"></path>
    </g>
    <defs>
      <clipPath id="clip0_39336_1647">
        <rect width="130" height="22" fill="white"></rect>
      </clipPath>
    </defs>
  </symbol>

	<!-- !main-arrow-diagonal -->
  <symbol fill="none" xmlns="http://www.w3.org/2000/svg" viewBox="0 0 96 96" id="main-arrow-diagonal">
    <g opacity="0.3">
      <path d="M64.3007 11.9214L64.3007 0.000445276L95.9995 0.000442505L95.9995 31.6992L84.1689 31.6992L84.1689 11.9214L64.3007 11.9214Z" fill="white"></path>
      <path d="M42.8984 33.3247L42.8984 21.4941L74.5972 21.4941L74.5972 53.1025L62.6763 53.1025L62.6763 33.3247L42.8984 33.3247Z" fill="white"></path>
      <path d="M21.4946 54.8188L21.4946 42.8979L53.103 42.8979L53.103 74.5967L41.2724 74.5967L41.2724 54.8188L21.4946 54.8188Z" fill="white"></path>
      <path d="M0.000450313 76.2221L0.00044927 64.3012L31.6992 64.3012L31.6992 96L19.7783 96L19.7783 76.2221L0.000450313 76.2221Z" fill="white"></path>
    </g>
  </symbol>

	<!-- !main-arrow-down -->
  <symbol fill="none" xmlns="http://www.w3.org/2000/svg" viewBox="0 0 156 111" id="main-arrow-down">
    <g opacity="0.3">
      <path d="M93.8067 75.2212L103.465 84.8799L77.782 110.563L52.0986 84.8799L61.6842 75.2943L77.7089 91.319L93.8067 75.2212Z" fill="white"></path>
      <path d="M93.8057 40.5386L103.391 50.1241L77.7079 75.8075L52.0977 50.1973L61.7564 40.5386L77.7811 56.5632L93.8057 40.5386Z" fill="white"></path>
      <path d="M93.733 5.78165L103.392 15.4404L77.7815 41.0506L52.0981 15.3672L61.6837 5.78165L77.7084 21.8063L93.733 5.78165Z" fill="white"></path>
      <path d="M93.8062 -28.9761L103.465 -19.3174L77.7815 6.36601L52.0981 -19.3174L61.7569 -28.9761L77.7815 -12.9514L93.8062 -28.9761Z" fill="white"></path>
    </g>
  </symbol>

	<!-- !main-circles -->
  <symbol fill="none" xmlns="http://www.w3.org/2000/svg" viewBox="0 0 172 184" id="main-circles">
    <path d="M30.0975 0C-48.4557 0 -112 63.5443 -112 142.097C-112 220.456 -48.4557 284.195 30.0975 284.195C108.456 284.195 172.195 220.651 172.195 142.097C172 63.5443 108.456 0 30.0975 0ZM30.0975 275.034C-43.3878 275.034 -102.839 215.583 -102.839 142.097C-102.839 68.6122 -43.3878 9.16129 30.0975 9.16129C103.583 9.16129 163.034 68.6122 163.034 142.097C163.034 215.388 103.388 275.034 30.0975 275.034Z" fill="white"></path>
    <path d="M30.0988 30.6025C-31.3014 30.6025 -81.2012 80.5023 -81.2012 141.902C-81.2012 203.303 -31.3014 253.202 30.0988 253.202C91.4989 253.202 141.399 203.498 141.399 142.097C141.399 80.5023 91.4989 30.6025 30.0988 30.6025ZM30.0988 236.244C-21.9452 236.244 -64.243 193.946 -64.243 141.902C-64.243 89.8585 -21.9452 47.5607 30.0988 47.5607C82.1427 47.5607 124.441 89.8585 124.441 141.902C124.441 193.946 82.1427 236.244 30.0988 236.244Z" fill="white"></path>
    <path d="M30.098 79.5273C-4.40304 79.5273 -32.4717 107.596 -32.4717 142.097C-32.4717 176.598 -4.59796 204.667 30.098 204.667C64.599 204.667 92.6677 176.598 92.6677 142.097C92.4727 107.596 64.599 79.5273 30.098 79.5273ZM30.098 175.623C11.5805 175.623 -3.42843 160.614 -3.42843 142.097C-3.42843 123.579 11.5805 108.571 30.098 108.571C48.6155 108.571 63.6244 123.579 63.6244 142.097C63.6244 160.614 48.6155 175.623 30.098 175.623Z" fill="white"></path>
  </symbol>

	<!-- !person -->
  <symbol fill="none" xmlns="http://www.w3.org/2000/svg" viewBox="0 0 18 18" id="person">
    <path fill-rule="evenodd" clip-rule="evenodd" d="M9.00019 1.70866C7.38936 1.70866 6.08353 3.0145 6.08353 4.62533C6.08353 6.23616 7.38936 7.54199 9.00019 7.54199C10.611 7.54199 11.9169 6.23616 11.9169 4.62533C11.9169 3.0145 10.611 1.70866 9.00019 1.70866ZM4.41686 4.62533C4.41686 2.09402 6.46889 0.0419922 9.00019 0.0419922C11.5315 0.0419922 13.5835 2.09402 13.5835 4.62533C13.5835 7.15663 11.5315 9.20866 9.00019 9.20866C6.46889 9.20866 4.41686 7.15663 4.41686 4.62533Z" fill="#424551"></path>
    <path fill-rule="evenodd" clip-rule="evenodd" d="M4.08691 11.7087C3.50914 11.7087 3.05755 11.99 2.87424 12.3942C2.62053 12.9536 2.39078 13.6196 2.33656 14.2513C2.31233 14.5337 2.43006 14.7418 2.5923 14.8426C3.44993 15.3753 5.43719 16.292 9.00019 16.292C12.5632 16.292 14.5505 15.3753 15.4081 14.8426C15.5703 14.7418 15.6881 14.5337 15.6638 14.2513C15.6096 13.6196 15.3799 12.9536 15.1261 12.3942C14.9428 11.99 14.4912 11.7087 13.9135 11.7087H4.08691ZM1.35639 11.7058C1.86301 10.5887 2.99428 10.042 4.08691 10.042H13.9135C15.0061 10.042 16.1374 10.5887 16.644 11.7058C16.935 12.3474 17.2472 13.2099 17.3244 14.1088C17.3946 14.9273 17.0544 15.7819 16.2876 16.2583C15.1596 16.959 12.8665 17.9587 9.00019 17.9587C5.13386 17.9587 2.84078 16.959 1.71283 16.2583C0.945947 15.7819 0.605747 14.9273 0.676001 14.1088C0.753149 13.2099 1.0654 12.3474 1.35639 11.7058Z" fill="#424551"></path>
  </symbol>

	<!-- !play -->
  <symbol fill="none" xmlns="http://www.w3.org/2000/svg" viewBox="0 0 11 14" id="play">
    <path d="M10.5 6.13398C11.1667 6.51888 11.1667 7.48113 10.5 7.86603L1.5 13.0622C0.833332 13.4471 -6.10471e-07 12.966 -5.76822e-07 12.1962L-1.2256e-07 1.80385C-8.8911e-08 1.03405 0.833334 0.552922 1.5 0.937822L10.5 6.13398Z" fill="white"></path>
  </symbol>

	<!-- !semicircle -->
  <symbol fill="none" xmlns="http://www.w3.org/2000/svg" viewBox="0 0 61 61" id="semicircle">
    <path opacity="0.3" d="M61 50.5529C47.0706 64.4824 24.3765 64.4824 10.4471 50.5529C-3.48236 36.6235 -3.48236 13.9294 10.4471 0L61 50.5529Z" fill="white"></path>
  </symbol>

	<!-- !dots-group -->
  <symbol fill="none" xmlns="http://www.w3.org/2000/svg" viewBox="0 0 157 137" id="dots-group">
    <path d="M5.3356 40.2644C5.3356 41.7838 4.19226 42.9234 2.6678 42.9234C1.14334 42.9234 0 41.7838 0 40.2644C0 38.745 1.14334 37.6055 2.6678 37.6055C4.19226 37.6055 5.3356 38.8716 5.3356 40.2644Z" fill="white"></path>
    <path d="M28.0753 40.2644C28.0753 41.7838 26.932 42.9234 25.4075 42.9234C23.8831 42.9234 22.7397 41.7838 22.7397 40.2644C22.7397 38.745 23.8831 37.6055 25.4075 37.6055C26.805 37.6055 28.0753 38.8716 28.0753 40.2644Z" fill="white"></path>
    <path d="M50.6881 40.2644C50.6881 41.7838 49.5448 42.9234 48.0203 42.9234C46.4959 42.9234 45.3525 41.7838 45.3525 40.2644C45.3525 38.745 46.4959 37.6055 48.0203 37.6055C49.5448 37.6055 50.6881 38.8716 50.6881 40.2644Z" fill="white"></path>
    <path d="M73.4279 40.2644C73.4279 41.7838 72.2845 42.9234 70.7601 42.9234C69.2356 42.9234 68.0923 41.7838 68.0923 40.2644C68.0923 38.745 69.2356 37.6055 70.7601 37.6055C72.2845 37.6055 73.4279 38.8716 73.4279 40.2644Z" fill="white"></path>
    <path d="M96.1676 40.2644C96.1676 41.7838 95.0243 42.9234 93.4998 42.9234C91.9754 42.9234 90.832 41.7838 90.832 40.2644C90.832 38.745 91.9754 37.6055 93.4998 37.6055C94.8972 37.6055 96.1676 38.8716 96.1676 40.2644Z" fill="white"></path>
    <path d="M118.908 40.2644C118.908 41.7838 117.765 42.9234 116.24 42.9234C114.716 42.9234 113.572 41.7838 113.572 40.2644C113.572 38.745 114.716 37.6055 116.24 37.6055C117.765 37.6055 118.908 38.8716 118.908 40.2644Z" fill="white"></path>
    <path d="M141.52 40.2644C141.52 41.7838 140.377 42.9234 138.852 42.9234C137.328 42.9234 136.185 41.7838 136.185 40.2644C136.185 38.745 137.328 37.6055 138.852 37.6055C140.377 37.6055 141.52 38.8716 141.52 40.2644Z" fill="white"></path>
    <path d="M5.3356 59.1306C5.3356 60.6501 4.19226 61.7896 2.6678 61.7896C1.14334 61.7896 0 60.6501 0 59.1306C0 57.6112 1.14334 56.4717 2.6678 56.4717C4.19226 56.4717 5.3356 57.6112 5.3356 59.1306Z" fill="white"></path>
    <path d="M28.0753 59.1306C28.0753 60.6501 26.932 61.7896 25.4075 61.7896C23.8831 61.7896 22.7397 60.6501 22.7397 59.1306C22.7397 57.6112 23.8831 56.4717 25.4075 56.4717C26.805 56.4717 28.0753 57.6112 28.0753 59.1306Z" fill="white"></path>
    <path d="M50.6881 59.1306C50.6881 60.6501 49.5448 61.7896 48.0203 61.7896C46.4959 61.7896 45.3525 60.6501 45.3525 59.1306C45.3525 57.6112 46.4959 56.4717 48.0203 56.4717C49.5448 56.4717 50.6881 57.6112 50.6881 59.1306Z" fill="white"></path>
    <path d="M73.4279 59.1306C73.4279 60.6501 72.2845 61.7896 70.7601 61.7896C69.2356 61.7896 68.0923 60.6501 68.0923 59.1306C68.0923 57.6112 69.2356 56.4717 70.7601 56.4717C72.2845 56.4717 73.4279 57.6112 73.4279 59.1306Z" fill="white"></path>
    <path d="M96.1676 59.1306C96.1676 60.6501 95.0243 61.7896 93.4998 61.7896C91.9754 61.7896 90.832 60.6501 90.832 59.1306C90.832 57.6112 91.9754 56.4717 93.4998 56.4717C94.8972 56.4717 96.1676 57.6112 96.1676 59.1306Z" fill="white"></path>
    <path d="M118.908 59.1306C118.908 60.6501 117.765 61.7896 116.24 61.7896C114.716 61.7896 113.572 60.6501 113.572 59.1306C113.572 57.6112 114.716 56.4717 116.24 56.4717C117.765 56.4717 118.908 57.6112 118.908 59.1306Z" fill="white"></path>
    <path d="M141.52 59.1306C141.52 60.6501 140.377 61.7896 138.852 61.7896C137.328 61.7896 136.185 60.6501 136.185 59.1306C136.185 57.6112 137.328 56.4717 138.852 56.4717C140.377 56.4717 141.52 57.6112 141.52 59.1306Z" fill="white"></path>
    <path d="M5.3356 2.65896C5.3356 4.17837 4.19226 5.31793 2.6678 5.31793C1.14334 5.31793 0 4.17837 0 2.65896C0 1.13956 1.14334 0 2.6678 0C4.19226 0 5.3356 1.13956 5.3356 2.65896Z" fill="white"></path>
    <path d="M28.0753 2.65896C28.0753 4.17837 26.932 5.31793 25.4075 5.31793C23.8831 5.31793 22.7397 4.17837 22.7397 2.65896C22.7397 1.13956 23.8831 0 25.4075 0C26.805 0 28.0753 1.13956 28.0753 2.65896Z" fill="white"></path>
    <path d="M50.6881 2.65896C50.6881 4.17837 49.5448 5.31793 48.0203 5.31793C46.4959 5.31793 45.3525 4.17837 45.3525 2.65896C45.3525 1.13956 46.6229 0 48.0203 0C49.5448 0 50.6881 1.13956 50.6881 2.65896Z" fill="white"></path>
    <path d="M73.4279 2.65896C73.4279 4.17837 72.2845 5.31793 70.7601 5.31793C69.2356 5.31793 68.0923 4.17837 68.0923 2.65896C68.0923 1.13956 69.3627 0 70.7601 0C72.1575 0 73.4279 1.13956 73.4279 2.65896Z" fill="white"></path>
    <path d="M96.1676 2.65896C96.1676 4.17837 95.0243 5.31793 93.4998 5.31793C91.9754 5.31793 90.832 4.17837 90.832 2.65896C90.832 1.13956 91.9754 0 93.4998 0C94.8972 0 96.1676 1.13956 96.1676 2.65896Z" fill="white"></path>
    <path d="M118.908 2.65896C118.908 4.17837 117.765 5.31793 116.24 5.31793C114.716 5.31793 113.572 4.17837 113.572 2.65896C113.572 1.13956 114.716 0 116.24 0C117.765 0 118.908 1.13956 118.908 2.65896Z" fill="white"></path>
    <path d="M141.52 2.65896C141.52 4.17837 140.377 5.31793 138.852 5.31793C137.328 5.31793 136.185 4.17837 136.185 2.65896C136.185 1.13956 137.328 0 138.852 0C140.377 0 141.52 1.13956 141.52 2.65896Z" fill="white"></path>
    <path d="M5.3356 21.5252C5.3356 23.0446 4.19226 24.1841 2.6678 24.1841C1.14334 24.1841 0 22.918 0 21.5252C0 20.0058 1.14334 18.8662 2.6678 18.8662C4.19226 18.8662 5.3356 20.0058 5.3356 21.5252Z" fill="white"></path>
    <path d="M28.0753 21.5252C28.0753 23.0446 26.932 24.1841 25.4075 24.1841C23.8831 24.1841 22.7397 23.0446 22.7397 21.5252C22.7397 20.0058 23.8831 18.8662 25.4075 18.8662C26.805 18.8662 28.0753 20.0058 28.0753 21.5252Z" fill="white"></path>
    <path d="M50.6881 21.5252C50.6881 23.0446 49.5448 24.1841 48.0203 24.1841C46.4959 24.1841 45.3525 23.0446 45.3525 21.5252C45.3525 20.0058 46.4959 18.8662 48.0203 18.8662C49.5448 18.8662 50.6881 20.0058 50.6881 21.5252Z" fill="white"></path>
    <path d="M73.4279 21.5252C73.4279 23.0446 72.2845 24.1841 70.7601 24.1841C69.2356 24.1841 68.0923 23.0446 68.0923 21.5252C68.0923 20.0058 69.2356 18.8662 70.7601 18.8662C72.2845 18.8662 73.4279 20.0058 73.4279 21.5252Z" fill="white"></path>
    <path d="M96.1676 21.5252C96.1676 23.0446 95.0243 24.1841 93.4998 24.1841C91.9754 24.1841 90.832 23.0446 90.832 21.5252C90.832 20.0058 91.9754 18.8662 93.4998 18.8662C94.8972 18.8662 96.1676 20.0058 96.1676 21.5252Z" fill="white"></path>
    <path d="M118.908 21.5252C118.908 23.0446 117.765 24.1841 116.24 24.1841C114.716 24.1841 113.572 23.0446 113.572 21.5252C113.572 20.0058 114.716 18.8662 116.24 18.8662C117.765 18.8662 118.908 20.0058 118.908 21.5252Z" fill="white"></path>
    <path d="M141.52 21.5252C141.52 23.0446 140.377 24.1841 138.852 24.1841C137.328 24.1841 136.185 23.0446 136.185 21.5252C136.185 20.0058 137.328 18.8662 138.852 18.8662C140.377 18.8662 141.52 20.0058 141.52 21.5252Z" fill="white"></path>
    <path d="M5.3356 77.8699C5.3356 79.3893 4.19226 80.5289 2.6678 80.5289C1.14334 80.5289 0 79.3893 0 77.8699C0 76.3505 1.14334 75.2109 2.6678 75.2109C4.19226 75.2109 5.3356 76.4771 5.3356 77.8699Z" fill="white"></path>
    <path d="M28.0753 77.8699C28.0753 79.3893 26.932 80.5289 25.4075 80.5289C23.8831 80.5289 22.7397 79.3893 22.7397 77.8699C22.7397 76.3505 23.8831 75.2109 25.4075 75.2109C26.805 75.2109 28.0753 76.4771 28.0753 77.8699Z" fill="white"></path>
    <path d="M50.6881 77.8699C50.6881 79.3893 49.5448 80.5289 48.0203 80.5289C46.4959 80.5289 45.3525 79.3893 45.3525 77.8699C45.3525 76.3505 46.4959 75.2109 48.0203 75.2109C49.5448 75.2109 50.6881 76.4771 50.6881 77.8699Z" fill="white"></path>
    <path d="M73.4279 77.8699C73.4279 79.3893 72.2845 80.5289 70.7601 80.5289C69.2356 80.5289 68.0923 79.3893 68.0923 77.8699C68.0923 76.3505 69.2356 75.2109 70.7601 75.2109C72.2845 75.2109 73.4279 76.4771 73.4279 77.8699Z" fill="white"></path>
    <path d="M96.1676 77.8699C96.1676 79.3893 95.0243 80.5289 93.4998 80.5289C91.9754 80.5289 90.832 79.3893 90.832 77.8699C90.832 76.3505 91.9754 75.2109 93.4998 75.2109C94.8972 75.2109 96.1676 76.4771 96.1676 77.8699Z" fill="white"></path>
    <path d="M118.908 77.8699C118.908 79.3893 117.765 80.5289 116.24 80.5289C114.716 80.5289 113.572 79.3893 113.572 77.8699C113.572 76.3505 114.716 75.2109 116.24 75.2109C117.765 75.2109 118.908 76.4771 118.908 77.8699Z" fill="white"></path>
    <path d="M141.52 77.8699C141.52 79.3893 140.377 80.5289 138.852 80.5289C137.328 80.5289 136.185 79.3893 136.185 77.8699C136.185 76.3505 137.328 75.2109 138.852 75.2109C140.377 75.2109 141.52 76.4771 141.52 77.8699Z" fill="white"></path>
    <path d="M5.3356 96.7361C5.3356 98.2555 4.19226 99.3951 2.6678 99.3951C1.14334 99.3951 0 98.2555 0 96.7361C0 95.2167 1.14334 94.0771 2.6678 94.0771C4.19226 94.0771 5.3356 95.2167 5.3356 96.7361Z" fill="white"></path>
    <path d="M28.0753 96.7361C28.0753 98.2555 26.932 99.3951 25.4075 99.3951C23.8831 99.3951 22.7397 98.2555 22.7397 96.7361C22.7397 95.2167 23.8831 94.0771 25.4075 94.0771C26.805 94.0771 28.0753 95.2167 28.0753 96.7361Z" fill="white"></path>
    <path d="M50.6881 96.7361C50.6881 98.2555 49.5448 99.3951 48.0203 99.3951C46.4959 99.3951 45.3525 98.2555 45.3525 96.7361C45.3525 95.2167 46.4959 94.0771 48.0203 94.0771C49.5448 94.0771 50.6881 95.2167 50.6881 96.7361Z" fill="white"></path>
    <path d="M70.7601 99.3951C72.2335 99.3951 73.4279 98.2046 73.4279 96.7361C73.4279 95.2676 72.2335 94.0771 70.7601 94.0771C69.2867 94.0771 68.0923 95.2676 68.0923 96.7361C68.0923 98.2046 69.2867 99.3951 70.7601 99.3951Z" fill="white"></path>
    <path d="M96.1676 96.7361C96.1676 98.2555 95.0243 99.3951 93.4998 99.3951C91.9754 99.3951 90.832 98.2555 90.832 96.7361C90.832 95.2167 91.9754 94.0771 93.4998 94.0771C94.8972 94.0771 96.1676 95.2167 96.1676 96.7361Z" fill="white"></path>
    <path d="M118.908 96.7361C118.908 98.2555 117.765 99.3951 116.24 99.3951C114.716 99.3951 113.572 98.2555 113.572 96.7361C113.572 95.2167 114.716 94.0771 116.24 94.0771C117.765 94.0771 118.908 95.2167 118.908 96.7361Z" fill="white"></path>
    <path d="M141.52 96.7361C141.52 98.2555 140.377 99.3951 138.852 99.3951C137.328 99.3951 136.185 98.2555 136.185 96.7361C136.185 95.2167 137.328 94.0771 138.852 94.0771C140.377 94.0771 141.52 95.2167 141.52 96.7361Z" fill="white"></path>
    <path d="M5.3356 115.601C5.3356 117.121 4.19226 118.26 2.6678 118.26C1.14334 118.26 0 117.121 0 115.601C0 114.082 1.14334 112.942 2.6678 112.942C4.19226 112.942 5.3356 114.082 5.3356 115.601Z" fill="white"></path>
    <path d="M28.0753 115.601C28.0753 117.121 26.932 118.26 25.4075 118.26C23.8831 118.26 22.7397 117.121 22.7397 115.601C22.7397 114.082 23.8831 112.942 25.4075 112.942C26.805 112.942 28.0753 114.082 28.0753 115.601Z" fill="white"></path>
    <path d="M50.6881 115.601C50.6881 117.121 49.5448 118.26 48.0203 118.26C46.4959 118.26 45.3525 117.121 45.3525 115.601C45.3525 114.082 46.4959 112.942 48.0203 112.942C49.5448 112.942 50.6881 114.082 50.6881 115.601Z" fill="white"></path>
    <path d="M73.4279 115.601C73.4279 117.121 72.2845 118.26 70.7601 118.26C69.2356 118.26 68.0923 117.121 68.0923 115.601C68.0923 114.082 69.2356 112.942 70.7601 112.942C72.2845 112.942 73.4279 114.082 73.4279 115.601Z" fill="white"></path>
    <path d="M96.1676 115.601C96.1676 117.121 95.0243 118.26 93.4998 118.26C91.9754 118.26 90.832 117.121 90.832 115.601C90.832 114.082 91.9754 112.942 93.4998 112.942C94.8972 112.942 96.1676 114.082 96.1676 115.601Z" fill="white"></path>
    <path d="M118.908 115.601C118.908 117.121 117.765 118.26 116.24 118.26C114.716 118.26 113.572 117.121 113.572 115.601C113.572 114.082 114.716 112.942 116.24 112.942C117.765 112.942 118.908 114.082 118.908 115.601Z" fill="white"></path>
    <path d="M141.52 115.601C141.52 117.121 140.377 118.26 138.852 118.26C137.328 118.26 136.185 117.121 136.185 115.601C136.185 114.082 137.328 112.942 138.852 112.942C140.377 112.942 141.52 114.082 141.52 115.601Z" fill="white"></path>
    <path d="M5.3356 134.341C5.3356 135.86 4.19226 137 2.6678 137C1.14334 137 0 135.86 0 134.341C0 132.821 1.14334 131.682 2.6678 131.682C4.19226 131.682 5.3356 132.948 5.3356 134.341Z" fill="white"></path>
    <path d="M28.0753 134.341C28.0753 135.86 26.932 137 25.4075 137C23.8831 137 22.7397 135.86 22.7397 134.341C22.7397 132.821 23.8831 131.682 25.4075 131.682C26.805 131.682 28.0753 132.948 28.0753 134.341Z" fill="white"></path>
    <path d="M50.6881 134.341C50.6881 135.86 49.5448 137 48.0203 137C46.4959 137 45.3525 135.86 45.3525 134.341C45.3525 132.821 46.4959 131.682 48.0203 131.682C49.5448 131.682 50.6881 132.948 50.6881 134.341Z" fill="white"></path>
    <path d="M73.4279 134.341C73.4279 135.86 72.2845 137 70.7601 137C69.2356 137 68.0923 135.86 68.0923 134.341C68.0923 132.821 69.2356 131.682 70.7601 131.682C72.2845 131.682 73.4279 132.948 73.4279 134.341Z" fill="white"></path>
    <path d="M96.1676 134.341C96.1676 135.86 95.0243 137 93.4998 137C91.9754 137 90.832 135.86 90.832 134.341C90.832 132.821 91.9754 131.682 93.4998 131.682C94.8972 131.682 96.1676 132.948 96.1676 134.341Z" fill="white"></path>
    <path d="M118.908 134.341C118.908 135.86 117.765 137 116.24 137C114.716 137 113.572 135.86 113.572 134.341C113.572 132.821 114.716 131.682 116.24 131.682C117.765 131.682 118.908 132.948 118.908 134.341Z" fill="white"></path>
    <path d="M141.52 134.341C141.52 135.86 140.377 137 138.852 137C137.328 137 136.185 135.86 136.185 134.341C136.185 132.821 137.328 131.682 138.852 131.682C140.377 131.682 141.52 132.948 141.52 134.341Z" fill="white"></path>
  </symbol>
	
</svg>