<svg width="0" height="0" class="hidden">

	<!-- !logo -->
  <symbol fill="none" xmlns="http://www.w3.org/2000/svg" viewBox="0 0 130 22" id="logo">
    <g clip-path="url(#clip0_39336_1647)">
      <path d="M0 11.0998C0 4.9998 3.3 1.2998 8.7 1.2998C12.8 1.2998 16.1 3.7998 16.7 7.4998C16.8 7.8998 16.5 8.1998 16.1 8.1998H13.5C13.2 8.1998 13 7.9998 12.9 7.6998C12.4 5.7998 10.8 4.5998 8.7 4.5998C5.8 4.5998 4 7.0998 4 11.0998C4 15.0998 5.8 17.5998 8.8 17.5998C10.9 17.5998 12.4 16.4998 13 14.6998C13.1 14.3998 13.3 14.1998 13.6 14.1998H16.2C16.6 14.1998 16.9 14.5998 16.8 14.8998C16.2 18.4998 13 20.8998 8.8 20.8998C3.3 20.8998 0 17.0998 0 11.0998Z" fill="#1E212C"></path>
      <path d="M24.2997 20.4001H21.3997C21.0997 20.4001 20.8997 20.2001 20.8997 19.9001V2.60006C20.8997 2.20006 21.2997 1.80006 21.6997 1.80006H28.6997C32.7997 1.80006 35.2997 4.10006 35.2997 7.70006C35.2997 9.80006 34.2997 11.7001 32.5997 12.7001C32.1997 12.9001 32.0997 13.4001 32.2997 13.7001L35.3997 19.6001C35.5997 19.9001 35.2997 20.3001 34.9997 20.3001H31.6997C31.4997 20.3001 31.2997 20.2001 31.1997 20.0001L28.2997 14.0001C28.1997 13.7001 27.8997 13.6001 27.5997 13.6001H25.2997C24.9997 13.6001 24.7997 13.8001 24.7997 14.1001V20.0001C24.8997 20.2001 24.5997 20.4001 24.2997 20.4001ZM24.8997 10.2001C24.8997 10.5001 25.0997 10.7001 25.3997 10.7001H28.3997C30.3997 10.7001 31.4997 9.60006 31.4997 7.80006C31.4997 6.00006 30.2997 4.90006 28.3997 4.90006H25.4997C25.1997 4.90006 24.9997 5.10006 24.9997 5.40006V10.2001H24.8997Z" fill="#1E212C"></path>
      <path d="M51.4998 20.4001H40.4998C40.0998 20.4001 39.7998 20.1001 39.7998 19.7001V2.50006C39.7998 2.10006 40.0998 1.80006 40.4998 1.80006H51.4998C51.8998 1.80006 52.1998 2.10006 52.1998 2.50006V4.40006C52.1998 4.80006 51.8998 5.10006 51.4998 5.10006H44.1998C43.8998 5.10006 43.6998 5.30006 43.6998 5.60006V9.00006C43.6998 9.30006 43.8998 9.50006 44.1998 9.50006H50.9998C51.3998 9.50006 51.6998 9.80006 51.6998 10.2001V11.9001C51.6998 12.3001 51.3998 12.6001 50.9998 12.6001H44.1998C43.8998 12.6001 43.6998 12.8001 43.6998 13.1001V16.9001C43.6998 17.2001 43.8998 17.4001 44.1998 17.4001H51.4998C51.8998 17.4001 52.1998 17.7001 52.1998 18.1001V20.0001C52.1998 20.1001 51.8998 20.4001 51.4998 20.4001Z" fill="#1E212C"></path>
      <path d="M66.9999 15.9001H61.2999C60.9999 15.9001 60.7999 16.1001 60.6999 16.3001L59.5999 20.0001C59.4999 20.3001 59.2999 20.4001 58.9999 20.4001H56.3999C55.9999 20.4001 55.6999 20.0001 55.7999 19.6001L61.7999 2.20006C61.8999 2.00006 62.0999 1.80006 62.3999 1.80006H66.0999C66.3999 1.80006 66.5999 2.00006 66.6999 2.20006L72.6999 19.6001C72.7999 20.0001 72.4999 20.4001 72.0999 20.4001H69.1999C68.8999 20.4001 68.6999 20.2001 68.5999 20.0001L67.4999 16.3001C67.4999 16.1001 67.1999 15.9001 66.9999 15.9001ZM62.0999 13.0001H66.1999C66.3999 13.0001 66.4999 12.8001 66.4999 12.6001L64.2999 5.60006H64.0999L61.8999 12.6001C61.7999 12.8001 61.8999 13.0001 62.0999 13.0001Z" fill="#1E212C"></path>
      <path d="M79.0001 19.7005V5.50045C79.0001 5.20045 78.8001 5.00045 78.5001 5.00045H74.1001C73.7001 5.00045 73.3001 4.70045 73.3001 4.20045V2.50045C73.3001 2.10045 73.6001 1.70045 74.1001 1.70045H87.7001C88.1001 1.70045 88.5001 2.00045 88.5001 2.50045V4.20045C88.5001 4.60045 88.2001 5.00045 87.7001 5.00045H83.3001C83.0001 5.00045 82.8001 5.20045 82.8001 5.50045V19.8004C82.8001 20.2004 82.5001 20.5005 82.1001 20.5005H79.6001C79.3001 20.4004 79.0001 20.1005 79.0001 19.7005Z" fill="#1E212C"></path>
      <path d="M103.8 20.4001H92.7999C92.3999 20.4001 92.0999 20.1001 92.0999 19.7001V2.50006C92.0999 2.10006 92.3999 1.80006 92.7999 1.80006H103.8C104.2 1.80006 104.5 2.10006 104.5 2.50006V4.40006C104.5 4.80006 104.2 5.10006 103.8 5.10006H96.4999C96.1999 5.10006 95.9999 5.30006 95.9999 5.60006V9.00006C95.9999 9.30006 96.1999 9.50006 96.4999 9.50006H103.3C103.7 9.50006 104 9.80006 104 10.2001V11.9001C104 12.3001 103.7 12.6001 103.3 12.6001H96.4999C96.1999 12.6001 95.9999 12.8001 95.9999 13.1001V16.9001C95.9999 17.2001 96.1999 17.4001 96.4999 17.4001H103.8C104.2 17.4001 104.5 17.7001 104.5 18.1001V20.0001C104.5 20.1001 104.2 20.4001 103.8 20.4001Z" fill="#1E212C"></path>
      <path d="M117.7 9.7L111.5 1.6C111.1 1.2 110.6 1 110.1 1C109.6 1 109.1 1.2 108.7 1.6C108 2.4 108 3.6 108.7 4.4L113.6 11L108.7 17.6C108 18.4 108 19.6 108.7 20.4C109.1 20.8 109.6 21 110.1 21C110.6 21 111.1 20.8 111.5 20.4L117.7 12.3C118.4 11.7 118.4 10.5 117.7 9.7Z" fill="#FF3F3A"></path>
      <path d="M120.343 9.7L126.543 1.6C126.943 1.2 127.443 1 127.943 1C128.443 1 128.943 1.2 129.343 1.6C130.043 2.4 130.043 3.6 129.343 4.4L124.443 11L129.343 17.6C130.043 18.4 130.043 19.6 129.343 20.4C128.943 20.8 128.443 21 127.943 21C127.443 21 126.943 20.8 126.543 20.4L120.343 12.3C119.643 11.7 119.643 10.5 120.343 9.7Z" fill="#FF3F3A"></path>
    </g>
    <defs>
      <clipPath id="clip0_39336_1647">
        <rect width="130" height="22" fill="white"></rect>
      </clipPath>
    </defs>
  </symbol>

	<!-- !person -->
  <symbol xmlns="http://www.w3.org/2000/svg" viewBox="0 0 18 18" id="person">
    <path fill-rule="evenodd" clip-rule="evenodd" d="M9.00019 1.70866C7.38936 1.70866 6.08353 3.0145 6.08353 4.62533C6.08353 6.23616 7.38936 7.54199 9.00019 7.54199C10.611 7.54199 11.9169 6.23616 11.9169 4.62533C11.9169 3.0145 10.611 1.70866 9.00019 1.70866ZM4.41686 4.62533C4.41686 2.09402 6.46889 0.0419922 9.00019 0.0419922C11.5315 0.0419922 13.5835 2.09402 13.5835 4.62533C13.5835 7.15663 11.5315 9.20866 9.00019 9.20866C6.46889 9.20866 4.41686 7.15663 4.41686 4.62533Z"></path>
    <path fill-rule="evenodd" clip-rule="evenodd" d="M4.08691 11.7087C3.50914 11.7087 3.05755 11.99 2.87424 12.3942C2.62053 12.9536 2.39078 13.6196 2.33656 14.2513C2.31233 14.5337 2.43006 14.7418 2.5923 14.8426C3.44993 15.3753 5.43719 16.292 9.00019 16.292C12.5632 16.292 14.5505 15.3753 15.4081 14.8426C15.5703 14.7418 15.6881 14.5337 15.6638 14.2513C15.6096 13.6196 15.3799 12.9536 15.1261 12.3942C14.9428 11.99 14.4912 11.7087 13.9135 11.7087H4.08691ZM1.35639 11.7058C1.86301 10.5887 2.99428 10.042 4.08691 10.042H13.9135C15.0061 10.042 16.1374 10.5887 16.644 11.7058C16.935 12.3474 17.2472 13.2099 17.3244 14.1088C17.3946 14.9273 17.0544 15.7819 16.2876 16.2583C15.1596 16.959 12.8665 17.9587 9.00019 17.9587C5.13386 17.9587 2.84078 16.959 1.71283 16.2583C0.945947 15.7819 0.605747 14.9273 0.676001 14.1088C0.753149 13.2099 1.0654 12.3474 1.35639 11.7058Z"></path>
  </symbol>

	<!-- !play -->
  <symbol fill="none" xmlns="http://www.w3.org/2000/svg" viewBox="0 0 11 14" id="play">
    <path d="M10.5 6.13398C11.1667 6.51888 11.1667 7.48113 10.5 7.86603L1.5 13.0622C0.833332 13.4471 -6.10471e-07 12.966 -5.76822e-07 12.1962L-1.2256e-07 1.80385C-8.8911e-08 1.03405 0.833334 0.552922 1.5 0.937822L10.5 6.13398Z" fill="white"></path>
  </symbol>

	<!-- !semicircle -->
  <symbol fill="none" xmlns="http://www.w3.org/2000/svg" viewBox="0 0 61 61" id="semicircle">
    <path opacity="0.3" d="M61 50.5529C47.0706 64.4824 24.3765 64.4824 10.4471 50.5529C-3.48236 36.6235 -3.48236 13.9294 10.4471 0L61 50.5529Z" fill="white"></path>
  </symbol>

	<!-- !eye -->
	<symbol fill="none" xmlns="http://www.w3.org/2000/svg" viewBox="0 0 16 16" id="eye">
    <path d="M1.75978 5.67858C3.56252 4.17458 5.63791 3.33333 7.8327 3.33333C10.0275 3.33333 12.1029 4.17458 13.9056 5.67858C14.1883 5.91444 14.6087 5.87646 14.8446 5.59374C15.0805 5.31102 15.0425 4.89063 14.7598 4.65476C12.7552 2.98237 10.3857 2 7.8327 2C5.27974 2 2.9102 2.98237 0.905623 4.65476C0.622903 4.89063 0.584923 5.31102 0.82079 5.59374C1.05666 5.87646 1.47706 5.91444 1.75978 5.67858Z" fill="#424551"></path>
    <path fill-rule="evenodd" clip-rule="evenodd" d="M2.7332 6.45935C3.93222 5.44709 5.64231 4.5 7.58268 4.5C9.52306 4.5 11.2331 5.44709 12.4322 6.45935C13.0366 6.96963 13.5321 7.51363 13.8824 7.99952C14.0571 8.24199 14.2029 8.47992 14.3078 8.70052C14.4041 8.90315 14.4993 9.15887 14.4993 9.41667C14.4993 9.67447 14.4041 9.93019 14.3078 10.1328C14.2029 10.3534 14.0571 10.5913 13.8824 10.8338C13.5321 11.3197 13.0366 11.8637 12.4322 12.374C11.2331 13.3862 9.52306 14.3333 7.58268 14.3333C5.64231 14.3333 3.93222 13.3862 2.7332 12.374C2.12878 11.8637 1.63322 11.3197 1.28301 10.8338C1.10825 10.5913 0.962506 10.3534 0.857602 10.1328C0.761243 9.93019 0.666016 9.67447 0.666016 9.41667C0.666016 9.15887 0.761243 8.90315 0.857602 8.70052C0.962506 8.47992 1.10825 8.24199 1.28301 7.99952C1.63322 7.51363 2.12878 6.96963 2.7332 6.45935ZM2.00408 9.41667C2.01082 9.43924 2.02638 9.4859 2.06172 9.56021C2.12333 9.68976 2.22316 9.85786 2.36467 10.0542C2.64699 10.4459 3.06672 10.9106 3.59333 11.3552C4.65637 12.2526 6.07128 13 7.58268 13C9.09409 13 10.509 12.2526 11.572 11.3552C12.0986 10.9106 12.5184 10.4459 12.8007 10.0542C12.9422 9.85786 13.042 9.68976 13.1036 9.56021C13.139 9.4859 13.1545 9.43924 13.1613 9.41666C13.1545 9.39409 13.139 9.34743 13.1036 9.27312C13.042 9.14357 12.9422 8.97547 12.8007 8.77913C12.5184 8.38742 12.0986 7.92274 11.572 7.47816C11.3484 7.28939 11.1093 7.10726 10.8569 6.93733C10.9496 7.24756 10.9993 7.5763 10.9993 7.91667C10.9993 9.80364 9.46966 11.3333 7.58268 11.3333C5.69571 11.3333 4.16602 9.80364 4.16602 7.91667C4.16602 7.5763 4.21578 7.24756 4.30844 6.93733C4.05609 7.10726 3.81692 7.28939 3.59333 7.47816C3.06672 7.92274 2.64699 8.38742 2.36467 8.77913C2.22316 8.97547 2.12333 9.14357 2.06172 9.27312C2.02638 9.34743 2.01082 9.39409 2.00408 9.41667ZM5.49935 7.91667C5.49935 6.76607 6.43209 5.83333 7.58268 5.83333C8.73328 5.83333 9.66602 6.76607 9.66602 7.91667C9.66602 9.06726 8.73328 10 7.58268 10C6.43209 10 5.49935 9.06726 5.49935 7.91667Z" fill="#424551"></path>
  </symbol>

	<!-- !facebook -->
  <symbol xmlns="http://www.w3.org/2000/svg" viewBox="0 0 20 20" id="facebook">
    <path d="M14.6354 0.836822L12.321 0.833008C9.72086 0.833008 8.04054 2.60392 8.04054 5.34487V7.42513H5.71352C5.51244 7.42513 5.34961 7.59259 5.34961 7.79915V10.8132C5.34961 11.0198 5.51263 11.187 5.71352 11.187H8.04054V18.7925C8.04054 18.9991 8.20337 19.1663 8.40445 19.1663H11.4405C11.6416 19.1663 11.8045 18.9989 11.8045 18.7925V11.187H14.5253C14.7264 11.187 14.8892 11.0198 14.8892 10.8132L14.8903 7.79915C14.8903 7.69997 14.8519 7.60499 14.7837 7.5348C14.7156 7.46461 14.6227 7.42513 14.5262 7.42513H11.8045V5.66166C11.8045 4.81407 12.0011 4.38379 13.0759 4.38379L14.635 4.38322C14.8359 4.38322 14.9987 4.21576 14.9987 4.00939V1.21065C14.9987 1.00447 14.8361 0.837204 14.6354 0.836822Z"></path>
  </symbol>

	<!-- !google -->
  <symbol xmlns="http://www.w3.org/2000/svg" viewBox="0 0 20 20" id="google">
    <path d="M10.1756 8.75219H18.4051C18.4959 9.25921 18.5413 9.74352 18.5413 10.2051C18.5413 11.8472 18.197 13.3134 17.5084 14.6037C16.8198 15.8939 15.8379 16.9022 14.5628 17.6287C13.2877 18.3552 11.8253 18.7184 10.1756 18.7184C8.98754 18.7184 7.85622 18.4895 6.78165 18.0317C5.70708 17.5739 4.78008 16.9552 4.00064 16.1758C3.2212 15.3963 2.60257 14.4693 2.14475 13.3948C1.68692 12.3202 1.45801 11.1889 1.45801 10.0008C1.45801 8.81273 1.68692 7.68141 2.14475 6.60685C2.60257 5.53228 3.2212 4.60528 4.00064 3.82584C4.78008 3.0464 5.70708 2.42777 6.78165 1.96994C7.85622 1.51212 8.98754 1.2832 10.1756 1.2832C12.4458 1.2832 14.3944 2.04372 16.0214 3.56476L13.649 5.84633C12.7183 4.94581 11.5604 4.49555 10.1756 4.49555C9.19942 4.49555 8.29702 4.74149 7.46839 5.23337C6.63976 5.72525 5.98329 6.39307 5.49898 7.23683C5.01467 8.08059 4.77251 9.00192 4.77251 10.0008C4.77251 10.9997 5.01467 11.921 5.49898 12.7648C5.98329 13.6086 6.63976 14.2764 7.46839 14.7683C8.29702 15.2601 9.19942 15.5061 10.1756 15.5061C10.834 15.5061 11.4394 15.4153 11.9918 15.2336C12.5442 15.052 12.9982 14.825 13.3539 14.5526C13.7096 14.2802 14.0198 13.9699 14.2847 13.6218C14.5496 13.2737 14.7444 12.9445 14.8693 12.6343C14.9941 12.324 15.0793 12.0289 15.1247 11.7489H10.1756V8.75219Z"></path>
  </symbol>

	<!-- !linked-In -->
  <symbol xmlns="http://www.w3.org/2000/svg" viewBox="0 0 20 20" id="linked-In">
    <path d="M18.3295 18.3337L18.3337 18.333V12.2205C18.3337 9.23019 17.6899 6.92671 14.1941 6.92671C12.5135 6.92671 11.3857 7.84894 10.9253 8.72324H10.8767V7.20588H7.56212V18.333H11.0135V12.8232C11.0135 11.3726 11.2885 9.96977 13.085 9.96977C14.8552 9.96977 14.8816 11.6253 14.8816 12.9163V18.3337H18.3295Z"></path>
    <path d="M1.94199 7.20657H5.39754V18.3337H1.94199V7.20657Z" ></path>
    <path d="M3.66838 1.66699C2.56352 1.66699 1.66699 2.56352 1.66699 3.66838C1.66699 4.77324 2.56352 5.68852 3.66838 5.68852C4.77324 5.68852 5.66977 4.77324 5.66977 3.66838C5.66908 2.56352 4.77255 1.66699 3.66838 1.66699Z"></path>
  </symbol>

	<!-- !twitter -->
  <symbol xmlns="http://www.w3.org/2000/svg" viewBox="0 0 20 20" id="twitter">
    <path d="M18.75 4.8106C18.1059 5.08388 17.4148 5.26922 16.6887 5.35196C17.4301 4.92683 17.9976 4.25252 18.2666 3.45149C17.5711 3.84519 16.8035 4.13106 15.9855 4.28603C15.3305 3.61695 14.3988 3.2002 13.3653 3.2002C11.3827 3.2002 9.77523 4.73942 9.77523 6.63674C9.77523 6.90583 9.80694 7.16865 9.86819 7.41997C6.88501 7.2765 4.23973 5.90797 2.46928 3.82843C2.1598 4.33523 1.98374 4.92576 1.98374 5.55613C1.98374 6.74878 2.618 7.8011 3.58033 8.41677C2.992 8.39793 2.43866 8.24296 1.95423 7.98537V8.0283C1.95423 9.69317 3.19213 11.0826 4.83353 11.3989C4.5328 11.4764 4.21568 11.5193 3.88761 11.5193C3.6558 11.5193 3.43161 11.4973 3.2118 11.4554C3.66889 12.8219 4.99429 13.8156 6.56463 13.8428C5.33657 14.7642 3.7881 15.3119 2.10624 15.3119C1.81646 15.3119 1.53103 15.2951 1.25 15.2647C2.83893 16.2417 4.7253 16.8113 6.75273 16.8113C13.3566 16.8113 16.9665 11.5738 16.9665 7.0315L16.9544 6.5865C17.6597 6.1048 18.2699 5.49959 18.75 4.8106Z" ></path>
  </symbol>

	<!-- !instagram -->
	<symbol xmlns="http://www.w3.org/2000/svg" viewBox="0 0 24 24" id="instagram">
      <path d="M21.9804 7.88005C21.9336 6.81738 21.7617 6.0868 21.5156 5.45374C21.2616 4.78176 20.8709 4.18014 20.359 3.68002C19.8589 3.1721 19.2533 2.77743 18.5891 2.52745C17.9524 2.28127 17.2256 2.10943 16.163 2.06257C15.0923 2.01175 14.7525 2 12.0371 2C9.32172 2 8.98185 2.01175 7.9152 2.05861C6.85253 2.10546 6.12195 2.27746 5.48904 2.52348C4.81692 2.77743 4.2153 3.16814 3.71517 3.68002C3.20726 4.18014 2.81274 4.78573 2.5626 5.44992C2.31643 6.0868 2.14458 6.81341 2.09773 7.87609C2.04691 8.9467 2.03516 9.28658 2.03516 12.002C2.03516 14.7173 2.04691 15.0572 2.09376 16.1239C2.14061 17.1865 2.31261 17.9171 2.55879 18.5502C2.81274 19.2221 3.20726 19.8238 3.71517 20.3239C4.2153 20.8318 4.82088 21.2265 5.48507 21.4765C6.12195 21.7226 6.84856 21.8945 7.91139 21.9413C8.97788 21.9883 9.31791 21.9999 12.0333 21.9999C14.7486 21.9999 15.0885 21.9883 16.1552 21.9413C17.2178 21.8945 17.9484 21.7226 18.5813 21.4765C19.9254 20.9568 20.9881 19.8941 21.5078 18.5502C21.7538 17.9133 21.9258 17.1865 21.9726 16.1239C22.0195 15.0572 22.0312 14.7173 22.0312 12.002C22.0312 9.28658 22.0273 8.9467 21.9804 7.88005ZM20.1794 16.0457C20.1364 17.0225 19.9723 17.5499 19.8355 17.9015C19.4995 18.7728 18.808 19.4643 17.9367 19.8004C17.585 19.9372 17.0538 20.1012 16.0808 20.1441C15.026 20.1911 14.7096 20.2027 12.0411 20.2027C9.37255 20.2027 9.0522 20.1911 8.00113 20.1441C7.02437 20.1012 6.49693 19.9372 6.1453 19.8004C5.71171 19.6402 5.31704 19.3862 4.9967 19.0541C4.6646 18.7298 4.41065 18.3391 4.2504 17.9055C4.11365 17.5539 3.94959 17.0225 3.9067 16.0497C3.8597 14.9948 3.8481 14.6783 3.8481 12.0097C3.8481 9.34122 3.8597 9.02087 3.9067 7.96995C3.94959 6.99319 4.11365 6.46575 4.2504 6.11412C4.41065 5.68038 4.6646 5.28586 5.00067 4.96536C5.32483 4.63327 5.71553 4.37931 6.14927 4.21921C6.5009 4.08247 7.03231 3.9184 8.00509 3.87537C9.05999 3.82851 9.37652 3.81676 12.0449 3.81676C14.7174 3.81676 15.0337 3.82851 16.0848 3.87537C17.0616 3.9184 17.589 4.08247 17.9406 4.21921C18.3742 4.37931 18.7689 4.63327 19.0892 4.96536C19.4213 5.28967 19.6753 5.68038 19.8355 6.11412C19.9723 6.46575 20.1364 6.99701 20.1794 7.96995C20.2262 9.02484 20.238 9.34122 20.238 12.0097C20.238 14.6783 20.2262 14.9908 20.1794 16.0457Z"></path>
      <path d="M12.0371 6.86423C9.20069 6.86423 6.89937 9.1654 6.89937 12.002C6.89937 14.8385 9.20069 17.1397 12.0371 17.1397C14.8736 17.1397 17.1748 14.8385 17.1748 12.002C17.1748 9.1654 14.8736 6.86423 12.0371 6.86423ZM12.0371 15.3347C10.197 15.3347 8.70438 13.8422 8.70438 12.002C8.70438 10.1617 10.197 8.66924 12.0371 8.66924C13.8774 8.66924 15.3698 10.1617 15.3698 12.002C15.3698 13.8422 13.8774 15.3347 12.0371 15.3347Z"></path>
      <path d="M18.5776 6.6611C18.5776 7.32346 18.0405 7.86053 17.378 7.86053C16.7156 7.86053 16.1785 7.32346 16.1785 6.6611C16.1785 5.99858 16.7156 5.46167 17.378 5.46167C18.0405 5.46167 18.5776 5.99858 18.5776 6.6611Z"></path>
  </symbol>

	<!-- !iPhone -->
  <symbol fill="none" xmlns="http://www.w3.org/2000/svg" viewBox="0 0 16 16" id="iPhone">
    <path fill-rule="evenodd" clip-rule="evenodd" d="M5.66683 1.94857C5.11454 1.94857 4.66683 2.39628 4.66683 2.94857V13.0527C4.66683 13.605 5.11454 14.0527 5.66683 14.0527H10.3335C10.8858 14.0527 11.3335 13.605 11.3335 13.0527V2.94857C11.3335 2.39628 10.8858 1.94857 10.3335 1.94857H10.2779L10.1155 2.3382C10.012 2.58661 9.76928 2.74842 9.50016 2.74842H6.50016C6.23105 2.74842 5.98832 2.58661 5.8848 2.3382L5.72242 1.94857H5.66683ZM3.3335 2.94857C3.3335 1.6599 4.37817 0.615234 5.66683 0.615234H10.3335C11.6222 0.615234 12.6668 1.6599 12.6668 2.94857V13.0527C12.6668 14.3414 11.6222 15.3861 10.3335 15.3861H5.66683C4.37816 15.3861 3.3335 14.3414 3.3335 13.0527V2.94857Z" fill="white"></path>
  </symbol>

	<!-- !mail -->
  <symbol fill="none" xmlns="http://www.w3.org/2000/svg" viewBox="0 0 16 16" id="mail">
    <path fill-rule="evenodd" clip-rule="evenodd" d="M15.1668 11.9993V4.66602C15.1668 3.56145 14.2714 2.66602 13.1668 2.66602L2.83349 2.66603C1.72893 2.66603 0.833496 3.56146 0.833496 4.66603V11.9993C0.833496 13.1039 1.72893 13.9993 2.8335 13.9993L13.1668 13.9993C14.2714 13.9993 15.1668 13.1039 15.1668 11.9993ZM13.8335 6.17232V11.9993C13.8335 12.3675 13.535 12.666 13.1668 12.666L2.8335 12.666C2.46531 12.666 2.16683 12.3675 2.16683 11.9993L2.16683 6.17223L6.87561 9.3742C7.55433 9.83573 8.44613 9.83573 9.12485 9.3742L13.8335 6.17232ZM13.8259 4.56509C13.7773 4.24479 13.5007 3.99935 13.1668 3.99935L2.83349 3.99936C2.49965 3.99936 2.22311 4.24476 2.17443 4.56501L7.62535 8.27164C7.85159 8.42548 8.14886 8.42548 8.3751 8.27164L13.8259 4.56509Z" fill="white"></path>
  </symbol>

	<!-- !right -->
  <symbol xmlns="http://www.w3.org/2000/svg" viewBox="0 0 16 16" id="right">
    <path fill-rule="evenodd" clip-rule="evenodd" d="M9.86193 4.52925C10.1223 4.2689 10.5444 4.2689 10.8047 4.52925L13.8047 7.52925C14.0651 7.7896 14.0651 8.21171 13.8047 8.47206L10.8047 11.4721C10.5444 11.7324 10.1223 11.7324 9.86193 11.4721C9.60158 11.2117 9.60158 10.7896 9.86193 10.5292L11.7239 8.66732H2.66667C2.29848 8.66732 2 8.36884 2 8.00065C2 7.63246 2.29848 7.33398 2.66667 7.33398H11.7239L9.86193 5.47206C9.60158 5.21171 9.60158 4.7896 9.86193 4.52925Z"></path>
  </symbol>

		<!-- !left -->
	<symbol xmlns="http://www.w3.org/2000/svg" viewBox="0 0 24 24" id="left">
    <path fill-rule="evenodd" clip-rule="evenodd" d="M9.20711 17.2071C8.81658 17.5976 8.18342 17.5976 7.79289 17.2071L3.29289 12.7071C2.90237 12.3166 2.90237 11.6834 3.29289 11.2929L7.79289 6.79289C8.18342 6.40237 8.81658 6.40237 9.20711 6.79289C9.59763 7.18342 9.59763 7.81658 9.20711 8.20711L6.41421 11L20 11C20.5523 11 21 11.4477 21 12C21 12.5523 20.5523 13 20 13L6.41421 13L9.20711 15.7929C9.59763 16.1834 9.59763 16.8166 9.20711 17.2071Z"></path>
  </symbol>

	<!-- !telegram -->
  <symbol xmlns="http://www.w3.org/2000/svg" viewBox="0 0 22 20" id="telegram">
    <path d="M8.63262 13.1813L8.2687 18.7653C8.78938 18.7653 9.01488 18.5213 9.2853 18.2283L11.7264 15.6833L16.7847 19.7243C17.7124 20.2883 18.366 19.9913 18.6163 18.7933L21.9365 1.8214L21.9374 1.8204C22.2317 0.324404 21.4415 -0.260593 20.5377 0.106405L1.02135 8.25736C-0.310594 8.82136 -0.290427 9.63136 0.794932 9.99835L5.78447 11.6913L17.3742 3.78039C17.9196 3.38639 18.4155 3.60439 18.0076 3.99839L8.63262 13.1813Z"></path>
  </symbol>

	<!-- !youtube -->
  <symbol xmlns="http://www.w3.org/2000/svg" viewBox="0 0 24 24" id="youtube">
    <path fill-rule="evenodd" clip-rule="evenodd" d="M21.3903 4.11358C22.4182 4.39044 23.2288 5.20086 23.5055 6.22899C24.0197 8.10691 23.9999 12.0213 23.9999 12.0213C23.9999 12.0213 23.9999 15.9158 23.5057 17.7939C23.2288 18.8218 22.4184 19.6324 21.3903 19.9091C19.5122 20.4035 12 20.4035 12 20.4035C12 20.4035 4.50731 20.4035 2.60961 19.8895C1.58148 19.6127 0.771054 18.802 0.4942 17.7741C0 15.9158 0 12.0015 0 12.0015C0 12.0015 0 8.10691 0.4942 6.22899C0.770871 5.20104 1.60125 4.37066 2.60943 4.09399C4.48753 3.59961 11.9998 3.59961 11.9998 3.59961C11.9998 3.59961 19.5122 3.59961 21.3903 4.11358ZM15.8549 12.0016L9.60788 15.5996V8.40355L15.8549 12.0016Z"></path>
  </symbol>
	
	<!-- !logo-invert -->
		<symbol fill="none" xmlns="http://www.w3.org/2000/svg" viewBox="0 0 130 22" id="logo-invert">
    <g clip-path="url(#clip0_39377_2209)">
      <path d="M0 11.1008C0 5.00078 3.3 1.30078 8.7 1.30078C12.8 1.30078 16.1 3.80078 16.7 7.50078C16.8 7.90078 16.5 8.20078 16.1 8.20078H13.5C13.2 8.20078 13 8.00078 12.9 7.70078C12.4 5.80078 10.8 4.60078 8.7 4.60078C5.8 4.60078 4 7.10078 4 11.1008C4 15.1008 5.8 17.6008 8.8 17.6008C10.9 17.6008 12.4 16.5008 13 14.7008C13.1 14.4008 13.3 14.2008 13.6 14.2008H16.2C16.6 14.2008 16.9 14.6008 16.8 14.9008C16.2 18.5008 13 20.9008 8.8 20.9008C3.3 20.9008 0 17.1008 0 11.1008Z" fill="white"></path>
      <path d="M24.2997 20.401H21.3997C21.0997 20.401 20.8997 20.201 20.8997 19.901V2.60104C20.8997 2.20104 21.2997 1.80104 21.6997 1.80104H28.6997C32.7997 1.80104 35.2997 4.10104 35.2997 7.70104C35.2997 9.80104 34.2997 11.701 32.5997 12.701C32.1997 12.901 32.0997 13.401 32.2997 13.701L35.3997 19.601C35.5997 19.901 35.2997 20.301 34.9997 20.301H31.6997C31.4997 20.301 31.2997 20.201 31.1997 20.001L28.2997 14.001C28.1997 13.701 27.8997 13.601 27.5997 13.601H25.2997C24.9997 13.601 24.7997 13.801 24.7997 14.101V20.001C24.8997 20.201 24.5997 20.401 24.2997 20.401ZM24.8997 10.201C24.8997 10.501 25.0997 10.701 25.3997 10.701H28.3997C30.3997 10.701 31.4997 9.60104 31.4997 7.80104C31.4997 6.00104 30.2997 4.90104 28.3997 4.90104H25.4997C25.1997 4.90104 24.9997 5.10104 24.9997 5.40104V10.201H24.8997Z" fill="white"></path>
      <path d="M51.4998 20.401H40.4998C40.0998 20.401 39.7998 20.101 39.7998 19.701V2.50104C39.7998 2.10104 40.0998 1.80104 40.4998 1.80104H51.4998C51.8998 1.80104 52.1998 2.10104 52.1998 2.50104V4.40104C52.1998 4.80104 51.8998 5.10104 51.4998 5.10104H44.1998C43.8998 5.10104 43.6998 5.30104 43.6998 5.60104V9.00104C43.6998 9.30104 43.8998 9.50104 44.1998 9.50104H50.9998C51.3998 9.50104 51.6998 9.80104 51.6998 10.201V11.901C51.6998 12.301 51.3998 12.601 50.9998 12.601H44.1998C43.8998 12.601 43.6998 12.801 43.6998 13.101V16.901C43.6998 17.201 43.8998 17.401 44.1998 17.401H51.4998C51.8998 17.401 52.1998 17.701 52.1998 18.101V20.001C52.1998 20.101 51.8998 20.401 51.4998 20.401Z" fill="white"></path>
      <path d="M66.9999 15.901H61.2999C60.9999 15.901 60.7999 16.101 60.6999 16.301L59.5999 20.001C59.4999 20.301 59.2999 20.401 58.9999 20.401H56.3999C55.9999 20.401 55.6999 20.001 55.7999 19.601L61.7999 2.20104C61.8999 2.00104 62.0999 1.80104 62.3999 1.80104H66.0999C66.3999 1.80104 66.5999 2.00104 66.6999 2.20104L72.6999 19.601C72.7999 20.001 72.4999 20.401 72.0999 20.401H69.1999C68.8999 20.401 68.6999 20.201 68.5999 20.001L67.4999 16.301C67.4999 16.101 67.1999 15.901 66.9999 15.901ZM62.0999 13.001H66.1999C66.3999 13.001 66.4999 12.801 66.4999 12.601L64.2999 5.60104H64.0999L61.8999 12.601C61.7999 12.801 61.8999 13.001 62.0999 13.001Z" fill="white"></path>
      <path d="M79.0001 19.7014V5.50143C79.0001 5.20143 78.8001 5.00143 78.5001 5.00143H74.1001C73.7001 5.00143 73.3001 4.70143 73.3001 4.20143V2.50143C73.3001 2.10143 73.6001 1.70143 74.1001 1.70143H87.7001C88.1001 1.70143 88.5001 2.00143 88.5001 2.50143V4.20143C88.5001 4.60143 88.2001 5.00143 87.7001 5.00143H83.3001C83.0001 5.00143 82.8001 5.20143 82.8001 5.50143V19.8014C82.8001 20.2014 82.5001 20.5014 82.1001 20.5014H79.6001C79.3001 20.4014 79.0001 20.1014 79.0001 19.7014Z" fill="white"></path>
      <path d="M103.8 20.401H92.7999C92.3999 20.401 92.0999 20.101 92.0999 19.701V2.50104C92.0999 2.10104 92.3999 1.80104 92.7999 1.80104H103.8C104.2 1.80104 104.5 2.10104 104.5 2.50104V4.40104C104.5 4.80104 104.2 5.10104 103.8 5.10104H96.4999C96.1999 5.10104 95.9999 5.30104 95.9999 5.60104V9.00104C95.9999 9.30104 96.1999 9.50104 96.4999 9.50104H103.3C103.7 9.50104 104 9.80104 104 10.201V11.901C104 12.301 103.7 12.601 103.3 12.601H96.4999C96.1999 12.601 95.9999 12.801 95.9999 13.101V16.901C95.9999 17.201 96.1999 17.401 96.4999 17.401H103.8C104.2 17.401 104.5 17.701 104.5 18.101V20.001C104.5 20.101 104.2 20.401 103.8 20.401Z" fill="white"></path>
      <path d="M117.7 9.7L111.5 1.6C111.1 1.2 110.6 1 110.1 1C109.6 1 109.1 1.2 108.7 1.6C108 2.4 108 3.6 108.7 4.4L113.6 11L108.7 17.6C108 18.4 108 19.6 108.7 20.4C109.1 20.8 109.6 21 110.1 21C110.6 21 111.1 20.8 111.5 20.4L117.7 12.3C118.4 11.7 118.4 10.5 117.7 9.7Z" fill="#FF3F3A"></path>
      <path d="M120.343 9.7L126.543 1.6C126.943 1.2 127.443 1 127.943 1C128.443 1 128.943 1.2 129.343 1.6C130.043 2.4 130.043 3.6 129.343 4.4L124.443 11L129.343 17.6C130.043 18.4 130.043 19.6 129.343 20.4C128.943 20.8 128.443 21 127.943 21C127.443 21 126.943 20.8 126.543 20.4L120.343 12.3C119.643 11.7 119.643 10.5 120.343 9.7Z" fill="#FF3F3A"></path>
    </g>
    <defs>
      <clipPath id="clip0_39377_2209">
        <rect width="130" height="22" fill="white"></rect>
      </clipPath>
    </defs>
  </symbol>

	<!-- !error-input -->
  <symbol fill="none" xmlns="http://www.w3.org/2000/svg" viewBox="0 0 16 16" id="error-input">
    <path fill-rule="evenodd" clip-rule="evenodd" d="M8.00008 2.00033C4.68637 2.00033 2.00008 4.68662 2.00008 8.00033C2.00008 11.314 4.68637 14.0003 8.00008 14.0003C11.3138 14.0003 14.0001 11.314 14.0001 8.00033C14.0001 4.68662 11.3138 2.00033 8.00008 2.00033ZM0.666748 8.00033C0.666748 3.95024 3.94999 0.666992 8.00008 0.666992C12.0502 0.666992 15.3334 3.95024 15.3334 8.00033C15.3334 12.0504 12.0502 15.3337 8.00008 15.3337C3.94999 15.3337 0.666748 12.0504 0.666748 8.00033Z" fill="#FF4242"></path>
    <path d="M8.66675 10.667C8.66675 11.0352 8.36827 11.3337 8.00008 11.3337C7.63189 11.3337 7.33341 11.0352 7.33341 10.667C7.33341 10.2988 7.63189 10.0003 8.00008 10.0003C8.36827 10.0003 8.66675 10.2988 8.66675 10.667Z" fill="#FF4242"></path>
    <path fill-rule="evenodd" clip-rule="evenodd" d="M8.00008 9.08366C7.63189 9.08366 7.33341 8.78518 7.33341 8.41699V4.66699C7.33341 4.2988 7.63189 4.00033 8.00008 4.00033C8.36827 4.00033 8.66675 4.2988 8.66675 4.66699V8.41699C8.66675 8.78518 8.36827 9.08366 8.00008 9.08366Z" fill="#FF4242"></path>
  </symbol>

	<!-- !about-check -->
	<symbol fill="none" xmlns="http://www.w3.org/2000/svg" viewBox="0 0 16 16" id="about-check">
    <path d="M7.99984 15.3337C12.0432 15.3337 15.3332 12.044 15.3332 8.00033C15.3332 7.30238 15.2357 6.61458 15.0428 5.95588C14.9478 5.63197 14.6096 5.44592 14.2848 5.54096C13.9606 5.6357 13.7751 5.97512 13.8698 6.29903C14.0296 6.84629 14.1109 7.4189 14.1109 8.00033C14.1109 11.3699 11.3695 14.1114 7.99984 14.1114C4.63022 14.1114 1.88873 11.3699 1.88873 8.00033C1.88873 4.63071 4.63022 1.88921 7.99984 1.88921C9.22445 1.88921 10.4027 2.24729 11.4071 2.92449C11.6866 3.11323 12.0668 3.03908 12.2552 2.75948C12.4438 2.47959 12.3703 2.09973 12.0904 1.91115C10.8834 1.09728 9.46898 0.666992 7.99984 0.666992C3.95645 0.666992 0.666504 3.95664 0.666504 8.00033C0.666504 12.044 3.95645 15.3337 7.99984 15.3337Z" fill="#FF3F3A"></path>
    <path d="M14.8617 1.52885L7.99971 8.3905L5.8044 6.19552C5.54399 5.93526 5.12211 5.93526 4.86169 6.19552C4.60144 6.45593 4.60144 6.87781 4.86169 7.13822L7.52836 9.80489C7.65873 9.93526 7.82898 10.0002 7.99971 10.0002C8.17045 10.0002 8.3407 9.93526 8.47107 9.80489L15.8044 2.47156C16.0647 2.21114 16.0647 1.78927 15.8044 1.52885C15.544 1.2686 15.1221 1.2686 14.8617 1.52885Z" fill="#FF3F3A"></path>
  </symbol>
	
	<!-- !chat -->
	<symbol xmlns="http://www.w3.org/2000/svg" viewBox="0 0 16 16" id="chat">
    <path fill-rule="evenodd" clip-rule="evenodd" d="M14.6153 7.04557C14.5204 7.70339 14.2954 8.32861 13.9619 8.90355C13.9869 9.0459 13.9997 9.18978 13.9997 9.33429C13.9997 9.83617 13.8543 10.3165 13.5849 10.7529C13.4504 10.9707 13.4158 11.226 13.4025 11.3946C13.3873 11.5879 13.3924 11.7994 13.4062 12.0025C13.4217 12.2304 13.4497 12.4697 13.4818 12.6954C13.2216 12.6196 12.9395 12.5434 12.6704 12.4826C12.4465 12.4321 12.2174 12.3891 12.0099 12.3676C11.8289 12.349 11.5674 12.3345 11.3335 12.4101C10.8221 12.5754 10.2594 12.6676 9.66636 12.6676C8.96109 12.6676 8.31335 12.5424 7.74559 12.325C7.60903 12.3312 7.47146 12.3343 7.33301 12.3343C6.52993 12.3343 5.75701 12.2287 5.03385 12.0335C6.08516 13.2494 7.81828 14.001 9.66636 14.001C10.3883 14.001 11.0812 13.8901 11.7198 13.6864C11.7209 13.6865 11.723 13.6864 11.726 13.6864C11.7424 13.686 11.7879 13.6851 11.8729 13.6939C12.0067 13.7077 12.1786 13.7385 12.377 13.7833C12.7719 13.8724 13.2157 14.0038 13.5615 14.1136C14.2949 14.3464 15.0056 13.7064 14.8745 12.9621C14.8181 12.6418 14.7595 12.2508 14.7365 11.9122C14.7249 11.7419 14.7236 11.6021 14.7317 11.4995C14.7351 11.457 14.7394 11.4304 14.7421 11.4162C15.1172 10.7949 15.333 10.0874 15.333 9.33429C15.333 8.48526 15.0693 7.70995 14.6153 7.04557Z"></path>
    <path fill-rule="evenodd" clip-rule="evenodd" d="M3.73109 3.79943C2.83245 4.48662 2.33306 5.38871 2.33306 6.33398C2.33306 6.80534 2.45577 7.25932 2.68599 7.68147C2.77367 7.84226 2.79854 8.00812 2.80744 8.1204C2.81714 8.24283 2.8123 8.36867 2.80166 8.48633C2.78034 8.72191 2.72949 8.98884 2.66849 9.25174C2.59715 9.55927 2.50572 9.88724 2.41296 10.1952C2.76512 10.0672 3.15003 9.93601 3.51493 9.82956C3.80985 9.74352 4.10767 9.66886 4.37274 9.62695C4.60108 9.59084 4.93243 9.55536 5.2177 9.65405C5.85792 9.87555 6.57411 10.0007 7.33306 10.0007C8.76451 10.0007 10.0358 9.55621 10.935 8.86854C11.8337 8.18135 12.3331 7.27926 12.3331 6.33398C12.3331 5.38871 11.8337 4.48662 10.935 3.79943C10.0358 3.11176 8.76451 2.66732 7.33306 2.66732C5.90162 2.66732 4.63034 3.11176 3.73109 3.79943ZM2.92116 2.74028C4.07283 1.85959 5.6349 1.33398 7.33306 1.33398C9.03123 1.33398 10.5933 1.85959 11.745 2.74028C12.8973 3.62145 13.6664 4.88602 13.6664 6.33398C13.6664 7.78194 12.8973 9.04652 11.745 9.92769C10.5933 10.8084 9.03123 11.334 7.33306 11.334C6.43769 11.334 5.58244 11.188 4.80591 10.9224C4.80513 10.9246 4.74215 10.9184 4.58098 10.9439C4.39521 10.9733 4.15809 11.0308 3.88836 11.1095C3.35138 11.2662 2.74835 11.4878 2.28902 11.6666C1.49327 11.9763 0.682633 11.212 0.95074 10.3979C1.09284 9.96647 1.26043 9.42121 1.36966 8.95041C1.42468 8.71324 1.46039 8.51385 1.47375 8.36618C1.47839 8.31492 1.47958 8.27756 1.47932 8.2523C1.17246 7.66592 0.99973 7.01748 0.99973 6.33398C0.99973 4.88602 1.76887 3.62145 2.92116 2.74028Z"></path>
  </symbol>

	<!-- !layouts -->
  <symbol xmlns="http://www.w3.org/2000/svg" viewBox="0 0 16 16" id="layouts">
    <g clip-path="url(#clip0_39409_1401)">
      <path fill-rule="evenodd" clip-rule="evenodd" d="M7.70184 0.736398C7.88953 0.642555 8.11044 0.642555 8.29813 0.736398L14.9648 4.06973C15.1906 4.18266 15.3333 4.4135 15.3333 4.66602C15.3333 4.91853 15.1906 5.14937 14.9648 5.2623L8.29813 8.59563C8.11044 8.68948 7.88953 8.68948 7.70184 8.59563L1.03517 5.2623C0.809318 5.14937 0.66665 4.91853 0.66665 4.66602C0.66665 4.4135 0.809318 4.18266 1.03517 4.06973L7.70184 0.736398ZM2.82403 4.66602L7.99998 7.25399L13.1759 4.66602L7.99998 2.07804L2.82403 4.66602Z"></path>
      <path fill-rule="evenodd" clip-rule="evenodd" d="M0.737032 7.70121C0.901691 7.37189 1.30214 7.2384 1.63146 7.40306L7.99998 10.5873L14.3685 7.40306C14.6978 7.2384 15.0983 7.37189 15.2629 7.70121C15.4276 8.03052 15.2941 8.43097 14.9648 8.59563L8.29813 11.929C8.11044 12.0228 7.88953 12.0228 7.70184 11.929L1.03517 8.59563C0.705855 8.43097 0.572372 8.03052 0.737032 7.70121Z"></path>
      <path fill-rule="evenodd" clip-rule="evenodd" d="M0.737032 11.0345C0.901691 10.7052 1.30214 10.5717 1.63146 10.7364L7.99998 13.9207L14.3685 10.7364C14.6978 10.5717 15.0983 10.7052 15.2629 11.0345C15.4276 11.3639 15.2941 11.7643 14.9648 11.929L8.29813 15.2623C8.11044 15.3561 7.88953 15.3561 7.70184 15.2623L1.03517 11.929C0.705855 11.7643 0.572372 11.3639 0.737032 11.0345Z"></path>
    </g>
    <defs>
      <clipPath id="clip0_39409_1401">
        <rect width="16" height="16"></rect>
      </clipPath>
    </defs>
  </symbol>

	<!-- !like -->
  <symbol xmlns="http://www.w3.org/2000/svg" viewBox="0 0 16 16" id="like">
    <g clip-path="url(#clip0_39409_1397)">
      <path fill-rule="evenodd" clip-rule="evenodd" d="M9.4547 2.16732C9.36168 2.16732 9.27547 2.21676 9.22843 2.29736L9.22433 2.30438L6.16683 7.26115V13.834H11.8907C12.0135 13.834 12.1198 13.7487 12.1464 13.629L12.1487 13.6186L13.8487 6.97883C13.8798 6.8179 13.7565 6.66732 13.5915 6.66732H11.0002C10.566 6.66732 10.1268 6.52228 9.80696 6.21014C9.47075 5.88199 9.31488 5.41203 9.41491 4.90572L9.89414 2.48001C9.92614 2.31806 9.80219 2.16732 9.63725 2.16732H9.4547ZM4.8335 13.834V7.73875H2.47118C2.32739 7.73875 2.2104 7.85476 2.20929 7.99872C2.20929 7.99872 2.20929 7.99872 2.20929 7.99872L2.16684 13.5701C2.16572 13.7154 2.28327 13.834 2.42868 13.834H4.8335ZM5.12809 6.40541L8.08155 1.61731C8.36843 1.13222 8.89032 0.833984 9.4547 0.833984H9.63725C10.6424 0.833984 11.397 1.75237 11.2022 2.73844L10.723 5.16415C10.7144 5.20732 10.72 5.22693 10.7213 5.23124C10.7228 5.23604 10.726 5.24402 10.7383 5.25596C10.7661 5.28317 10.8492 5.33398 11.0002 5.33398H13.5915C14.6121 5.33398 15.3701 6.27923 15.1487 7.27539L15.1464 7.28579L13.4453 13.93C13.2788 14.6537 12.6343 15.1673 11.8907 15.1673H2.42868C1.54298 15.1673 0.826756 14.4457 0.833544 13.56C0.833544 13.56 0.833544 13.56 0.833544 13.56L0.875993 7.98854C0.88271 7.11235 1.59485 6.40541 2.47118 6.40541H5.12809Z"></path>
    </g>
    <defs>
      <clipPath id="clip0_39409_1397">
        <rect width="16" height="16"></rect>
      </clipPath>
    </defs>
  </symbol>

	<!-- !star -->
  <symbol xmlns="http://www.w3.org/2000/svg" viewBox="0 0 16 16" id="star">
    <path fill-rule="evenodd" clip-rule="evenodd" d="M6.77932 1.46709C7.24248 0.398992 8.75719 0.39899 9.22036 1.46709L10.6214 4.69809L14.1273 5.03216C15.2862 5.14259 15.7543 6.58317 14.8816 7.35373L12.2417 9.68466L13.0073 13.1221C13.2604 14.2585 12.035 15.1488 11.0325 14.5569L7.99984 12.7665L4.96721 14.5569C3.96469 15.1488 2.73926 14.2585 2.99236 13.1221L3.75801 9.68466L1.11809 7.35373C0.245398 6.58317 0.71347 5.14259 1.87242 5.03216L5.37824 4.69809L6.77932 1.46709ZM9.40091 5.22735L7.99984 1.99635L6.59876 5.22735C6.406 5.67189 5.98678 5.97647 5.50444 6.02243L1.99861 6.35649L4.63852 8.68743C5.00174 9.00813 5.16186 9.50095 5.05652 9.97389L4.29088 13.4114L7.32351 11.621C7.74075 11.3746 8.25893 11.3746 8.67617 11.621L11.7088 13.4114L10.9432 9.97389C10.8378 9.50095 10.9979 9.00813 11.3612 8.68743L14.0011 6.35649L10.4952 6.02243C10.0129 5.97647 9.59368 5.67189 9.40091 5.22735Z"></path>
  </symbol>

	<!-- !braces -->
	<symbol fill="none" xmlns="http://www.w3.org/2000/svg" viewBox="0 0 28 20" id="braces">
    <path d="M18 8.92534C18 8.63119 18.1295 8.35196 18.3541 8.16195L28 0V19C28 19.5523 27.5523 20 27 20H19C18.4477 20 18 19.5523 18 19V8.92534Z" fill="#FF3F3A"></path>
    <path d="M0 8.92534C0 8.63119 0.129507 8.35196 0.354058 8.16195L10 0V19C10 19.5523 9.55228 20 9 20H1C0.447715 20 0 19.5523 0 19V8.92534Z" fill="#FF3F3A"></path>
  </symbol>

	<!-- !calendar -->
	<symbol fill="none" xmlns="http://www.w3.org/2000/svg" viewBox="0 0 16 17" id="calendar">
    <path fill-rule="evenodd" clip-rule="evenodd" d="M5.00016 1.33398C5.36835 1.33398 5.66683 1.63246 5.66683 2.00065V2.33399L10.3335 2.334V2.00065C10.3335 1.63246 10.632 1.33398 11.0002 1.33398C11.3684 1.33398 11.6668 1.63246 11.6668 2.00065V2.334L12.5002 2.33401C13.9729 2.33401 15.1668 3.52792 15.1668 5.00067V13.0006C15.1668 14.4734 13.9729 15.6673 12.5002 15.6673L3.50016 15.6673C2.0274 15.6673 0.833496 14.4734 0.833496 13.0007L0.833496 6.50078L0.833496 5.00065C0.833496 3.52789 2.02741 2.33398 3.50017 2.33399L4.3335 2.33399V2.00065C4.3335 1.63246 4.63197 1.33398 5.00016 1.33398ZM4.3335 3.66732L3.50017 3.66732C2.76378 3.66732 2.16683 4.26427 2.16683 5.00065V5.83398H13.8335V5.00067C13.8335 4.26429 13.2365 3.66734 12.5002 3.66734L11.6668 3.66734V4.00065C11.6668 4.36884 11.3684 4.66732 11.0002 4.66732C10.632 4.66732 10.3335 4.36884 10.3335 4.00065V3.66734L5.66683 3.66733V4.00065C5.66683 4.36884 5.36835 4.66732 5.00016 4.66732C4.63197 4.66732 4.3335 4.36884 4.3335 4.00065V3.66732ZM13.8335 7.16732H2.16683L2.16683 13.0007C2.16683 13.737 2.76378 14.334 3.50016 14.334L12.5002 14.334C13.2365 14.334 13.8335 13.737 13.8335 13.0006V7.16732Z" fill="#787A80"></path>
  </symbol>

	<!-- !clock -->
  <symbol fill="none" xmlns="http://www.w3.org/2000/svg" viewBox="0 0 16 17" id="clock">
    <path d="M8.6665 4.83268C8.6665 4.46449 8.36803 4.16602 7.99984 4.16602C7.63165 4.16602 7.33317 4.46449 7.33317 4.83268V8.49935C7.33317 8.67616 7.40341 8.84573 7.52843 8.97075L9.52843 10.9708C9.78878 11.2311 10.2109 11.2311 10.4712 10.9708C10.7316 10.7104 10.7316 10.2883 10.4712 10.0279L8.6665 8.22321V4.83268Z" fill="#787A80"></path>
    <path fill-rule="evenodd" clip-rule="evenodd" d="M7.99984 1.16602C3.94975 1.16602 0.666504 4.44926 0.666504 8.49935C0.666504 12.5494 3.94975 15.8327 7.99984 15.8327C12.0499 15.8327 15.3332 12.5494 15.3332 8.49935C15.3332 4.44926 12.0499 1.16602 7.99984 1.16602ZM1.99984 8.49935C1.99984 5.18564 4.68613 2.49935 7.99984 2.49935C11.3135 2.49935 13.9998 5.18564 13.9998 8.49935C13.9998 11.8131 11.3135 14.4993 7.99984 14.4993C4.68613 14.4993 1.99984 11.8131 1.99984 8.49935Z" fill="#787A80"></path>
  </symbol>

	<!-- !files -->
  <symbol xmlns="http://www.w3.org/2000/svg" viewBox="0 0 16 17" id="files">
    <path fill-rule="evenodd" clip-rule="evenodd" d="M5.3335 9.50065C5.3335 9.13246 5.63197 8.83398 6.00016 8.83398H10.0002C10.3684 8.83398 10.6668 9.13246 10.6668 9.50065C10.6668 9.86884 10.3684 10.1673 10.0002 10.1673H6.00016C5.63197 10.1673 5.3335 9.86884 5.3335 9.50065Z"></path>
    <path fill-rule="evenodd" clip-rule="evenodd" d="M5.3335 12.0007C5.3335 11.6325 5.63197 11.334 6.00016 11.334H8.00016C8.36835 11.334 8.66683 11.6325 8.66683 12.0007C8.66683 12.3688 8.36835 12.6673 8.00016 12.6673H6.00016C5.63197 12.6673 5.3335 12.3688 5.3335 12.0007Z"></path>
    <path fill-rule="evenodd" clip-rule="evenodd" d="M6.02877 1.52925C6.1538 1.40422 6.32337 1.33398 6.50018 1.33398H11.0002C12.4729 1.33398 13.6668 2.52789 13.6668 4.00065L13.6668 13.0007C13.6668 14.4734 12.4729 15.6673 11.0002 15.6673H5.00016C3.5274 15.6673 2.33349 14.4734 2.3335 13.0006L2.33351 5.50065C2.33351 5.32384 2.40375 5.15427 2.52877 5.02925L6.02877 1.52925ZM6.33349 3.11015V5.33398H4.10965L6.33349 3.11015ZM3.66684 6.66732L3.66683 13.0006C3.66683 13.737 4.26378 14.334 5.00016 14.334H11.0002C11.7366 14.334 12.3335 13.737 12.3335 13.0007L12.3335 4.00065C12.3335 3.26427 11.7366 2.66732 11.0002 2.66732H7.66682V6.00065C7.66682 6.36884 7.36835 6.66732 7.00016 6.66732H3.66684Z"></path>
  </symbol>

	<!-- !micro -->
  <symbol xmlns="http://www.w3.org/2000/svg" viewBox="0 0 16 17" id="micro">
    <g clip-path="url(#clip0_39439_1128)">
      <path fill-rule="evenodd" clip-rule="evenodd" d="M4.13333 4.76706C4.13333 2.63156 5.8645 0.900391 8 0.900391C10.1355 0.900391 11.8667 2.63156 11.8667 4.76706V7.96706C11.8667 10.1026 10.1355 11.8337 8 11.8337C5.8645 11.8337 4.13333 10.1026 4.13333 7.96706V4.76706ZM8 2.23372C6.60088 2.23372 5.46667 3.36794 5.46667 4.76706V7.96706C5.46667 9.36618 6.60088 10.5004 8 10.5004C9.39912 10.5004 10.5333 9.36618 10.5333 7.96706V4.76706C10.5333 3.36794 9.39912 2.23372 8 2.23372Z"></path>
      <path fill-rule="evenodd" clip-rule="evenodd" d="M2.66667 6.23372C3.03486 6.23372 3.33333 6.5322 3.33333 6.90039V7.96706C3.33333 10.5444 5.42267 12.6337 8 12.6337C10.5773 12.6337 12.6667 10.5444 12.6667 7.96706V6.90039C12.6667 6.5322 12.9651 6.23372 13.3333 6.23372C13.7015 6.23372 14 6.5322 14 6.90039V7.96706C14 11.2808 11.3137 13.9671 8 13.9671C4.68629 13.9671 2 11.2808 2 7.96706V6.90039C2 6.5322 2.29848 6.23372 2.66667 6.23372Z"></path>
      <path fill-rule="evenodd" clip-rule="evenodd" d="M8 13.1671C8.36819 13.1671 8.66667 13.4655 8.66667 13.8337V14.7671H10.1333C10.5015 14.7671 10.8 15.0655 10.8 15.4337C10.8 15.8019 10.5015 16.1004 10.1333 16.1004H5.86667C5.49848 16.1004 5.2 15.8019 5.2 15.4337C5.2 15.0655 5.49848 14.7671 5.86667 14.7671H7.33333V13.8337C7.33333 13.4655 7.63181 13.1671 8 13.1671Z"></path>
    </g>
    <defs>
      <clipPath id="clip0_39439_1128">
        <rect width="16" height="16" transform="translate(0 0.5)"></rect>
      </clipPath>
    </defs>
  </symbol>

	<!-- !play-blog -->
  <symbol xmlns="http://www.w3.org/2000/svg" viewBox="0 0 16 17" id="play-blog">
    <path fill-rule="evenodd" clip-rule="evenodd" d="M10.7117 7.44002C11.4099 7.97368 11.4099 9.02507 10.7117 9.55873L7.65841 11.8923C6.78101 12.5629 5.51541 11.9373 5.51541 10.833V6.16575C5.51541 5.06144 6.78101 4.43581 7.65841 5.1064L10.7117 7.44002ZM9.90204 8.49938L6.84875 6.16575L6.84875 10.833L9.90204 8.49938Z"></path>
    <path fill-rule="evenodd" clip-rule="evenodd" d="M7.99984 2.49935C4.68613 2.49935 1.99984 5.18564 1.99984 8.49935C1.99984 11.8131 4.68613 14.4993 7.99984 14.4993C11.3135 14.4993 13.9998 11.8131 13.9998 8.49935C13.9998 5.18564 11.3135 2.49935 7.99984 2.49935ZM0.666504 8.49935C0.666504 4.44926 3.94975 1.16602 7.99984 1.16602C12.0499 1.16602 15.3332 4.44926 15.3332 8.49935C15.3332 12.5494 12.0499 15.8327 7.99984 15.8327C3.94975 15.8327 0.666504 12.5494 0.666504 8.49935Z"></path>
  </symbol>

		<!-- !success-input -->
	<symbol fill="none" xmlns="http://www.w3.org/2000/svg" viewBox="0 0 14 10" id="success-input">
    <path fill-rule="evenodd" clip-rule="evenodd" d="M13.4715 0.52827C13.7318 0.788619 13.7318 1.21073 13.4715 1.47108L5.47149 9.47108C5.21114 9.73143 4.78903 9.73143 4.52868 9.47108L0.528676 5.47108C0.268327 5.21073 0.268327 4.78862 0.528676 4.52827C0.789027 4.26792 1.21114 4.26792 1.47149 4.52827L5.00008 8.05687L12.5287 0.52827C12.789 0.26792 13.2111 0.26792 13.4715 0.52827Z" fill="#03CEA4"></path>
  </symbol>

	<!-- !check -->
	<symbol fill="none" xmlns="http://www.w3.org/2000/svg" viewBox="0 0 10 9" id="check">
    <path fill-rule="evenodd" clip-rule="evenodd" d="M9.82771 0.695262C10.0574 0.955612 10.0574 1.37772 9.82771 1.63807L3.94536 8.30474C3.71564 8.56509 3.34319 8.56509 3.11347 8.30474L0.17229 4.9714C-0.05743 4.71105 -0.05743 4.28894 0.17229 4.0286C0.40201 3.76825 0.77446 3.76825 1.00418 4.0286L3.52941 6.89052L8.99582 0.695262C9.22554 0.434913 9.59799 0.434913 9.82771 0.695262Z" fill="white"></path>
  </symbol>

	<!-- !search -->
	<symbol xmlns="http://www.w3.org/2000/svg" viewBox="0 0 16 16" id="search">
    <g clip-path="url(#clip0_39495_623)">
      <path fill-rule="evenodd" clip-rule="evenodd" d="M7.25016 2.16634C4.44272 2.16634 2.16683 4.44223 2.16683 7.24967C2.16683 10.0571 4.44272 12.333 7.25016 12.333C8.65276 12.333 9.92161 11.7658 10.842 10.8467C11.7642 9.92589 12.3335 8.6549 12.3335 7.24967C12.3335 4.44223 10.0576 2.16634 7.25016 2.16634ZM0.833496 7.24967C0.833496 3.70585 3.70634 0.833008 7.25016 0.833008C10.794 0.833008 13.6668 3.70585 13.6668 7.24967C13.6668 8.78248 13.1287 10.1905 12.2321 11.2939L14.9711 14.0278C15.2317 14.2879 15.2321 14.7101 14.972 14.9706C14.7119 15.2312 14.2898 15.2316 14.0292 14.9715L11.2888 12.2362C10.1863 13.13 8.78039 13.6663 7.25016 13.6663C3.70634 13.6663 0.833496 10.7935 0.833496 7.24967Z"></path>
    </g>
    <defs>
      <clipPath id="clip0_39495_623">
        <rect width="16" height="16"></rect>
      </clipPath>
    </defs>
  </symbol>

	<!-- !convert -->
	<symbol fill="none" xmlns="http://www.w3.org/2000/svg" viewBox="0 0 24 24" id="convert">
    <path fill-rule="evenodd" clip-rule="evenodd" d="M2.09961 2C2.65189 2 3.09961 2.44772 3.09961 3V7.43632C4.75764 4.20928 8.11959 2 11.9996 2C16.3552 2 20.058 4.78413 21.4303 8.66675C21.6144 9.18747 21.3414 9.75879 20.8207 9.94284C20.3 10.1269 19.7287 9.85396 19.5446 9.33325C18.4459 6.22472 15.4813 4 11.9996 4C9.03957 4 6.45326 5.60799 5.06955 8H8.09957C8.65186 8 9.09957 8.44772 9.09957 9C9.09957 9.55228 8.65186 10 8.09957 10H2.09961C1.54732 10 1.09961 9.55228 1.09961 9V3C1.09961 2.44772 1.54732 2 2.09961 2Z" fill="#424551"></path>
    <path fill-rule="evenodd" clip-rule="evenodd" d="M3.17664 14.0572C3.69736 13.8731 4.26868 14.146 4.45273 14.6668C5.55144 17.7753 8.51608 20 11.9978 20C14.9578 20 17.5441 18.392 18.9278 16H15.8978C15.3455 16 14.8978 15.5523 14.8978 15C14.8978 14.4477 15.3455 14 15.8978 14H21.8977C22.45 14 22.8977 14.4477 22.8977 15V21C22.8977 21.5523 22.45 22 21.8977 22C21.3455 22 20.8977 21.5523 20.8977 21V16.5637C19.2397 19.7907 15.8778 22 11.9978 22C7.64215 22 3.93936 19.2159 2.56705 15.3332C2.383 14.8125 2.65593 14.2412 3.17664 14.0572Z" fill="#424551"></path>
  </symbol>

	<!-- !outline -->
	<symbol fill="none" xmlns="http://www.w3.org/2000/svg" viewBox="0 0 24 24" id="outline">
    <path fill-rule="evenodd" clip-rule="evenodd" d="M12 7.75C10.8954 7.75 10 8.64543 10 9.75C10 10.8546 10.8954 11.75 12 11.75C13.1046 11.75 14 10.8546 14 9.75C14 8.64543 13.1046 7.75 12 7.75ZM8 9.75C8 7.54086 9.79086 5.75 12 5.75C14.2091 5.75 16 7.54086 16 9.75C16 11.9591 14.2091 13.75 12 13.75C9.79086 13.75 8 11.9591 8 9.75Z" fill="#FF3F3A"></path>
    <path fill-rule="evenodd" clip-rule="evenodd" d="M12 3.25C8.38046 3.25 5.5 6.08606 5.5 9.51923C5.5 12.318 7.18201 15.1448 9.02064 17.3682C9.92325 18.4597 10.8284 19.3639 11.5085 19.9951C11.6904 20.164 11.8557 20.3129 12 20.4402C12.1443 20.3129 12.3096 20.164 12.4915 19.9951C13.1716 19.3639 14.0768 18.4597 14.9794 17.3682C16.818 15.1448 18.5 12.318 18.5 9.51923C18.5 6.08606 15.6195 3.25 12 3.25ZM12 21.75C11.3812 22.5355 11.3809 22.5353 11.3807 22.5351L11.3782 22.5332L11.3725 22.5287L11.3531 22.5132C11.3367 22.5 11.3134 22.4812 11.2836 22.4569C11.224 22.4083 11.1386 22.3377 11.031 22.2465C10.8158 22.064 10.5115 21.7986 10.1478 21.4609C9.42158 20.7868 8.45175 19.8187 7.47936 18.6428C5.56799 16.3314 3.5 13.0428 3.5 9.51923C3.5 4.92303 7.33527 1.25 12 1.25C16.6647 1.25 20.5 4.92303 20.5 9.51923C20.5 13.0428 18.432 16.3314 16.5206 18.6428C15.5482 19.8187 14.5784 20.7868 13.8522 21.4609C13.4885 21.7986 13.1842 22.064 12.969 22.2465C12.8614 22.3377 12.776 22.4083 12.7164 22.4569C12.6866 22.4812 12.6633 22.5 12.6469 22.5132L12.6275 22.5287L12.6218 22.5332L12.62 22.5346C12.6197 22.5348 12.6188 22.5355 12 21.75ZM12 21.75L12.6188 22.5355C12.2558 22.8215 11.7437 22.8211 11.3807 22.5351L12 21.75Z" fill="#FF3F3A"></path>
  </symbol>

	<!-- !phone -->
  <symbol fill="none" xmlns="http://www.w3.org/2000/svg" viewBox="0 0 24 24" id="phone">
    <path fill-rule="evenodd" clip-rule="evenodd" d="M8.5 2.92188C7.67157 2.92188 7 3.59345 7 4.42188V19.5781C7 20.4066 7.67157 21.0781 8.5 21.0781H15.5C16.3284 21.0781 17 20.4066 17 19.5781V4.42188C17 3.59345 16.3284 2.92188 15.5 2.92188H15.4166L15.1731 3.50633C15.0178 3.87894 14.6537 4.12165 14.25 4.12165H9.75C9.34632 4.12165 8.98223 3.87894 8.82695 3.50633L8.58338 2.92188H8.5ZM5 4.42188C5 2.48888 6.567 0.921875 8.5 0.921875H15.5C17.433 0.921875 19 2.48888 19 4.42188V19.5781C19 21.5111 17.433 23.0781 15.5 23.0781H8.5C6.567 23.0781 5 21.5111 5 19.5781V4.42188Z" fill="#FF3F3A"></path>
  </symbol>

	<!-- !behance -->
	<symbol xmlns="http://www.w3.org/2000/svg" viewBox="0 0 24 24" id="behance">
    <g clip-path="url(#clip0_2492_17701)">
      <path d="M12.3652 15.1437C12.3652 13.1724 11.486 11.7153 9.66971 11.1692C10.9949 10.4961 11.6861 9.47637 11.6861 7.8902C11.6861 4.76268 9.49368 4 6.96423 4H0V19.7027H7.15926C9.84374 19.7027 12.3652 18.3341 12.3652 15.1437ZM3.24657 6.68058H6.29311C7.46432 6.68058 8.51851 7.03045 8.51851 8.47475C8.51851 9.8081 7.69836 10.3446 6.53816 10.3446H3.24657V6.68058ZM3.24557 17.036V12.7116H6.7842C8.21345 12.7116 9.11761 13.3452 9.11761 14.9538C9.11761 16.54 8.03842 17.036 6.71719 17.036H3.24557Z"></path>
      <path d="M18.7993 20C21.3537 20 23.008 18.7765 23.8041 16.1759H21.2117C20.9326 17.1466 19.7824 17.6597 18.8903 17.6597C17.169 17.6597 16.2648 16.5877 16.2648 14.7658H23.9792C24.2232 11.1198 22.3189 8.01257 18.7983 8.01257C15.5387 8.01257 13.3263 10.6174 13.3263 14.0297C13.3263 17.5711 15.4227 20 18.7993 20ZM18.7073 10.3721C20.1825 10.3721 20.9246 11.2937 21.0487 12.8009H16.2688C16.3658 11.3065 17.299 10.3721 18.7073 10.3721Z"></path>
      <path d="M15.6701 4.82507H21.6591V6.37177H15.6701V4.82507Z"></path>
    </g>
    <defs>
      <clipPath id="clip0_2492_17701">
        <rect width="24" height="24" fill="white"></rect>
      </clipPath>
    </defs>
  </symbol>

	<!-- !play-curator -->
  <symbol xmlns="http://www.w3.org/2000/svg" viewBox="0 0 16 16" id="play-curator">
    <g clip-path="url(#clip0_2492_17713)">
      <path fill-rule="evenodd" clip-rule="evenodd" d="M10.7119 6.941C11.4102 7.47465 11.4102 8.52605 10.7119 9.0597L7.65865 11.3933C6.78126 12.0639 5.51566 11.4383 5.51566 10.334V5.66673C5.51566 4.56241 6.78126 3.93678 7.65865 4.60738L10.7119 6.941ZM9.90228 8.00035L6.84899 5.66673L6.84899 10.334L9.90228 8.00035Z"></path>
      <path fill-rule="evenodd" clip-rule="evenodd" d="M8.00008 2.00033C4.68637 2.00033 2.00008 4.68662 2.00008 8.00033C2.00008 11.314 4.68637 14.0003 8.00008 14.0003C11.3138 14.0003 14.0001 11.314 14.0001 8.00033C14.0001 4.68662 11.3138 2.00033 8.00008 2.00033ZM0.666748 8.00033C0.666748 3.95024 3.94999 0.666992 8.00008 0.666992C12.0502 0.666992 15.3334 3.95024 15.3334 8.00033C15.3334 12.0504 12.0502 15.3337 8.00008 15.3337C3.94999 15.3337 0.666748 12.0504 0.666748 8.00033Z"></path>
    </g>
    <defs>
      <clipPath id="clip0_2492_17713">
        <rect width="16" height="16"></rect>
      </clipPath>
    </defs>
  </symbol>

	<!-- !minus -->
	<symbol xmlns="http://www.w3.org/2000/svg" viewBox="0 0 20 20" id="minus">
    <path fill-rule="evenodd" clip-rule="evenodd" d="M0.833252 9.99935C0.833252 9.53911 1.20635 9.16602 1.66659 9.16602V9.99935V10.8327C1.20635 10.8327 0.833252 10.4596 0.833252 9.99935ZM18.3333 9.99935L18.3332 10.8327H1.66659V9.99935V9.16602H18.3327L18.3333 9.99935ZM18.3333 9.99935L18.3332 10.8327C18.7934 10.8327 19.1666 10.4596 19.1666 9.99935C19.1666 9.53911 18.793 9.16602 18.3327 9.16602L18.3333 9.99935Z"></path>
  </symbol>

	<!-- !plus -->
  <symbol xmlns="http://www.w3.org/2000/svg" viewBox="0 0 20 20" id="plus">
    <g clip-path="url(#clip0_2492_17836)">
      <path fill-rule="evenodd" clip-rule="evenodd" d="M9.99992 0.833984C10.4602 0.833984 10.8333 1.20708 10.8333 1.66732V9.16732H18.3333C18.7935 9.16732 19.1666 9.54041 19.1666 10.0007C19.1666 10.4609 18.7935 10.834 18.3333 10.834H10.8333V18.334C10.8333 18.7942 10.4602 19.1673 9.99992 19.1673C9.53968 19.1673 9.16658 18.7942 9.16658 18.334V10.834H1.66659C1.20635 10.834 0.833252 10.4609 0.833252 10.0007C0.833252 9.54041 1.20635 9.16732 1.66659 9.16732H9.16658V1.66732C9.16658 1.20708 9.53968 0.833984 9.99992 0.833984Z"></path>
    </g>
    <defs>
      <clipPath id="clip0_2492_17836">
        <rect width="20" height="20"></rect>
      </clipPath>
    </defs>
  </symbol>

	<!-- !grid -->
	<symbol xmlns="http://www.w3.org/2000/svg" viewBox="0 0 20 20" id="grid">
    <g clip-path="url(#clip0_2313_4737)">
      <path fill-rule="evenodd" clip-rule="evenodd" d="M0.833333 2.91634C0.833333 1.76575 1.76607 0.833008 2.91667 0.833008H7.08333C8.23393 0.833008 9.16667 1.76575 9.16667 2.91634V7.08301C9.16667 8.2336 8.23393 9.16634 7.08333 9.16634H2.91667C1.76607 9.16634 0.833333 8.2336 0.833333 7.08301V2.91634ZM2.91667 2.49967C2.68655 2.49967 2.5 2.68622 2.5 2.91634V7.08301C2.5 7.31313 2.68655 7.49967 2.91667 7.49967H7.08333C7.31345 7.49967 7.5 7.31313 7.5 7.08301V2.91634C7.5 2.68622 7.31345 2.49967 7.08333 2.49967H2.91667Z"></path>
      <path fill-rule="evenodd" clip-rule="evenodd" d="M0.833333 12.9163C0.833333 11.7657 1.76607 10.833 2.91667 10.833H7.08333C8.23393 10.833 9.16667 11.7657 9.16667 12.9163V17.083C9.16667 18.2336 8.23393 19.1663 7.08333 19.1663H2.91667C1.76607 19.1663 0.833333 18.2336 0.833333 17.083V12.9163ZM2.91667 12.4997C2.68655 12.4997 2.5 12.6862 2.5 12.9163V17.083C2.5 17.3131 2.68655 17.4997 2.91667 17.4997H7.08333C7.31345 17.4997 7.5 17.3131 7.5 17.083V12.9163C7.5 12.6862 7.31345 12.4997 7.08333 12.4997H2.91667Z"></path>
      <path fill-rule="evenodd" clip-rule="evenodd" d="M10.8333 2.91634C10.8333 1.76575 11.7661 0.833008 12.9167 0.833008H17.0833C18.2339 0.833008 19.1667 1.76575 19.1667 2.91634V7.08301C19.1667 8.2336 18.2339 9.16634 17.0833 9.16634H12.9167C11.7661 9.16634 10.8333 8.2336 10.8333 7.08301V2.91634ZM12.9167 2.49967C12.6865 2.49967 12.5 2.68622 12.5 2.91634V7.08301C12.5 7.31313 12.6865 7.49967 12.9167 7.49967H17.0833C17.3134 7.49967 17.5 7.31313 17.5 7.08301V2.91634C17.5 2.68622 17.3134 2.49967 17.0833 2.49967H12.9167Z"></path>
      <path fill-rule="evenodd" clip-rule="evenodd" d="M10.8333 12.9163C10.8333 11.7657 11.7661 10.833 12.9167 10.833H17.0833C18.2339 10.833 19.1667 11.7657 19.1667 12.9163V17.083C19.1667 18.2336 18.2339 19.1663 17.0833 19.1663H12.9167C11.7661 19.1663 10.8333 18.2336 10.8333 17.083V12.9163ZM12.9167 12.4997C12.6865 12.4997 12.5 12.6862 12.5 12.9163V17.083C12.5 17.3131 12.6865 17.4997 12.9167 17.4997H17.0833C17.3134 17.4997 17.5 17.3131 17.5 17.083V12.9163C17.5 12.6862 17.3134 12.4997 17.0833 12.4997H12.9167Z"></path>
    </g>
    <defs>
      <clipPath id="clip0_2313_4737">
        <rect width="20" height="20"></rect>
      </clipPath>
    </defs>
  </symbol>

	<!-- !list -->
  <symbol xmlns="http://www.w3.org/2000/svg" viewBox="0 0 20 20" id="list">
    <g clip-path="url(#clip0_2313_4736)">
      <path fill-rule="evenodd" clip-rule="evenodd" d="M0.833334 2.91634C0.833334 1.76575 1.76607 0.833008 2.91667 0.833008H17.0833C18.2339 0.833008 19.1667 1.76575 19.1667 2.91634V7.08301C19.1667 8.2336 18.2339 9.16634 17.0833 9.16634H2.91667C1.76607 9.16634 0.833334 8.2336 0.833334 7.08301V2.91634ZM2.91667 2.49967C2.68655 2.49967 2.5 2.68622 2.5 2.91634V7.08301C2.5 7.31313 2.68655 7.49967 2.91667 7.49967H17.0833C17.3135 7.49967 17.5 7.31313 17.5 7.08301V2.91634C17.5 2.68622 17.3135 2.49967 17.0833 2.49967H2.91667Z"></path>
      <path fill-rule="evenodd" clip-rule="evenodd" d="M0.833334 12.9163C0.833334 11.7657 1.76607 10.833 2.91667 10.833H17.0833C18.2339 10.833 19.1667 11.7657 19.1667 12.9163V17.083C19.1667 18.2336 18.2339 19.1663 17.0833 19.1663H2.91667C1.76607 19.1663 0.833334 18.2336 0.833334 17.083V12.9163ZM2.91667 12.4997C2.68655 12.4997 2.5 12.6862 2.5 12.9163V17.083C2.5 17.3131 2.68655 17.4997 2.91667 17.4997H17.0833C17.3135 17.4997 17.5 17.3131 17.5 17.083V12.9163C17.5 12.6862 17.3135 12.4997 17.0833 12.4997H2.91667Z"></path>
    </g>
    <defs>
      <clipPath id="clip0_2313_4736">
        <rect width="20" height="20"></rect>
      </clipPath>
    </defs>
  </symbol>

	<!-- !ic-calendar -->
	<symbol fill="none" xmlns="http://www.w3.org/2000/svg" viewBox="0 0 48 48" id="ic-calendar">
    <path d="M43.631 17.7122C43.4567 17.5378 43.2157 17.4375 42.9683 17.4375C42.7217 17.4375 42.4798 17.5378 42.3055 17.7122C42.1311 17.8866 42.0308 18.1284 42.0308 18.375C42.0308 18.6216 42.131 18.8634 42.3055 19.0378C42.4799 19.2122 42.7217 19.3125 42.9683 19.3125C43.2158 19.3125 43.4567 19.2122 43.631 19.0378C43.8054 18.8634 43.9058 18.6216 43.9058 18.375C43.9058 18.1284 43.8054 17.8866 43.631 17.7122Z" fill="#FF3F3A"></path>
    <path d="M42.7812 6.9375H41.7076C41.8735 6.76837 41.9762 6.53691 41.9762 6.28125V5.0625C41.9762 3.30488 40.5463 1.875 38.7887 1.875C37.0311 1.875 35.6012 3.30488 35.6012 5.0625V6.9375H26.907C27.0729 6.76837 27.1756 6.53691 27.1756 6.28125V5.0625C27.1756 3.30488 25.7457 1.875 23.9881 1.875C22.2305 1.875 20.8006 3.30488 20.8006 5.0625V6.9375H12.1064C12.2723 6.76837 12.375 6.53691 12.375 6.28125V5.0625C12.375 3.30488 10.9451 1.875 9.1875 1.875C7.42987 1.875 6 3.30488 6 5.0625V6.9375H5.21878C2.34113 6.9375 0 9.27863 0 12.1563V43.3125C0 44.8633 1.26169 46.125 2.8125 46.125H19C19.5177 46.125 19.9375 45.7053 19.9375 45.1875C19.9375 44.6697 19.5177 44.25 19 44.25H2.8125C2.29556 44.25 1.875 43.8294 1.875 43.3125V19.3125H38.3756C38.8933 19.3125 39.3131 18.8928 39.3131 18.375C39.3131 17.8572 38.8933 17.4375 38.3756 17.4375H1.875V12.1563C1.875 10.3125 3.375 8.8125 5.21878 8.8125H6V11.0782C6 12.8359 7.42987 14.2657 9.1875 14.2657C10.9451 14.2657 12.375 12.8359 12.375 11.0782C12.375 10.5605 11.9552 10.1407 11.4375 10.1407C10.9198 10.1407 10.5 10.5605 10.5 11.0782C10.5 11.802 9.91125 12.3907 9.1875 12.3907C8.46375 12.3907 7.875 11.802 7.875 11.0782V8.8125H20.8006V11.0782C20.8006 12.8359 22.2305 14.2657 23.9881 14.2657C25.7457 14.2657 27.1756 12.8359 27.1756 11.0782C27.1756 10.5605 26.7558 10.1407 26.2381 10.1407C25.7204 10.1407 25.3006 10.5605 25.3006 11.0782C25.3006 11.802 24.7118 12.3907 23.9881 12.3907C23.2643 12.3907 22.6756 11.802 22.6756 11.0782V8.8125H35.6012V11.0782C35.6012 12.8359 37.0311 14.2657 38.7887 14.2657C40.5463 14.2657 41.9762 12.8359 41.9762 11.0782C41.9762 10.5605 41.5564 10.1407 41.0387 10.1407C40.521 10.1407 40.1012 10.5605 40.1012 11.0782C40.1012 11.802 39.5124 12.3907 38.7887 12.3907C38.0649 12.3907 37.4762 11.802 37.4762 11.0782V8.8125H42.7812C44.625 8.8125 46.125 10.3125 46.125 12.1563V43.3125C46.125 43.8294 45.7044 44.25 45.1875 44.25H29C28.4823 44.25 28.0625 44.6697 28.0625 45.1875C28.0625 45.7053 28.4823 46.125 29 46.125H45.1875C46.7383 46.125 48 44.8633 48 43.3125V12.1563C48 9.27863 45.6589 6.9375 42.7812 6.9375ZM7.875 6.9375V5.0625C7.875 4.33875 8.46375 3.75 9.1875 3.75C9.91125 3.75 10.5 4.33875 10.5 5.0625V6.28125C10.5 6.53691 10.6027 6.76837 10.7686 6.9375H7.875ZM22.6756 6.9375V5.0625C22.6756 4.33875 23.2643 3.75 23.9881 3.75C24.7118 3.75 25.3006 4.33875 25.3006 5.0625V6.28125C25.3006 6.53691 25.4032 6.76837 25.5692 6.9375H22.6756ZM37.4762 6.9375V5.0625C37.4762 4.33875 38.0649 3.75 38.7887 3.75C39.5124 3.75 40.1012 4.33875 40.1012 5.0625V6.28125C40.1012 6.53691 40.2038 6.76837 40.3698 6.9375H37.4762Z" fill="#FF3F3A"></path>
    <path d="M9 22.3125C6.82884 22.3125 5.0625 24.0788 5.0625 26.25C5.0625 28.4212 6.82884 30.1875 9 30.1875C11.1712 30.1875 12.9375 28.4212 12.9375 26.25C12.9375 24.0788 11.1712 22.3125 9 22.3125ZM9 28.3125C7.86272 28.3125 6.9375 27.3873 6.9375 26.25C6.9375 25.1127 7.86272 24.1875 9 24.1875C10.1373 24.1875 11.0625 25.1127 11.0625 26.25C11.0625 27.3873 10.1373 28.3125 9 28.3125Z" fill="#FF3F3A"></path>
    <path d="M39 22.3125C36.8288 22.3125 35.0625 24.0788 35.0625 26.25C35.0625 28.4212 36.8288 30.1875 39 30.1875C41.1712 30.1875 42.9375 28.4212 42.9375 26.25C42.9375 24.0788 41.1712 22.3125 39 22.3125ZM39 28.3125C37.8627 28.3125 36.9375 27.3873 36.9375 26.25C36.9375 25.1127 37.8627 24.1875 39 24.1875C40.1373 24.1875 41.0625 25.1127 41.0625 26.25C41.0625 27.3873 40.1373 28.3125 39 28.3125Z" fill="#FF3F3A"></path>
    <path d="M29.001 22.3125C26.8298 22.3125 25.0635 24.0788 25.0635 26.25C25.0635 28.4212 26.8298 30.1875 29.001 30.1875C31.1721 30.1875 32.9385 28.4212 32.9385 26.25C32.9385 24.0788 31.1721 22.3125 29.001 22.3125ZM29.001 28.3125C27.8637 28.3125 26.9385 27.3873 26.9385 26.25C26.9385 25.1127 27.8637 24.1875 29.001 24.1875C30.1383 24.1875 31.0635 25.1127 31.0635 26.25C31.0635 27.3873 30.1383 28.3125 29.001 28.3125Z" fill="#FF3F3A"></path>
    <path d="M18.999 22.3125C16.8279 22.3125 15.0615 24.0788 15.0615 26.25C15.0615 28.4212 16.8279 30.1875 18.999 30.1875C21.1702 30.1875 22.9365 28.4212 22.9365 26.25C22.9365 24.0788 21.1702 22.3125 18.999 22.3125ZM18.999 28.3125C17.8617 28.3125 16.9365 27.3873 16.9365 26.25C16.9365 25.1127 17.8617 24.1875 18.999 24.1875C20.1363 24.1875 21.0615 25.1127 21.0615 26.25C21.0615 27.3873 20.1363 28.3125 18.999 28.3125Z" fill="#FF3F3A"></path>
    <path d="M9 33.75C6.82884 33.75 5.0625 35.5163 5.0625 37.6875C5.0625 39.8587 6.82884 41.625 9 41.625C11.1712 41.625 12.9375 39.8587 12.9375 37.6875C12.9375 35.5163 11.1712 33.75 9 33.75ZM9 39.75C7.86272 39.75 6.9375 38.8248 6.9375 37.6875C6.9375 36.5502 7.86272 35.625 9 35.625C10.1373 35.625 11.0625 36.5502 11.0625 37.6875C11.0625 38.8248 10.1373 39.75 9 39.75Z" fill="#FF3F3A"></path>
    <path d="M29.001 33.75C26.8298 33.75 25.0635 35.5163 25.0635 37.6875C25.0635 39.8587 26.8298 41.625 29.001 41.625C31.1721 41.625 32.9385 39.8587 32.9385 37.6875C32.9385 35.5163 31.1721 33.75 29.001 33.75ZM29.001 39.75C27.8637 39.75 26.9385 38.8248 26.9385 37.6875C26.9385 36.5502 27.8637 35.625 29.001 35.625C30.1383 35.625 31.0635 36.5502 31.0635 37.6875C31.0635 38.8248 30.1383 39.75 29.001 39.75Z" fill="#FF3F3A"></path>
    <path d="M39 33.75C36.8288 33.75 35.0625 35.5163 35.0625 37.6875C35.0625 39.8587 36.8288 41.625 39 41.625C41.1712 41.625 42.9375 39.8587 42.9375 37.6875C42.9375 35.5163 41.1712 33.75 39 33.75ZM39 39.75C37.8627 39.75 36.9375 38.8248 36.9375 37.6875C36.9375 36.5502 37.8627 35.625 39 35.625C40.1373 35.625 41.0625 36.5502 41.0625 37.6875C41.0625 38.8248 40.1373 39.75 39 39.75Z" fill="#FF3F3A"></path>
    <path d="M18.999 33.75C16.8279 33.75 15.0615 35.5163 15.0615 37.6875C15.0615 39.8587 16.8279 41.625 18.999 41.625C21.1702 41.625 22.9365 39.8587 22.9365 37.6875C22.9365 35.5163 21.1702 33.75 18.999 33.75ZM18.999 39.75C17.8617 39.75 16.9365 38.8248 16.9365 37.6875C16.9365 36.5502 17.8617 35.625 18.999 35.625C20.1363 35.625 21.0615 36.5502 21.0615 37.6875C21.0615 38.8248 20.1363 39.75 18.999 39.75Z" fill="#FF3F3A"></path>
    <path d="M24.6627 44.5247C24.4884 44.3503 24.2466 44.25 24 44.25C23.7524 44.25 23.5116 44.3503 23.3372 44.5247C23.1619 44.6991 23.0625 44.9409 23.0625 45.1875C23.0625 45.4341 23.1619 45.6759 23.3372 45.8503C23.5116 46.0247 23.7525 46.125 24 46.125C24.2466 46.125 24.4884 46.0247 24.6627 45.8503C24.8371 45.6759 24.9375 45.4341 24.9375 45.1875C24.9375 44.9409 24.8372 44.6991 24.6627 44.5247Z" fill="#FF3F3A"></path>
  </symbol>

	<!-- !ic-chat -->
  <symbol fill="none" xmlns="http://www.w3.org/2000/svg" viewBox="0 0 48 48" id="ic-chat">
    <g clip-path="url(#clip0_39589_283)">
      <path d="M45.3492 26.4414C47.0849 23.6908 47.9997 20.5243 47.9997 17.2499C47.9997 7.73831 40.2614 0 30.7498 0C27.5638 0 24.4509 0.875719 21.7479 2.53247C21.3065 2.80303 21.1679 3.38016 21.4386 3.82162C21.709 4.263 22.2862 4.40166 22.7277 4.131C25.1358 2.65509 27.9098 1.875 30.7499 1.875C39.2276 1.875 46.1248 8.77209 46.1248 17.2499C46.1248 20.3246 45.2204 23.2919 43.5092 25.8309C43.2822 26.1677 43.3016 26.6031 43.5352 26.9157L44.5625 30.7497L40.439 29.6448C40.1689 29.5724 39.8806 29.6242 39.6528 29.7864C37.043 31.6434 33.9644 32.6249 30.7499 32.6249C28.9187 32.6249 27.1276 32.305 25.4242 31.6757C24.225 27.2596 20.7406 23.7751 16.3245 22.576C15.6951 20.8726 15.375 19.0818 15.375 17.25C15.375 14.3784 16.1714 11.578 17.6782 9.1515C17.9513 8.71163 17.8161 8.13366 17.3762 7.86047C16.9365 7.58738 16.3583 7.72247 16.0852 8.16244C14.3938 10.8863 13.4999 14.0287 13.4999 17.25C13.4999 18.9363 13.742 20.5921 14.2192 22.1887C13.7974 22.1471 13.3699 22.1253 12.9374 22.1253C5.80369 22.1253 0 27.9291 0 35.0627C0 37.6229 0.74025 40.0806 2.14481 42.1991L1.1415 45.944C1.05478 46.2675 1.14731 46.6127 1.38412 46.8496C1.62094 47.0864 1.96603 47.1788 2.28966 47.0922L6.12731 46.0639C8.17106 47.3317 10.5163 48 12.9374 48C15.4016 48 17.7985 47.3044 19.869 45.9883C20.306 45.7105 20.435 45.1312 20.1573 44.6942C19.8795 44.2572 19.2999 44.1282 18.8632 44.4059C17.0937 45.5306 15.0448 46.125 12.9374 46.125C10.7437 46.125 8.62331 45.4839 6.80578 44.271C6.58144 44.1213 6.30347 44.0753 6.04275 44.1453L3.37275 44.8607L4.06781 42.2667C4.14028 41.9963 4.08806 41.7075 3.92541 41.4796C2.58394 39.5993 1.87491 37.3804 1.87491 35.0625C1.87491 28.9627 6.83756 24.0001 12.9373 24.0001C19.0371 24.0001 23.9998 28.9627 23.9998 35.0626C23.9998 36.3652 23.7758 37.6402 23.3341 38.852C23.1567 39.3383 23.4073 39.8765 23.8938 40.0538C24.3802 40.2311 24.9184 39.9806 25.0957 39.4942C25.6127 38.076 25.8748 36.585 25.8748 35.0626C25.8748 34.6301 25.8531 34.2027 25.8114 33.781C27.4082 34.2581 29.0642 34.4998 30.7499 34.4998C34.2069 34.4998 37.5243 33.4877 40.373 31.5682L45.6457 32.981C45.9694 33.0677 46.3144 32.9752 46.5513 32.7383C46.7881 32.5015 46.8806 32.1563 46.7939 31.8327L45.3492 26.4414Z" fill="#FF3F3A"></path>
      <path d="M35.5824 19.2461H26.0337C25.5159 19.2461 25.0962 19.6658 25.0962 20.1836C25.0962 23.3331 27.6586 25.8955 30.8081 25.8955C33.9576 25.8955 36.52 23.3331 36.52 20.1836C36.5199 19.6658 36.1001 19.2461 35.5824 19.2461ZM30.8081 24.0204C29.0158 24.0204 27.5065 22.785 27.0871 21.121H34.5292C34.1096 22.785 32.6003 24.0204 30.8081 24.0204Z" fill="#FF3F3A"></path>
      <path d="M38.1075 14.0455C37.8358 13.6046 37.2582 13.4675 36.8176 13.739L36.6953 13.8145C36.2549 14.0867 36.1184 14.6643 36.3906 15.1048C36.5679 15.3918 36.8749 15.5497 37.189 15.5497C37.3571 15.5497 37.5274 15.5045 37.6809 15.4096L37.801 15.3354C38.2418 15.0638 38.3791 14.4863 38.1075 14.0455Z" fill="#FF3F3A"></path>
      <path d="M25.2266 14.0454C24.955 13.6046 24.3773 13.4675 23.9367 13.739L23.8145 13.8145C23.374 14.0867 23.2375 14.6644 23.5098 15.1048C23.6871 15.3918 23.994 15.5496 24.3082 15.5496C24.4763 15.5496 24.6465 15.5044 24.8001 15.4095L24.9202 15.3353C25.361 15.0637 25.4982 14.4862 25.2266 14.0454Z" fill="#FF3F3A"></path>
      <path d="M8.44309 34.3997C8.26871 34.2253 8.02684 34.125 7.78027 34.125C7.53371 34.125 7.29193 34.2253 7.11746 34.3997C6.94309 34.5741 6.84277 34.8159 6.84277 35.0625C6.84277 35.3091 6.94309 35.5509 7.11746 35.7253C7.29184 35.8997 7.53371 36 7.78027 36C8.02684 36 8.26871 35.8997 8.44309 35.7253C8.61746 35.5509 8.71777 35.3091 8.71777 35.0625C8.71777 34.8159 8.61746 34.5741 8.44309 34.3997Z" fill="#FF3F3A"></path>
      <path d="M13.5993 34.3997C13.425 34.2253 13.1831 34.125 12.9365 34.125C12.69 34.125 12.4482 34.2253 12.2737 34.3997C12.0993 34.5741 11.999 34.8159 11.999 35.0625C11.999 35.3091 12.0993 35.5509 12.2737 35.7253C12.4481 35.8997 12.69 36 12.9365 36C13.1831 36 13.425 35.8997 13.5993 35.7253C13.7737 35.5509 13.874 35.3091 13.874 35.0625C13.874 34.8159 13.7737 34.5741 13.5993 34.3997Z" fill="#FF3F3A"></path>
      <path d="M18.7566 34.3997C18.5822 34.2253 18.3403 34.125 18.0938 34.125C17.8472 34.125 17.6054 34.2253 17.4309 34.3997C17.2566 34.5741 17.1562 34.8159 17.1562 35.0625C17.1562 35.3091 17.2566 35.5509 17.4309 35.7253C17.6053 35.8997 17.8472 36 18.0938 36C18.3403 36 18.5822 35.8997 18.7566 35.7253C18.9309 35.5509 19.0312 35.3091 19.0312 35.0625C19.0312 34.8159 18.9309 34.5741 18.7566 34.3997Z" fill="#FF3F3A"></path>
      <path d="M22.9529 41.9182C22.7785 41.7439 22.5366 41.6436 22.29 41.6436C22.0425 41.6436 21.8016 41.7439 21.6272 41.9182C21.4529 42.0926 21.3525 42.3345 21.3525 42.5811C21.3525 42.8276 21.4529 43.0695 21.6272 43.2439C21.8016 43.4182 22.0425 43.5186 22.29 43.5186C22.5366 43.5186 22.7785 43.4182 22.9529 43.2439C23.1272 43.0695 23.2275 42.8276 23.2275 42.5811C23.2275 42.3345 23.1272 42.0926 22.9529 41.9182Z" fill="#FF3F3A"></path>
      <path d="M19.9099 5.0218C19.7355 4.84742 19.4936 4.74805 19.2471 4.74805C18.9996 4.74805 18.7586 4.84742 18.5843 5.0218C18.4089 5.19711 18.3096 5.43805 18.3096 5.68555C18.3096 5.93211 18.4089 6.17398 18.5843 6.34836C18.7586 6.52273 18.9995 6.62211 19.2471 6.62211C19.4936 6.62211 19.7355 6.52273 19.9099 6.34836C20.0843 6.17398 20.1846 5.93211 20.1846 5.68555C20.1846 5.43805 20.0843 5.19711 19.9099 5.0218Z" fill="#FF3F3A"></path>
    </g>
    <defs>
      <clipPath id="clip0_39589_283">
        <rect width="48" height="48" fill="white"></rect>
      </clipPath>
    </defs>
  </symbol>

	<!-- !ic-structure -->
  <symbol fill="none" xmlns="http://www.w3.org/2000/svg" viewBox="0 0 48 48" id="ic-structure">
    <g clip-path="url(#clip0_39589_385)">
      <path d="M32.802 23.6183C32.6278 23.444 32.386 23.3438 32.1397 23.3438C31.8933 23.3438 31.6515 23.4439 31.4772 23.6183C31.303 23.7927 31.2026 24.0344 31.2026 24.2808C31.2026 24.5272 31.3028 24.7689 31.4772 24.9431C31.6515 25.1174 31.8933 25.2178 32.1397 25.2178C32.386 25.2178 32.6269 25.1176 32.802 24.9431C32.9763 24.7689 33.0767 24.5272 33.0767 24.2808C33.0767 24.0344 32.9764 23.7926 32.802 23.6183Z" fill="#FF3F3A"></path>
      <path d="M38.9807 2.54199H8.9955C8.47809 2.54199 8.05847 2.96162 8.05847 3.47902V18.4716C8.05847 18.989 8.47809 19.4086 8.9955 19.4086H23.0511V23.3442H7.04353C6.52612 23.3442 6.1065 23.7638 6.1065 24.2812V31.5901H0.937031C0.419625 31.5901 0 32.0097 0 32.5271V44.5212C0 45.0386 0.419625 45.4582 0.937031 45.4582H12.9311C13.4485 45.4582 13.8682 45.0386 13.8682 44.5212V32.5271C13.8682 32.0097 13.4485 31.5901 12.9311 31.5901H7.98056V25.2182H23.0511V31.5901H18.003C17.4856 31.5901 17.066 32.0097 17.066 32.5271V44.5212C17.066 45.0386 17.4856 45.4582 18.003 45.4582H29.9971C30.5145 45.4582 30.9341 45.0386 30.9341 44.5212V32.5271C30.9341 32.0096 30.5145 31.5901 29.9971 31.5901H24.9252V25.2182H28.6733C29.1907 25.2182 29.6104 24.7986 29.6104 24.2812C29.6104 23.7638 29.1907 23.3442 28.6733 23.3442H24.9252V19.4086H38.9808C39.4982 19.4086 39.9178 18.989 39.9178 18.4716V3.47902C39.9177 2.96152 39.4981 2.54199 38.9807 2.54199ZM11.9941 33.4641V43.5841H1.87406V33.4641H11.9941ZM29.06 33.4641V43.5841H18.94V33.4641H29.06ZM38.0437 17.5345H9.93253V8.16418H16.2803C16.7977 8.16418 17.2174 7.74455 17.2174 7.22715C17.2174 6.70974 16.7977 6.29012 16.2803 6.29012H9.93253V4.41605H38.0436V17.5345H38.0437Z" fill="#FF3F3A"></path>
      <path d="M47.0634 31.5896H41.8702V24.2808C41.8702 23.7634 41.4505 23.3438 40.9331 23.3438H35.7952C35.2778 23.3438 34.8581 23.7634 34.8581 24.2808C34.8581 24.7982 35.2778 25.2178 35.7952 25.2178H39.9961V31.5896H35.0694C34.5519 31.5896 34.1323 32.0092 34.1323 32.5267V44.5207C34.1323 45.0382 34.5519 45.4578 35.0694 45.4578H47.0634C47.5809 45.4578 48.0005 45.0382 48.0005 44.5207V32.5267C48.0005 32.0092 47.5809 31.5896 47.0634 31.5896ZM46.1264 43.5836H36.0064V33.4637H46.1264V43.5836Z" fill="#FF3F3A"></path>
      <path d="M20.8847 6.56463C20.7103 6.39035 20.4686 6.29004 20.2223 6.29004C19.9749 6.29004 19.7341 6.39016 19.5588 6.56463C19.3846 6.73891 19.2852 6.98069 19.2852 7.22707C19.2852 7.47354 19.3845 7.71523 19.5588 7.88941C19.734 8.0637 19.9758 8.1641 20.2223 8.1641C20.4688 8.1641 20.7095 8.06388 20.8847 7.88941C21.059 7.71523 21.1593 7.47345 21.1593 7.22707C21.1593 6.98069 21.0592 6.73891 20.8847 6.56463Z" fill="#FF3F3A"></path>
    </g>
    <defs>
      <clipPath id="clip0_39589_385">
        <rect width="48" height="48" fill="white"></rect>
      </clipPath>
    </defs>
  </symbol>

	<!-- !ic-target -->
  <symbol fill="none" xmlns="http://www.w3.org/2000/svg" viewBox="0 0 48 48" id="ic-target">
    <g clip-path="url(#clip0_39589_314)">
      <path d="M33.2982 37.0005C32.9796 36.6697 32.3918 36.5748 31.9597 36.9883C31.9567 36.9912 31.9536 36.9942 31.9505 36.9972C31.5241 37.4165 31.6012 38.007 31.9221 38.3354C32.0925 38.51 32.3384 38.6175 32.596 38.6175C32.8233 38.6175 33.0595 38.5338 33.2607 38.3385C33.69 37.9222 33.617 37.3311 33.2982 37.0005Z" fill="#FF3F3A"></path>
      <path d="M41.7867 18.9529C41.6067 18.4673 41.0676 18.2197 40.5821 18.3994C40.0966 18.5792 39.8488 19.1184 40.0286 19.6039C40.8379 21.7887 41.2481 24.0889 41.2481 26.4408C41.2481 37.295 32.4176 46.1255 21.5635 46.1255C17.5358 46.1255 13.664 44.9178 10.3664 42.633C9.94105 42.3381 9.35689 42.444 9.06205 42.8696C8.76711 43.2951 8.87305 43.8791 9.29868 44.1739C12.9114 46.6771 17.1525 48.0002 21.5636 48.0002C27.3224 48.0002 32.7363 45.7576 36.8084 41.6855C40.8805 37.6135 43.123 32.1994 43.123 26.4408C43.1229 23.866 42.6732 21.3467 41.7867 18.9529Z" fill="#FF3F3A"></path>
      <path d="M28.8232 6.13401C26.4975 5.30245 24.055 4.88086 21.5634 4.88086C15.8046 4.88086 10.3906 7.12345 6.31852 11.1954C2.2465 15.2676 0.00390625 20.6816 0.00390625 26.4403C0.00390625 30.9061 1.35728 35.1906 3.91796 38.8308C4.1004 39.0903 4.39055 39.2289 4.68549 39.2289C4.87177 39.2289 5.05993 39.1735 5.2239 39.0581C5.64736 38.7602 5.74918 38.1755 5.45133 37.7521C3.11406 34.4294 1.87862 30.5179 1.87862 26.4402C1.87862 15.5861 10.7092 6.75557 21.5633 6.75557C23.8393 6.75557 26.0694 7.14032 28.1919 7.89923C28.6793 8.0736 29.2159 7.81973 29.3901 7.33223C29.5644 6.84482 29.3106 6.30839 28.8232 6.13401Z" fill="#FF3F3A"></path>
      <path d="M47.9251 7.77379C47.78 7.42344 47.4383 7.19516 47.059 7.19516H42.1337L42.6634 6.66548C43.0294 6.29948 43.0294 5.70585 42.6634 5.33976C42.2973 4.97376 41.7039 4.97376 41.3377 5.33976L40.8012 5.8762V0.937456C40.8012 0.558426 40.5728 0.21652 40.2226 0.0713954C39.8723 -0.0737293 39.4691 0.0065205 39.2011 0.274551L30.9376 8.53804C30.7619 8.71382 30.663 8.95222 30.663 9.20085V12.4526C27.9592 10.6839 24.8421 9.75538 21.5626 9.75538C12.3624 9.75538 4.87744 17.2404 4.87744 26.4405C4.87744 35.6406 12.3624 43.1256 21.5626 43.1256C24.6162 43.1256 27.6036 42.2928 30.2019 40.7175C30.6446 40.4491 30.7858 39.8726 30.5175 39.4299C30.2491 38.9873 29.6727 38.8459 29.23 39.1144C26.9248 40.5121 24.2734 41.2508 21.5626 41.2508C13.3961 41.2508 6.75216 34.607 6.75216 26.4404C6.75216 18.2739 13.3961 11.63 21.5626 11.63C24.8972 11.63 28.0424 12.7108 30.663 14.7556V16.0142L28.9548 17.7224C26.9599 16.0283 24.3788 15.0044 21.5626 15.0044C15.2568 15.0044 10.1267 20.1345 10.1267 26.4403C10.1267 32.7461 15.2568 37.8762 21.5626 37.8762C27.8684 37.8762 32.9984 32.7461 32.9984 26.4403C32.9984 23.6242 31.9747 21.043 30.2805 19.048L31.9954 17.3331H33.2425C35.2633 19.9229 36.3729 23.1446 36.3729 26.4403C36.3729 29.2038 35.607 31.8992 34.1582 34.235C33.8853 34.6748 34.0208 35.2527 34.4609 35.5256C34.6147 35.621 34.7853 35.6665 34.954 35.6665C35.2677 35.6665 35.574 35.5091 35.7515 35.2232C37.3846 32.5904 38.2477 29.5534 38.2477 26.4403C38.2477 23.2025 37.2966 20.0278 35.5431 17.3331H38.7954C39.044 17.3331 39.2823 17.2343 39.4582 17.0585L47.7217 8.795C47.99 8.52725 48.0701 8.12404 47.9251 7.77379ZM31.1239 26.4405C31.1239 31.7125 26.8348 36.0017 21.5628 36.0017C16.2907 36.0017 12.0016 31.7125 12.0016 26.4405C12.0016 21.1685 16.2907 16.8793 21.5628 16.8793C23.862 16.8793 25.974 17.6952 27.6251 19.0525L25.4902 21.1874C24.3946 20.3661 23.0345 19.879 21.5628 19.879C17.9448 19.879 15.0013 22.8225 15.0013 26.4405C15.0013 30.0586 17.9449 33.0021 21.5628 33.0021C25.1809 33.0021 28.1244 30.0585 28.1244 26.4405C28.1244 24.9688 27.6373 23.6088 26.8159 22.513L28.9508 20.3782C30.308 22.0293 31.1239 24.1413 31.1239 26.4405ZM20.8999 27.1034C21.083 27.2865 21.3228 27.378 21.5628 27.378C21.8027 27.378 22.0425 27.2865 22.2256 27.1034L25.4711 23.8579C25.9624 24.599 26.2496 25.4867 26.2496 26.4405C26.2496 29.0248 24.1471 31.1273 21.5628 31.1273C18.9784 31.1273 16.8759 29.0248 16.8759 26.4405C16.8759 23.8562 18.9784 21.7537 21.5628 21.7537C22.5167 21.7537 23.4043 22.0408 24.1455 22.5322L20.8999 25.7777C20.5339 26.1437 20.5339 26.7372 20.8999 27.1034ZM32.538 14.1396V9.58916L38.9266 3.20048V7.75091L32.538 14.1396ZM38.4073 15.4586H33.8704L40.2591 9.06988H44.796L38.4073 15.4586Z" fill="#FF3F3A"></path>
      <path d="M7.62444 40.3401C7.45016 40.1658 7.20838 40.0654 6.96182 40.0654C6.71423 40.0654 6.47244 40.1657 6.2991 40.3401C6.12379 40.5145 6.02441 40.7563 6.02441 41.0028C6.02441 41.2494 6.12379 41.4912 6.2991 41.6656C6.47338 41.8399 6.71432 41.9402 6.96182 41.9402C7.20838 41.9402 7.45016 41.8399 7.62444 41.6656C7.79882 41.4912 7.89922 41.2494 7.89922 41.0028C7.89922 40.7563 7.79891 40.5154 7.62444 40.3401Z" fill="#FF3F3A"></path>
    </g>
    <defs>
      <clipPath id="clip0_39589_314">
        <rect width="48" height="48" fill="white"></rect>
      </clipPath>
    </defs>
  </symbol>

	<!-- !cross-burger -->
	<symbol version="1.1" id="cross-burger" xmlns="http://www.w3.org/2000/svg" viewBox="0 0 15 15">
    <path d="M2.64,1.27L7.5,6.13l4.84-4.84C12.5114,1.1076,12.7497,1.0029,13,1c0.5523,0,1,0.4477,1,1
	c0.0047,0.2478-0.093,0.4866-0.27,0.66L8.84,7.5l4.89,4.89c0.1648,0.1612,0.2615,0.3796,0.27,0.61c0,0.5523-0.4477,1-1,1
	c-0.2577,0.0107-0.508-0.0873-0.69-0.27L7.5,8.87l-4.85,4.85C2.4793,13.8963,2.2453,13.9971,2,14c-0.5523,0-1-0.4477-1-1
	c-0.0047-0.2478,0.093-0.4866,0.27-0.66L6.16,7.5L1.27,2.61C1.1052,2.4488,1.0085,2.2304,1,2c0-0.5523,0.4477-1,1-1
	C2.2404,1.0029,2.4701,1.0998,2.64,1.27z"></path>
  </symbol>

	<!-- !burger -->
    <symbol version="1.1" id="burger" xmlns="http://www.w3.org/2000/svg" xmlns:xlink="http://www.w3.org/1999/xlink" x="0px" y="0px" enable-background="new 0 0 122.879 103.609" xml:space="preserve" viewBox="0 0 122.879 103.609">
    <g>
      <path fill-rule="evenodd" clip-rule="evenodd" d="M10.368,0h102.144c5.703,0,10.367,4.665,10.367,10.367v0 c0,5.702-4.664,10.368-10.367,10.368H10.368C4.666,20.735,0,16.07,0,10.368v0C0,4.665,4.666,0,10.368,0L10.368,0z M10.368,82.875 h102.144c5.703,0,10.367,4.665,10.367,10.367l0,0c0,5.702-4.664,10.367-10.367,10.367H10.368C4.666,103.609,0,98.944,0,93.242l0,0 C0,87.54,4.666,82.875,10.368,82.875L10.368,82.875z M10.368,41.438h102.144c5.703,0,10.367,4.665,10.367,10.367l0,0 c0,5.702-4.664,10.368-10.367,10.368H10.368C4.666,62.173,0,57.507,0,51.805l0,0C0,46.103,4.666,41.438,10.368,41.438 L10.368,41.438z"></path>
    </g>
  </symbol>

</svg>